%TF.GenerationSoftware,KiCad,Pcbnew,5.1.9+dfsg1-1*%
%TF.CreationDate,2021-06-24T19:32:38+02:00*%
%TF.ProjectId,pcb,7063622e-6b69-4636-9164-5f7063625858,rev?*%
%TF.SameCoordinates,Original*%
%TF.FileFunction,Legend,Bot*%
%TF.FilePolarity,Positive*%
%FSLAX46Y46*%
G04 Gerber Fmt 4.6, Leading zero omitted, Abs format (unit mm)*
G04 Created by KiCad (PCBNEW 5.1.9+dfsg1-1) date 2021-06-24 19:32:38*
%MOMM*%
%LPD*%
G01*
G04 APERTURE LIST*
%ADD10C,0.120000*%
%ADD11C,0.150000*%
G04 APERTURE END LIST*
D10*
%TO.C,C3*%
X166407918Y-124400000D02*
X166407918Y-123150000D01*
X165782918Y-123775000D02*
X167032918Y-123775000D01*
X178961000Y-120517000D02*
X178961000Y-119883000D01*
X178921000Y-120957000D02*
X178921000Y-119443000D01*
X178881000Y-121228000D02*
X178881000Y-119172000D01*
X178841000Y-121441000D02*
X178841000Y-118959000D01*
X178801000Y-121622000D02*
X178801000Y-118778000D01*
X178761000Y-121783000D02*
X178761000Y-118617000D01*
X178721000Y-121928000D02*
X178721000Y-118472000D01*
X178681000Y-122061000D02*
X178681000Y-118339000D01*
X178641000Y-122184000D02*
X178641000Y-118216000D01*
X178601000Y-122300000D02*
X178601000Y-118100000D01*
X178561000Y-122409000D02*
X178561000Y-117991000D01*
X178521000Y-122512000D02*
X178521000Y-117888000D01*
X178481000Y-122610000D02*
X178481000Y-117790000D01*
X178441000Y-122704000D02*
X178441000Y-117696000D01*
X178401000Y-122794000D02*
X178401000Y-117606000D01*
X178361000Y-122881000D02*
X178361000Y-117519000D01*
X178321000Y-122964000D02*
X178321000Y-117436000D01*
X178281000Y-123044000D02*
X178281000Y-117356000D01*
X178241000Y-123121000D02*
X178241000Y-117279000D01*
X178201000Y-123196000D02*
X178201000Y-117204000D01*
X178161000Y-123269000D02*
X178161000Y-117131000D01*
X178121000Y-123340000D02*
X178121000Y-117060000D01*
X178081000Y-123408000D02*
X178081000Y-116992000D01*
X178041000Y-123475000D02*
X178041000Y-116925000D01*
X178001000Y-123539000D02*
X178001000Y-116861000D01*
X177961000Y-123602000D02*
X177961000Y-116798000D01*
X177921000Y-123664000D02*
X177921000Y-116736000D01*
X177881000Y-123724000D02*
X177881000Y-116676000D01*
X177841000Y-123783000D02*
X177841000Y-116617000D01*
X177801000Y-123840000D02*
X177801000Y-116560000D01*
X177761000Y-123896000D02*
X177761000Y-116504000D01*
X177721000Y-123950000D02*
X177721000Y-116450000D01*
X177681000Y-124004000D02*
X177681000Y-116396000D01*
X177641000Y-124056000D02*
X177641000Y-116344000D01*
X177601000Y-124107000D02*
X177601000Y-116293000D01*
X177561000Y-124157000D02*
X177561000Y-116243000D01*
X177521000Y-124207000D02*
X177521000Y-116193000D01*
X177481000Y-124255000D02*
X177481000Y-116145000D01*
X177441000Y-124302000D02*
X177441000Y-116098000D01*
X177401000Y-124348000D02*
X177401000Y-116052000D01*
X177361000Y-124394000D02*
X177361000Y-116006000D01*
X177321000Y-124438000D02*
X177321000Y-115962000D01*
X177281000Y-124482000D02*
X177281000Y-115918000D01*
X177241000Y-124525000D02*
X177241000Y-115875000D01*
X177201000Y-124567000D02*
X177201000Y-115833000D01*
X177161000Y-124608000D02*
X177161000Y-115792000D01*
X177121000Y-124649000D02*
X177121000Y-115751000D01*
X177081000Y-124689000D02*
X177081000Y-115711000D01*
X177041000Y-124728000D02*
X177041000Y-115672000D01*
X177001000Y-124767000D02*
X177001000Y-115633000D01*
X176961000Y-124805000D02*
X176961000Y-115595000D01*
X176921000Y-124842000D02*
X176921000Y-115558000D01*
X176881000Y-124878000D02*
X176881000Y-115522000D01*
X176841000Y-124914000D02*
X176841000Y-115486000D01*
X176801000Y-124950000D02*
X176801000Y-115450000D01*
X176761000Y-124985000D02*
X176761000Y-115415000D01*
X176721000Y-125019000D02*
X176721000Y-115381000D01*
X176681000Y-125052000D02*
X176681000Y-115348000D01*
X176641000Y-125085000D02*
X176641000Y-115315000D01*
X176601000Y-125118000D02*
X176601000Y-115282000D01*
X176561000Y-125150000D02*
X176561000Y-115250000D01*
X176521000Y-118760000D02*
X176521000Y-115218000D01*
X176521000Y-125182000D02*
X176521000Y-121640000D01*
X176481000Y-118760000D02*
X176481000Y-115188000D01*
X176481000Y-125212000D02*
X176481000Y-121640000D01*
X176441000Y-118760000D02*
X176441000Y-115157000D01*
X176441000Y-125243000D02*
X176441000Y-121640000D01*
X176401000Y-118760000D02*
X176401000Y-115127000D01*
X176401000Y-125273000D02*
X176401000Y-121640000D01*
X176361000Y-118760000D02*
X176361000Y-115098000D01*
X176361000Y-125302000D02*
X176361000Y-121640000D01*
X176321000Y-118760000D02*
X176321000Y-115069000D01*
X176321000Y-125331000D02*
X176321000Y-121640000D01*
X176281000Y-118760000D02*
X176281000Y-115040000D01*
X176281000Y-125360000D02*
X176281000Y-121640000D01*
X176241000Y-118760000D02*
X176241000Y-115012000D01*
X176241000Y-125388000D02*
X176241000Y-121640000D01*
X176201000Y-118760000D02*
X176201000Y-114984000D01*
X176201000Y-125416000D02*
X176201000Y-121640000D01*
X176161000Y-118760000D02*
X176161000Y-114957000D01*
X176161000Y-125443000D02*
X176161000Y-121640000D01*
X176121000Y-118760000D02*
X176121000Y-114930000D01*
X176121000Y-125470000D02*
X176121000Y-121640000D01*
X176081000Y-118760000D02*
X176081000Y-114904000D01*
X176081000Y-125496000D02*
X176081000Y-121640000D01*
X176041000Y-118760000D02*
X176041000Y-114878000D01*
X176041000Y-125522000D02*
X176041000Y-121640000D01*
X176001000Y-118760000D02*
X176001000Y-114853000D01*
X176001000Y-125547000D02*
X176001000Y-121640000D01*
X175961000Y-118760000D02*
X175961000Y-114828000D01*
X175961000Y-125572000D02*
X175961000Y-121640000D01*
X175921000Y-118760000D02*
X175921000Y-114803000D01*
X175921000Y-125597000D02*
X175921000Y-121640000D01*
X175881000Y-118760000D02*
X175881000Y-114779000D01*
X175881000Y-125621000D02*
X175881000Y-121640000D01*
X175841000Y-118760000D02*
X175841000Y-114755000D01*
X175841000Y-125645000D02*
X175841000Y-121640000D01*
X175801000Y-118760000D02*
X175801000Y-114732000D01*
X175801000Y-125668000D02*
X175801000Y-121640000D01*
X175761000Y-118760000D02*
X175761000Y-114709000D01*
X175761000Y-125691000D02*
X175761000Y-121640000D01*
X175721000Y-118760000D02*
X175721000Y-114686000D01*
X175721000Y-125714000D02*
X175721000Y-121640000D01*
X175681000Y-118760000D02*
X175681000Y-114664000D01*
X175681000Y-125736000D02*
X175681000Y-121640000D01*
X175641000Y-118760000D02*
X175641000Y-114642000D01*
X175641000Y-125758000D02*
X175641000Y-121640000D01*
X175601000Y-118760000D02*
X175601000Y-114620000D01*
X175601000Y-125780000D02*
X175601000Y-121640000D01*
X175561000Y-118760000D02*
X175561000Y-114599000D01*
X175561000Y-125801000D02*
X175561000Y-121640000D01*
X175521000Y-118760000D02*
X175521000Y-114578000D01*
X175521000Y-125822000D02*
X175521000Y-121640000D01*
X175481000Y-118760000D02*
X175481000Y-114558000D01*
X175481000Y-125842000D02*
X175481000Y-121640000D01*
X175441000Y-118760000D02*
X175441000Y-114538000D01*
X175441000Y-125862000D02*
X175441000Y-121640000D01*
X175401000Y-118760000D02*
X175401000Y-114518000D01*
X175401000Y-125882000D02*
X175401000Y-121640000D01*
X175361000Y-118760000D02*
X175361000Y-114498000D01*
X175361000Y-125902000D02*
X175361000Y-121640000D01*
X175321000Y-118760000D02*
X175321000Y-114479000D01*
X175321000Y-125921000D02*
X175321000Y-121640000D01*
X175281000Y-118760000D02*
X175281000Y-114461000D01*
X175281000Y-125939000D02*
X175281000Y-121640000D01*
X175241000Y-118760000D02*
X175241000Y-114442000D01*
X175241000Y-125958000D02*
X175241000Y-121640000D01*
X175201000Y-118760000D02*
X175201000Y-114424000D01*
X175201000Y-125976000D02*
X175201000Y-121640000D01*
X175161000Y-118760000D02*
X175161000Y-114407000D01*
X175161000Y-125993000D02*
X175161000Y-121640000D01*
X175121000Y-118760000D02*
X175121000Y-114389000D01*
X175121000Y-126011000D02*
X175121000Y-121640000D01*
X175081000Y-118760000D02*
X175081000Y-114372000D01*
X175081000Y-126028000D02*
X175081000Y-121640000D01*
X175041000Y-118760000D02*
X175041000Y-114355000D01*
X175041000Y-126045000D02*
X175041000Y-121640000D01*
X175001000Y-118760000D02*
X175001000Y-114339000D01*
X175001000Y-126061000D02*
X175001000Y-121640000D01*
X174961000Y-118760000D02*
X174961000Y-114323000D01*
X174961000Y-126077000D02*
X174961000Y-121640000D01*
X174921000Y-118760000D02*
X174921000Y-114307000D01*
X174921000Y-126093000D02*
X174921000Y-121640000D01*
X174881000Y-118760000D02*
X174881000Y-114292000D01*
X174881000Y-126108000D02*
X174881000Y-121640000D01*
X174841000Y-118760000D02*
X174841000Y-114276000D01*
X174841000Y-126124000D02*
X174841000Y-121640000D01*
X174801000Y-118760000D02*
X174801000Y-114261000D01*
X174801000Y-126139000D02*
X174801000Y-121640000D01*
X174761000Y-118760000D02*
X174761000Y-114247000D01*
X174761000Y-126153000D02*
X174761000Y-121640000D01*
X174721000Y-118760000D02*
X174721000Y-114233000D01*
X174721000Y-126167000D02*
X174721000Y-121640000D01*
X174681000Y-118760000D02*
X174681000Y-114219000D01*
X174681000Y-126181000D02*
X174681000Y-121640000D01*
X174641000Y-118760000D02*
X174641000Y-114205000D01*
X174641000Y-126195000D02*
X174641000Y-121640000D01*
X174601000Y-118760000D02*
X174601000Y-114192000D01*
X174601000Y-126208000D02*
X174601000Y-121640000D01*
X174561000Y-118760000D02*
X174561000Y-114179000D01*
X174561000Y-126221000D02*
X174561000Y-121640000D01*
X174521000Y-118760000D02*
X174521000Y-114166000D01*
X174521000Y-126234000D02*
X174521000Y-121640000D01*
X174481000Y-118760000D02*
X174481000Y-114153000D01*
X174481000Y-126247000D02*
X174481000Y-121640000D01*
X174441000Y-118760000D02*
X174441000Y-114141000D01*
X174441000Y-126259000D02*
X174441000Y-121640000D01*
X174401000Y-118760000D02*
X174401000Y-114129000D01*
X174401000Y-126271000D02*
X174401000Y-121640000D01*
X174361000Y-118760000D02*
X174361000Y-114117000D01*
X174361000Y-126283000D02*
X174361000Y-121640000D01*
X174321000Y-118760000D02*
X174321000Y-114106000D01*
X174321000Y-126294000D02*
X174321000Y-121640000D01*
X174281000Y-118760000D02*
X174281000Y-114095000D01*
X174281000Y-126305000D02*
X174281000Y-121640000D01*
X174241000Y-118760000D02*
X174241000Y-114084000D01*
X174241000Y-126316000D02*
X174241000Y-121640000D01*
X174201000Y-118760000D02*
X174201000Y-114074000D01*
X174201000Y-126326000D02*
X174201000Y-121640000D01*
X174161000Y-118760000D02*
X174161000Y-114063000D01*
X174161000Y-126337000D02*
X174161000Y-121640000D01*
X174121000Y-118760000D02*
X174121000Y-114054000D01*
X174121000Y-126346000D02*
X174121000Y-121640000D01*
X174081000Y-118760000D02*
X174081000Y-114044000D01*
X174081000Y-126356000D02*
X174081000Y-121640000D01*
X174041000Y-118760000D02*
X174041000Y-114034000D01*
X174041000Y-126366000D02*
X174041000Y-121640000D01*
X174001000Y-118760000D02*
X174001000Y-114025000D01*
X174001000Y-126375000D02*
X174001000Y-121640000D01*
X173961000Y-118760000D02*
X173961000Y-114016000D01*
X173961000Y-126384000D02*
X173961000Y-121640000D01*
X173921000Y-118760000D02*
X173921000Y-114008000D01*
X173921000Y-126392000D02*
X173921000Y-121640000D01*
X173881000Y-118760000D02*
X173881000Y-113999000D01*
X173881000Y-126401000D02*
X173881000Y-121640000D01*
X173841000Y-118760000D02*
X173841000Y-113991000D01*
X173841000Y-126409000D02*
X173841000Y-121640000D01*
X173801000Y-118760000D02*
X173801000Y-113984000D01*
X173801000Y-126416000D02*
X173801000Y-121640000D01*
X173761000Y-118760000D02*
X173761000Y-113976000D01*
X173761000Y-126424000D02*
X173761000Y-121640000D01*
X173721000Y-118760000D02*
X173721000Y-113969000D01*
X173721000Y-126431000D02*
X173721000Y-121640000D01*
X173681000Y-118760000D02*
X173681000Y-113962000D01*
X173681000Y-126438000D02*
X173681000Y-121640000D01*
X173641000Y-126445000D02*
X173641000Y-113955000D01*
X173601000Y-126452000D02*
X173601000Y-113948000D01*
X173561000Y-126458000D02*
X173561000Y-113942000D01*
X173521000Y-126464000D02*
X173521000Y-113936000D01*
X173481000Y-126469000D02*
X173481000Y-113931000D01*
X173441000Y-126475000D02*
X173441000Y-113925000D01*
X173401000Y-126480000D02*
X173401000Y-113920000D01*
X173361000Y-126485000D02*
X173361000Y-113915000D01*
X173321000Y-126490000D02*
X173321000Y-113910000D01*
X173280000Y-126494000D02*
X173280000Y-113906000D01*
X173240000Y-126498000D02*
X173240000Y-113902000D01*
X173200000Y-126502000D02*
X173200000Y-113898000D01*
X173160000Y-126506000D02*
X173160000Y-113894000D01*
X173120000Y-126509000D02*
X173120000Y-113891000D01*
X173080000Y-126512000D02*
X173080000Y-113888000D01*
X173040000Y-126515000D02*
X173040000Y-113885000D01*
X173000000Y-126518000D02*
X173000000Y-113882000D01*
X172960000Y-126520000D02*
X172960000Y-113880000D01*
X172920000Y-126522000D02*
X172920000Y-113878000D01*
X172880000Y-126524000D02*
X172880000Y-113876000D01*
X172840000Y-126526000D02*
X172840000Y-113874000D01*
X172800000Y-126527000D02*
X172800000Y-113873000D01*
X172760000Y-126528000D02*
X172760000Y-113872000D01*
X172720000Y-126529000D02*
X172720000Y-113871000D01*
X172680000Y-126530000D02*
X172680000Y-113870000D01*
X172640000Y-126530000D02*
X172640000Y-113870000D01*
X172600000Y-126530000D02*
X172600000Y-113870000D01*
X178970000Y-120200000D02*
G75*
G03*
X178970000Y-120200000I-6370000J0D01*
G01*
%TO.C,J1*%
X147960000Y-134650000D02*
X140490000Y-134650000D01*
X140490000Y-134650000D02*
X140490000Y-119190000D01*
X140490000Y-119190000D02*
X147960000Y-119190000D01*
X147960000Y-119190000D02*
X147960000Y-134650000D01*
X141350000Y-132750000D02*
X141350000Y-133500000D01*
X141350000Y-133500000D02*
X145650000Y-133500000D01*
X145650000Y-133500000D02*
X145650000Y-132750000D01*
X145650000Y-132750000D02*
X146000000Y-132750000D01*
X146000000Y-132750000D02*
X146000000Y-133250000D01*
X146000000Y-133250000D02*
X147000000Y-133500000D01*
X147000000Y-133500000D02*
X147000000Y-130500000D01*
X147000000Y-130500000D02*
X146000000Y-130750000D01*
X146000000Y-130750000D02*
X146000000Y-131250000D01*
X146000000Y-131250000D02*
X145650000Y-131250000D01*
X145650000Y-131250000D02*
X145650000Y-130500000D01*
X145650000Y-130500000D02*
X141350000Y-130500000D01*
X141350000Y-130500000D02*
X141350000Y-131250000D01*
X141350000Y-127670000D02*
X141350000Y-128420000D01*
X141350000Y-128420000D02*
X145650000Y-128420000D01*
X145650000Y-128420000D02*
X145650000Y-127670000D01*
X145650000Y-127670000D02*
X146000000Y-127670000D01*
X146000000Y-127670000D02*
X146000000Y-128170000D01*
X146000000Y-128170000D02*
X147000000Y-128420000D01*
X147000000Y-128420000D02*
X147000000Y-125420000D01*
X147000000Y-125420000D02*
X146000000Y-125670000D01*
X146000000Y-125670000D02*
X146000000Y-126170000D01*
X146000000Y-126170000D02*
X145650000Y-126170000D01*
X145650000Y-126170000D02*
X145650000Y-125420000D01*
X145650000Y-125420000D02*
X141350000Y-125420000D01*
X141350000Y-125420000D02*
X141350000Y-126170000D01*
X141350000Y-122590000D02*
X141350000Y-123340000D01*
X141350000Y-123340000D02*
X145650000Y-123340000D01*
X145650000Y-123340000D02*
X145650000Y-122590000D01*
X145650000Y-122590000D02*
X146000000Y-122590000D01*
X146000000Y-122590000D02*
X146000000Y-123090000D01*
X146000000Y-123090000D02*
X147000000Y-123340000D01*
X147000000Y-123340000D02*
X147000000Y-120340000D01*
X147000000Y-120340000D02*
X146000000Y-120590000D01*
X146000000Y-120590000D02*
X146000000Y-121090000D01*
X146000000Y-121090000D02*
X145650000Y-121090000D01*
X145650000Y-121090000D02*
X145650000Y-120340000D01*
X145650000Y-120340000D02*
X141350000Y-120340000D01*
X141350000Y-120340000D02*
X141350000Y-121090000D01*
X147100000Y-135040000D02*
X148350000Y-135040000D01*
X148350000Y-135040000D02*
X148350000Y-133040000D01*
X141350155Y-131250353D02*
G75*
G02*
X141350000Y-132750000I-1700155J-749647D01*
G01*
X141350155Y-126170353D02*
G75*
G02*
X141350000Y-127670000I-1700155J-749647D01*
G01*
X141350155Y-121090353D02*
G75*
G02*
X141350000Y-122590000I-1700155J-749647D01*
G01*
%TO.C,C7*%
X178970000Y-133700000D02*
G75*
G03*
X178970000Y-133700000I-6370000J0D01*
G01*
X172600000Y-140030000D02*
X172600000Y-127370000D01*
X172640000Y-140030000D02*
X172640000Y-127370000D01*
X172680000Y-140030000D02*
X172680000Y-127370000D01*
X172720000Y-140029000D02*
X172720000Y-127371000D01*
X172760000Y-140028000D02*
X172760000Y-127372000D01*
X172800000Y-140027000D02*
X172800000Y-127373000D01*
X172840000Y-140026000D02*
X172840000Y-127374000D01*
X172880000Y-140024000D02*
X172880000Y-127376000D01*
X172920000Y-140022000D02*
X172920000Y-127378000D01*
X172960000Y-140020000D02*
X172960000Y-127380000D01*
X173000000Y-140018000D02*
X173000000Y-127382000D01*
X173040000Y-140015000D02*
X173040000Y-127385000D01*
X173080000Y-140012000D02*
X173080000Y-127388000D01*
X173120000Y-140009000D02*
X173120000Y-127391000D01*
X173160000Y-140006000D02*
X173160000Y-127394000D01*
X173200000Y-140002000D02*
X173200000Y-127398000D01*
X173240000Y-139998000D02*
X173240000Y-127402000D01*
X173280000Y-139994000D02*
X173280000Y-127406000D01*
X173321000Y-139990000D02*
X173321000Y-127410000D01*
X173361000Y-139985000D02*
X173361000Y-127415000D01*
X173401000Y-139980000D02*
X173401000Y-127420000D01*
X173441000Y-139975000D02*
X173441000Y-127425000D01*
X173481000Y-139969000D02*
X173481000Y-127431000D01*
X173521000Y-139964000D02*
X173521000Y-127436000D01*
X173561000Y-139958000D02*
X173561000Y-127442000D01*
X173601000Y-139952000D02*
X173601000Y-127448000D01*
X173641000Y-139945000D02*
X173641000Y-127455000D01*
X173681000Y-139938000D02*
X173681000Y-135140000D01*
X173681000Y-132260000D02*
X173681000Y-127462000D01*
X173721000Y-139931000D02*
X173721000Y-135140000D01*
X173721000Y-132260000D02*
X173721000Y-127469000D01*
X173761000Y-139924000D02*
X173761000Y-135140000D01*
X173761000Y-132260000D02*
X173761000Y-127476000D01*
X173801000Y-139916000D02*
X173801000Y-135140000D01*
X173801000Y-132260000D02*
X173801000Y-127484000D01*
X173841000Y-139909000D02*
X173841000Y-135140000D01*
X173841000Y-132260000D02*
X173841000Y-127491000D01*
X173881000Y-139901000D02*
X173881000Y-135140000D01*
X173881000Y-132260000D02*
X173881000Y-127499000D01*
X173921000Y-139892000D02*
X173921000Y-135140000D01*
X173921000Y-132260000D02*
X173921000Y-127508000D01*
X173961000Y-139884000D02*
X173961000Y-135140000D01*
X173961000Y-132260000D02*
X173961000Y-127516000D01*
X174001000Y-139875000D02*
X174001000Y-135140000D01*
X174001000Y-132260000D02*
X174001000Y-127525000D01*
X174041000Y-139866000D02*
X174041000Y-135140000D01*
X174041000Y-132260000D02*
X174041000Y-127534000D01*
X174081000Y-139856000D02*
X174081000Y-135140000D01*
X174081000Y-132260000D02*
X174081000Y-127544000D01*
X174121000Y-139846000D02*
X174121000Y-135140000D01*
X174121000Y-132260000D02*
X174121000Y-127554000D01*
X174161000Y-139837000D02*
X174161000Y-135140000D01*
X174161000Y-132260000D02*
X174161000Y-127563000D01*
X174201000Y-139826000D02*
X174201000Y-135140000D01*
X174201000Y-132260000D02*
X174201000Y-127574000D01*
X174241000Y-139816000D02*
X174241000Y-135140000D01*
X174241000Y-132260000D02*
X174241000Y-127584000D01*
X174281000Y-139805000D02*
X174281000Y-135140000D01*
X174281000Y-132260000D02*
X174281000Y-127595000D01*
X174321000Y-139794000D02*
X174321000Y-135140000D01*
X174321000Y-132260000D02*
X174321000Y-127606000D01*
X174361000Y-139783000D02*
X174361000Y-135140000D01*
X174361000Y-132260000D02*
X174361000Y-127617000D01*
X174401000Y-139771000D02*
X174401000Y-135140000D01*
X174401000Y-132260000D02*
X174401000Y-127629000D01*
X174441000Y-139759000D02*
X174441000Y-135140000D01*
X174441000Y-132260000D02*
X174441000Y-127641000D01*
X174481000Y-139747000D02*
X174481000Y-135140000D01*
X174481000Y-132260000D02*
X174481000Y-127653000D01*
X174521000Y-139734000D02*
X174521000Y-135140000D01*
X174521000Y-132260000D02*
X174521000Y-127666000D01*
X174561000Y-139721000D02*
X174561000Y-135140000D01*
X174561000Y-132260000D02*
X174561000Y-127679000D01*
X174601000Y-139708000D02*
X174601000Y-135140000D01*
X174601000Y-132260000D02*
X174601000Y-127692000D01*
X174641000Y-139695000D02*
X174641000Y-135140000D01*
X174641000Y-132260000D02*
X174641000Y-127705000D01*
X174681000Y-139681000D02*
X174681000Y-135140000D01*
X174681000Y-132260000D02*
X174681000Y-127719000D01*
X174721000Y-139667000D02*
X174721000Y-135140000D01*
X174721000Y-132260000D02*
X174721000Y-127733000D01*
X174761000Y-139653000D02*
X174761000Y-135140000D01*
X174761000Y-132260000D02*
X174761000Y-127747000D01*
X174801000Y-139639000D02*
X174801000Y-135140000D01*
X174801000Y-132260000D02*
X174801000Y-127761000D01*
X174841000Y-139624000D02*
X174841000Y-135140000D01*
X174841000Y-132260000D02*
X174841000Y-127776000D01*
X174881000Y-139608000D02*
X174881000Y-135140000D01*
X174881000Y-132260000D02*
X174881000Y-127792000D01*
X174921000Y-139593000D02*
X174921000Y-135140000D01*
X174921000Y-132260000D02*
X174921000Y-127807000D01*
X174961000Y-139577000D02*
X174961000Y-135140000D01*
X174961000Y-132260000D02*
X174961000Y-127823000D01*
X175001000Y-139561000D02*
X175001000Y-135140000D01*
X175001000Y-132260000D02*
X175001000Y-127839000D01*
X175041000Y-139545000D02*
X175041000Y-135140000D01*
X175041000Y-132260000D02*
X175041000Y-127855000D01*
X175081000Y-139528000D02*
X175081000Y-135140000D01*
X175081000Y-132260000D02*
X175081000Y-127872000D01*
X175121000Y-139511000D02*
X175121000Y-135140000D01*
X175121000Y-132260000D02*
X175121000Y-127889000D01*
X175161000Y-139493000D02*
X175161000Y-135140000D01*
X175161000Y-132260000D02*
X175161000Y-127907000D01*
X175201000Y-139476000D02*
X175201000Y-135140000D01*
X175201000Y-132260000D02*
X175201000Y-127924000D01*
X175241000Y-139458000D02*
X175241000Y-135140000D01*
X175241000Y-132260000D02*
X175241000Y-127942000D01*
X175281000Y-139439000D02*
X175281000Y-135140000D01*
X175281000Y-132260000D02*
X175281000Y-127961000D01*
X175321000Y-139421000D02*
X175321000Y-135140000D01*
X175321000Y-132260000D02*
X175321000Y-127979000D01*
X175361000Y-139402000D02*
X175361000Y-135140000D01*
X175361000Y-132260000D02*
X175361000Y-127998000D01*
X175401000Y-139382000D02*
X175401000Y-135140000D01*
X175401000Y-132260000D02*
X175401000Y-128018000D01*
X175441000Y-139362000D02*
X175441000Y-135140000D01*
X175441000Y-132260000D02*
X175441000Y-128038000D01*
X175481000Y-139342000D02*
X175481000Y-135140000D01*
X175481000Y-132260000D02*
X175481000Y-128058000D01*
X175521000Y-139322000D02*
X175521000Y-135140000D01*
X175521000Y-132260000D02*
X175521000Y-128078000D01*
X175561000Y-139301000D02*
X175561000Y-135140000D01*
X175561000Y-132260000D02*
X175561000Y-128099000D01*
X175601000Y-139280000D02*
X175601000Y-135140000D01*
X175601000Y-132260000D02*
X175601000Y-128120000D01*
X175641000Y-139258000D02*
X175641000Y-135140000D01*
X175641000Y-132260000D02*
X175641000Y-128142000D01*
X175681000Y-139236000D02*
X175681000Y-135140000D01*
X175681000Y-132260000D02*
X175681000Y-128164000D01*
X175721000Y-139214000D02*
X175721000Y-135140000D01*
X175721000Y-132260000D02*
X175721000Y-128186000D01*
X175761000Y-139191000D02*
X175761000Y-135140000D01*
X175761000Y-132260000D02*
X175761000Y-128209000D01*
X175801000Y-139168000D02*
X175801000Y-135140000D01*
X175801000Y-132260000D02*
X175801000Y-128232000D01*
X175841000Y-139145000D02*
X175841000Y-135140000D01*
X175841000Y-132260000D02*
X175841000Y-128255000D01*
X175881000Y-139121000D02*
X175881000Y-135140000D01*
X175881000Y-132260000D02*
X175881000Y-128279000D01*
X175921000Y-139097000D02*
X175921000Y-135140000D01*
X175921000Y-132260000D02*
X175921000Y-128303000D01*
X175961000Y-139072000D02*
X175961000Y-135140000D01*
X175961000Y-132260000D02*
X175961000Y-128328000D01*
X176001000Y-139047000D02*
X176001000Y-135140000D01*
X176001000Y-132260000D02*
X176001000Y-128353000D01*
X176041000Y-139022000D02*
X176041000Y-135140000D01*
X176041000Y-132260000D02*
X176041000Y-128378000D01*
X176081000Y-138996000D02*
X176081000Y-135140000D01*
X176081000Y-132260000D02*
X176081000Y-128404000D01*
X176121000Y-138970000D02*
X176121000Y-135140000D01*
X176121000Y-132260000D02*
X176121000Y-128430000D01*
X176161000Y-138943000D02*
X176161000Y-135140000D01*
X176161000Y-132260000D02*
X176161000Y-128457000D01*
X176201000Y-138916000D02*
X176201000Y-135140000D01*
X176201000Y-132260000D02*
X176201000Y-128484000D01*
X176241000Y-138888000D02*
X176241000Y-135140000D01*
X176241000Y-132260000D02*
X176241000Y-128512000D01*
X176281000Y-138860000D02*
X176281000Y-135140000D01*
X176281000Y-132260000D02*
X176281000Y-128540000D01*
X176321000Y-138831000D02*
X176321000Y-135140000D01*
X176321000Y-132260000D02*
X176321000Y-128569000D01*
X176361000Y-138802000D02*
X176361000Y-135140000D01*
X176361000Y-132260000D02*
X176361000Y-128598000D01*
X176401000Y-138773000D02*
X176401000Y-135140000D01*
X176401000Y-132260000D02*
X176401000Y-128627000D01*
X176441000Y-138743000D02*
X176441000Y-135140000D01*
X176441000Y-132260000D02*
X176441000Y-128657000D01*
X176481000Y-138712000D02*
X176481000Y-135140000D01*
X176481000Y-132260000D02*
X176481000Y-128688000D01*
X176521000Y-138682000D02*
X176521000Y-135140000D01*
X176521000Y-132260000D02*
X176521000Y-128718000D01*
X176561000Y-138650000D02*
X176561000Y-128750000D01*
X176601000Y-138618000D02*
X176601000Y-128782000D01*
X176641000Y-138585000D02*
X176641000Y-128815000D01*
X176681000Y-138552000D02*
X176681000Y-128848000D01*
X176721000Y-138519000D02*
X176721000Y-128881000D01*
X176761000Y-138485000D02*
X176761000Y-128915000D01*
X176801000Y-138450000D02*
X176801000Y-128950000D01*
X176841000Y-138414000D02*
X176841000Y-128986000D01*
X176881000Y-138378000D02*
X176881000Y-129022000D01*
X176921000Y-138342000D02*
X176921000Y-129058000D01*
X176961000Y-138305000D02*
X176961000Y-129095000D01*
X177001000Y-138267000D02*
X177001000Y-129133000D01*
X177041000Y-138228000D02*
X177041000Y-129172000D01*
X177081000Y-138189000D02*
X177081000Y-129211000D01*
X177121000Y-138149000D02*
X177121000Y-129251000D01*
X177161000Y-138108000D02*
X177161000Y-129292000D01*
X177201000Y-138067000D02*
X177201000Y-129333000D01*
X177241000Y-138025000D02*
X177241000Y-129375000D01*
X177281000Y-137982000D02*
X177281000Y-129418000D01*
X177321000Y-137938000D02*
X177321000Y-129462000D01*
X177361000Y-137894000D02*
X177361000Y-129506000D01*
X177401000Y-137848000D02*
X177401000Y-129552000D01*
X177441000Y-137802000D02*
X177441000Y-129598000D01*
X177481000Y-137755000D02*
X177481000Y-129645000D01*
X177521000Y-137707000D02*
X177521000Y-129693000D01*
X177561000Y-137657000D02*
X177561000Y-129743000D01*
X177601000Y-137607000D02*
X177601000Y-129793000D01*
X177641000Y-137556000D02*
X177641000Y-129844000D01*
X177681000Y-137504000D02*
X177681000Y-129896000D01*
X177721000Y-137450000D02*
X177721000Y-129950000D01*
X177761000Y-137396000D02*
X177761000Y-130004000D01*
X177801000Y-137340000D02*
X177801000Y-130060000D01*
X177841000Y-137283000D02*
X177841000Y-130117000D01*
X177881000Y-137224000D02*
X177881000Y-130176000D01*
X177921000Y-137164000D02*
X177921000Y-130236000D01*
X177961000Y-137102000D02*
X177961000Y-130298000D01*
X178001000Y-137039000D02*
X178001000Y-130361000D01*
X178041000Y-136975000D02*
X178041000Y-130425000D01*
X178081000Y-136908000D02*
X178081000Y-130492000D01*
X178121000Y-136840000D02*
X178121000Y-130560000D01*
X178161000Y-136769000D02*
X178161000Y-130631000D01*
X178201000Y-136696000D02*
X178201000Y-130704000D01*
X178241000Y-136621000D02*
X178241000Y-130779000D01*
X178281000Y-136544000D02*
X178281000Y-130856000D01*
X178321000Y-136464000D02*
X178321000Y-130936000D01*
X178361000Y-136381000D02*
X178361000Y-131019000D01*
X178401000Y-136294000D02*
X178401000Y-131106000D01*
X178441000Y-136204000D02*
X178441000Y-131196000D01*
X178481000Y-136110000D02*
X178481000Y-131290000D01*
X178521000Y-136012000D02*
X178521000Y-131388000D01*
X178561000Y-135909000D02*
X178561000Y-131491000D01*
X178601000Y-135800000D02*
X178601000Y-131600000D01*
X178641000Y-135684000D02*
X178641000Y-131716000D01*
X178681000Y-135561000D02*
X178681000Y-131839000D01*
X178721000Y-135428000D02*
X178721000Y-131972000D01*
X178761000Y-135283000D02*
X178761000Y-132117000D01*
X178801000Y-135122000D02*
X178801000Y-132278000D01*
X178841000Y-134941000D02*
X178841000Y-132459000D01*
X178881000Y-134728000D02*
X178881000Y-132672000D01*
X178921000Y-134457000D02*
X178921000Y-132943000D01*
X178961000Y-134017000D02*
X178961000Y-133383000D01*
X165782918Y-137275000D02*
X167032918Y-137275000D01*
X166407918Y-137900000D02*
X166407918Y-136650000D01*
%TO.C,C3*%
D11*
X172766666Y-128057142D02*
X172814285Y-128104761D01*
X172957142Y-128152380D01*
X173052380Y-128152380D01*
X173195238Y-128104761D01*
X173290476Y-128009523D01*
X173338095Y-127914285D01*
X173385714Y-127723809D01*
X173385714Y-127580952D01*
X173338095Y-127390476D01*
X173290476Y-127295238D01*
X173195238Y-127200000D01*
X173052380Y-127152380D01*
X172957142Y-127152380D01*
X172814285Y-127200000D01*
X172766666Y-127247619D01*
X172433333Y-127152380D02*
X171814285Y-127152380D01*
X172147619Y-127533333D01*
X172004761Y-127533333D01*
X171909523Y-127580952D01*
X171861904Y-127628571D01*
X171814285Y-127723809D01*
X171814285Y-127961904D01*
X171861904Y-128057142D01*
X171909523Y-128104761D01*
X172004761Y-128152380D01*
X172290476Y-128152380D01*
X172385714Y-128104761D01*
X172433333Y-128057142D01*
%TO.C,J1*%
X148502380Y-126586666D02*
X149216666Y-126586666D01*
X149359523Y-126539047D01*
X149454761Y-126443809D01*
X149502380Y-126300952D01*
X149502380Y-126205714D01*
X149502380Y-127586666D02*
X149502380Y-127015238D01*
X149502380Y-127300952D02*
X148502380Y-127300952D01*
X148645238Y-127205714D01*
X148740476Y-127110476D01*
X148788095Y-127015238D01*
%TO.C,C7*%
X172766666Y-141557142D02*
X172814285Y-141604761D01*
X172957142Y-141652380D01*
X173052380Y-141652380D01*
X173195238Y-141604761D01*
X173290476Y-141509523D01*
X173338095Y-141414285D01*
X173385714Y-141223809D01*
X173385714Y-141080952D01*
X173338095Y-140890476D01*
X173290476Y-140795238D01*
X173195238Y-140700000D01*
X173052380Y-140652380D01*
X172957142Y-140652380D01*
X172814285Y-140700000D01*
X172766666Y-140747619D01*
X172433333Y-140652380D02*
X171766666Y-140652380D01*
X172195238Y-141652380D01*
%TD*%
M02*
