%TF.GenerationSoftware,KiCad,Pcbnew,5.1.9+dfsg1-1*%
%TF.CreationDate,2021-06-24T19:32:38+02:00*%
%TF.ProjectId,pcb,7063622e-6b69-4636-9164-5f7063625858,rev?*%
%TF.SameCoordinates,Original*%
%TF.FileFunction,Copper,L2,Bot*%
%TF.FilePolarity,Positive*%
%FSLAX46Y46*%
G04 Gerber Fmt 4.6, Leading zero omitted, Abs format (unit mm)*
G04 Created by KiCad (PCBNEW 5.1.9+dfsg1-1) date 2021-06-24 19:32:38*
%MOMM*%
%LPD*%
G01*
G04 APERTURE LIST*
%TA.AperFunction,SMDPad,CuDef*%
%ADD10R,1.800000X1.600000*%
%TD*%
%TA.AperFunction,ComponentPad*%
%ADD11R,2.400000X2.400000*%
%TD*%
%TA.AperFunction,ComponentPad*%
%ADD12C,2.400000*%
%TD*%
%TA.AperFunction,ComponentPad*%
%ADD13R,1.700000X1.700000*%
%TD*%
%TA.AperFunction,ComponentPad*%
%ADD14O,1.700000X1.700000*%
%TD*%
%TA.AperFunction,ViaPad*%
%ADD15C,0.800000*%
%TD*%
%TA.AperFunction,Conductor*%
%ADD16C,0.250000*%
%TD*%
%TA.AperFunction,Conductor*%
%ADD17C,0.150000*%
%TD*%
%TA.AperFunction,Conductor*%
%ADD18C,0.100000*%
%TD*%
G04 APERTURE END LIST*
D10*
%TO.P,U1,9*%
%TO.N,GND*%
X159200000Y-130600000D03*
%TD*%
D11*
%TO.P,C3,1*%
%TO.N,VCC*%
X170100000Y-120200000D03*
D12*
%TO.P,C3,2*%
%TO.N,GND*%
X175100000Y-120200000D03*
%TD*%
D13*
%TO.P,P1,1*%
%TO.N,GND*%
X165090000Y-124200000D03*
D14*
%TO.P,P1,2*%
%TO.N,/RX*%
X165090000Y-126740000D03*
%TO.P,P1,3*%
%TO.N,/TX*%
X165090000Y-129280000D03*
%TO.P,P1,4*%
%TO.N,+2V5*%
X165090000Y-131820000D03*
%TD*%
%TO.P,P2,4*%
%TO.N,/RST*%
X180330000Y-124200000D03*
%TO.P,P2,3*%
%TO.N,+2V5*%
X180330000Y-126740000D03*
%TO.P,P2,2*%
%TO.N,/CTS*%
X180330000Y-129280000D03*
D13*
%TO.P,P2,1*%
%TO.N,+2V5*%
X180330000Y-131820000D03*
%TD*%
%TO.P,J1,1*%
%TO.N,GND*%
%TA.AperFunction,ComponentPad*%
G36*
G01*
X146050000Y-132900000D02*
X140950000Y-132900000D01*
G75*
G02*
X140500000Y-132450000I0J450000D01*
G01*
X140500000Y-131550000D01*
G75*
G02*
X140950000Y-131100000I450000J0D01*
G01*
X146050000Y-131100000D01*
G75*
G02*
X146500000Y-131550000I0J-450000D01*
G01*
X146500000Y-132450000D01*
G75*
G02*
X146050000Y-132900000I-450000J0D01*
G01*
G37*
%TD.AperFunction*%
%TO.P,J1,2*%
%TO.N,/I2*%
%TA.AperFunction,ComponentPad*%
G36*
G01*
X146050000Y-127820000D02*
X140950000Y-127820000D01*
G75*
G02*
X140500000Y-127370000I0J450000D01*
G01*
X140500000Y-126470000D01*
G75*
G02*
X140950000Y-126020000I450000J0D01*
G01*
X146050000Y-126020000D01*
G75*
G02*
X146500000Y-126470000I0J-450000D01*
G01*
X146500000Y-127370000D01*
G75*
G02*
X146050000Y-127820000I-450000J0D01*
G01*
G37*
%TD.AperFunction*%
%TO.P,J1,3*%
%TO.N,/A*%
%TA.AperFunction,ComponentPad*%
G36*
G01*
X146050000Y-122740000D02*
X140950000Y-122740000D01*
G75*
G02*
X140500000Y-122290000I0J450000D01*
G01*
X140500000Y-121390000D01*
G75*
G02*
X140950000Y-120940000I450000J0D01*
G01*
X146050000Y-120940000D01*
G75*
G02*
X146500000Y-121390000I0J-450000D01*
G01*
X146500000Y-122290000D01*
G75*
G02*
X146050000Y-122740000I-450000J0D01*
G01*
G37*
%TD.AperFunction*%
%TD*%
%TO.P,J2,1*%
%TO.N,+2V5*%
X166100000Y-136600000D03*
D14*
%TO.P,J2,2*%
%TO.N,GND*%
X168640000Y-136600000D03*
%TO.P,J2,3*%
%TO.N,/RX*%
X171180000Y-136600000D03*
%TO.P,J2,4*%
%TO.N,/TX*%
X173720000Y-136600000D03*
%TO.P,J2,5*%
%TO.N,/RST*%
X176260000Y-136600000D03*
%TO.P,J2,6*%
%TO.N,/CTS*%
X178800000Y-136600000D03*
%TD*%
D11*
%TO.P,C7,1*%
%TO.N,VCC*%
X170100000Y-133700000D03*
D12*
%TO.P,C7,2*%
%TO.N,GND*%
X175100000Y-133700000D03*
%TD*%
D15*
%TO.N,GND*%
X160800000Y-130600000D03*
%TO.N,VCC*%
X153800000Y-127800000D03*
%TO.N,/TX*%
X184000000Y-138100000D03*
%TD*%
D16*
%TO.N,GND*%
X175100000Y-120200000D02*
X175100000Y-123400000D01*
%TO.N,+2V5*%
X180330000Y-126740000D02*
X179154999Y-127915001D01*
X176725001Y-135424999D02*
X180330000Y-131820000D01*
X167275001Y-135424999D02*
X176725001Y-135424999D01*
X166100000Y-136600000D02*
X167275001Y-135424999D01*
X179154999Y-129844001D02*
X179154999Y-127915001D01*
X180330000Y-131019002D02*
X179154999Y-129844001D01*
X180330000Y-131820000D02*
X180330000Y-131019002D01*
%TO.N,VCC*%
X170100000Y-120300000D02*
X170000000Y-120200000D01*
X170034999Y-127915001D02*
X170100000Y-127850000D01*
X164525999Y-127915001D02*
X170034999Y-127915001D01*
X153800000Y-127800000D02*
X164410998Y-127800000D01*
X170100000Y-127850000D02*
X170100000Y-120300000D01*
X164410998Y-127800000D02*
X164525999Y-127915001D01*
X170100000Y-133700000D02*
X170100000Y-127850000D01*
%TO.N,/TX*%
X173720000Y-136600000D02*
X175220000Y-138100000D01*
X175220000Y-138100000D02*
X184000000Y-138100000D01*
%TD*%
D17*
%TO.N,GND*%
X185500000Y-124118779D02*
X185500001Y-137896446D01*
X184646448Y-138750000D01*
X184192164Y-138750000D01*
X184196890Y-138749060D01*
X184319732Y-138698177D01*
X184430287Y-138624307D01*
X184524307Y-138530287D01*
X184598177Y-138419732D01*
X184649060Y-138296890D01*
X184675000Y-138166482D01*
X184675000Y-138033518D01*
X184649060Y-137903110D01*
X184598177Y-137780268D01*
X184524307Y-137669713D01*
X184430287Y-137575693D01*
X184319732Y-137501823D01*
X184196890Y-137450940D01*
X184066482Y-137425000D01*
X183933518Y-137425000D01*
X183803110Y-137450940D01*
X183680268Y-137501823D01*
X183569713Y-137575693D01*
X183475693Y-137669713D01*
X183455456Y-137700000D01*
X179036487Y-137700000D01*
X179128150Y-137681767D01*
X179332887Y-137596962D01*
X179517145Y-137473844D01*
X179673844Y-137317145D01*
X179796962Y-137132887D01*
X179881767Y-136928150D01*
X179925000Y-136710803D01*
X179925000Y-136489197D01*
X179881767Y-136271850D01*
X179796962Y-136067113D01*
X179673844Y-135882855D01*
X179517145Y-135726156D01*
X179332887Y-135603038D01*
X179128150Y-135518233D01*
X178910803Y-135475000D01*
X178689197Y-135475000D01*
X178471850Y-135518233D01*
X178267113Y-135603038D01*
X178082855Y-135726156D01*
X177926156Y-135882855D01*
X177803038Y-136067113D01*
X177718233Y-136271850D01*
X177675000Y-136489197D01*
X177675000Y-136710803D01*
X177718233Y-136928150D01*
X177803038Y-137132887D01*
X177926156Y-137317145D01*
X178082855Y-137473844D01*
X178267113Y-137596962D01*
X178471850Y-137681767D01*
X178563513Y-137700000D01*
X176496487Y-137700000D01*
X176588150Y-137681767D01*
X176792887Y-137596962D01*
X176977145Y-137473844D01*
X177133844Y-137317145D01*
X177256962Y-137132887D01*
X177341767Y-136928150D01*
X177385000Y-136710803D01*
X177385000Y-136489197D01*
X177341767Y-136271850D01*
X177256962Y-136067113D01*
X177133844Y-135882855D01*
X176982292Y-135731303D01*
X177009212Y-135709210D01*
X177021738Y-135693947D01*
X179769355Y-132946330D01*
X181180000Y-132946330D01*
X181233909Y-132941020D01*
X181285747Y-132925296D01*
X181333521Y-132899760D01*
X181375395Y-132865395D01*
X181409760Y-132823521D01*
X181435296Y-132775747D01*
X181451020Y-132723909D01*
X181456330Y-132670000D01*
X181456330Y-130970000D01*
X181451020Y-130916091D01*
X181435296Y-130864253D01*
X181409760Y-130816479D01*
X181375395Y-130774605D01*
X181333521Y-130740240D01*
X181285747Y-130714704D01*
X181233909Y-130698980D01*
X181180000Y-130693670D01*
X180570353Y-130693670D01*
X180281683Y-130405000D01*
X180440803Y-130405000D01*
X180658150Y-130361767D01*
X180862887Y-130276962D01*
X181047145Y-130153844D01*
X181203844Y-129997145D01*
X181326962Y-129812887D01*
X181411767Y-129608150D01*
X181455000Y-129390803D01*
X181455000Y-129169197D01*
X181411767Y-128951850D01*
X181326962Y-128747113D01*
X181203844Y-128562855D01*
X181047145Y-128406156D01*
X180862887Y-128283038D01*
X180658150Y-128198233D01*
X180440803Y-128155000D01*
X180219197Y-128155000D01*
X180001850Y-128198233D01*
X179797113Y-128283038D01*
X179612855Y-128406156D01*
X179554999Y-128464012D01*
X179554999Y-128080686D01*
X179868962Y-127766723D01*
X180001850Y-127821767D01*
X180219197Y-127865000D01*
X180440803Y-127865000D01*
X180658150Y-127821767D01*
X180862887Y-127736962D01*
X181047145Y-127613844D01*
X181203844Y-127457145D01*
X181326962Y-127272887D01*
X181411767Y-127068150D01*
X181455000Y-126850803D01*
X181455000Y-126629197D01*
X181411767Y-126411850D01*
X181326962Y-126207113D01*
X181203844Y-126022855D01*
X181047145Y-125866156D01*
X180862887Y-125743038D01*
X180658150Y-125658233D01*
X180440803Y-125615000D01*
X180219197Y-125615000D01*
X180001850Y-125658233D01*
X179797113Y-125743038D01*
X179612855Y-125866156D01*
X179456156Y-126022855D01*
X179333038Y-126207113D01*
X179248233Y-126411850D01*
X179205000Y-126629197D01*
X179205000Y-126850803D01*
X179248233Y-127068150D01*
X179303277Y-127201038D01*
X178886047Y-127618268D01*
X178870789Y-127630790D01*
X178858267Y-127646048D01*
X178858264Y-127646051D01*
X178820802Y-127691699D01*
X178783660Y-127761187D01*
X178760787Y-127836588D01*
X178753064Y-127915001D01*
X178755000Y-127934657D01*
X178754999Y-129824354D01*
X178753064Y-129844001D01*
X178754999Y-129863647D01*
X178760787Y-129922414D01*
X178783659Y-129997814D01*
X178820802Y-130067303D01*
X178870788Y-130128212D01*
X178886051Y-130140738D01*
X179442661Y-130697348D01*
X179426091Y-130698980D01*
X179374253Y-130714704D01*
X179326479Y-130740240D01*
X179284605Y-130774605D01*
X179250240Y-130816479D01*
X179224704Y-130864253D01*
X179208980Y-130916091D01*
X179203670Y-130970000D01*
X179203670Y-132380645D01*
X176559316Y-135024999D01*
X175748375Y-135024999D01*
X175895621Y-134950486D01*
X175950828Y-134913598D01*
X176081582Y-134716937D01*
X175100000Y-133735355D01*
X174118418Y-134716937D01*
X174249172Y-134913598D01*
X174446807Y-135024999D01*
X171545005Y-135024999D01*
X171555296Y-135005747D01*
X171571020Y-134953909D01*
X171576330Y-134900000D01*
X171576330Y-133666801D01*
X173618235Y-133666801D01*
X173640230Y-133956517D01*
X173718324Y-134236375D01*
X173849514Y-134495621D01*
X173886402Y-134550828D01*
X174083063Y-134681582D01*
X175064645Y-133700000D01*
X175135355Y-133700000D01*
X176116937Y-134681582D01*
X176313598Y-134550828D01*
X176456268Y-134297719D01*
X176546817Y-134021639D01*
X176581765Y-133733199D01*
X176559770Y-133443483D01*
X176481676Y-133163625D01*
X176350486Y-132904379D01*
X176313598Y-132849172D01*
X176116937Y-132718418D01*
X175135355Y-133700000D01*
X175064645Y-133700000D01*
X174083063Y-132718418D01*
X173886402Y-132849172D01*
X173743732Y-133102281D01*
X173653183Y-133378361D01*
X173618235Y-133666801D01*
X171576330Y-133666801D01*
X171576330Y-132683063D01*
X174118418Y-132683063D01*
X175100000Y-133664645D01*
X176081582Y-132683063D01*
X175950828Y-132486402D01*
X175697719Y-132343732D01*
X175421639Y-132253183D01*
X175133199Y-132218235D01*
X174843483Y-132240230D01*
X174563625Y-132318324D01*
X174304379Y-132449514D01*
X174249172Y-132486402D01*
X174118418Y-132683063D01*
X171576330Y-132683063D01*
X171576330Y-132500000D01*
X171571020Y-132446091D01*
X171555296Y-132394253D01*
X171529760Y-132346479D01*
X171495395Y-132304605D01*
X171453521Y-132270240D01*
X171405747Y-132244704D01*
X171353909Y-132228980D01*
X171300000Y-132223670D01*
X170500000Y-132223670D01*
X170500000Y-127869637D01*
X170501934Y-127850001D01*
X170500000Y-127830365D01*
X170500000Y-124089197D01*
X179205000Y-124089197D01*
X179205000Y-124310803D01*
X179248233Y-124528150D01*
X179333038Y-124732887D01*
X179456156Y-124917145D01*
X179612855Y-125073844D01*
X179797113Y-125196962D01*
X180001850Y-125281767D01*
X180219197Y-125325000D01*
X180440803Y-125325000D01*
X180658150Y-125281767D01*
X180862887Y-125196962D01*
X181047145Y-125073844D01*
X181203844Y-124917145D01*
X181326962Y-124732887D01*
X181411767Y-124528150D01*
X181455000Y-124310803D01*
X181455000Y-124089197D01*
X181411767Y-123871850D01*
X181326962Y-123667113D01*
X181203844Y-123482855D01*
X181047145Y-123326156D01*
X180862887Y-123203038D01*
X180658150Y-123118233D01*
X180440803Y-123075000D01*
X180219197Y-123075000D01*
X180001850Y-123118233D01*
X179797113Y-123203038D01*
X179612855Y-123326156D01*
X179456156Y-123482855D01*
X179333038Y-123667113D01*
X179248233Y-123871850D01*
X179205000Y-124089197D01*
X170500000Y-124089197D01*
X170500000Y-122575000D01*
X183605362Y-122575000D01*
X185500000Y-124118779D01*
%TA.AperFunction,Conductor*%
D18*
G36*
X185500000Y-124118779D02*
G01*
X185500001Y-137896446D01*
X184646448Y-138750000D01*
X184192164Y-138750000D01*
X184196890Y-138749060D01*
X184319732Y-138698177D01*
X184430287Y-138624307D01*
X184524307Y-138530287D01*
X184598177Y-138419732D01*
X184649060Y-138296890D01*
X184675000Y-138166482D01*
X184675000Y-138033518D01*
X184649060Y-137903110D01*
X184598177Y-137780268D01*
X184524307Y-137669713D01*
X184430287Y-137575693D01*
X184319732Y-137501823D01*
X184196890Y-137450940D01*
X184066482Y-137425000D01*
X183933518Y-137425000D01*
X183803110Y-137450940D01*
X183680268Y-137501823D01*
X183569713Y-137575693D01*
X183475693Y-137669713D01*
X183455456Y-137700000D01*
X179036487Y-137700000D01*
X179128150Y-137681767D01*
X179332887Y-137596962D01*
X179517145Y-137473844D01*
X179673844Y-137317145D01*
X179796962Y-137132887D01*
X179881767Y-136928150D01*
X179925000Y-136710803D01*
X179925000Y-136489197D01*
X179881767Y-136271850D01*
X179796962Y-136067113D01*
X179673844Y-135882855D01*
X179517145Y-135726156D01*
X179332887Y-135603038D01*
X179128150Y-135518233D01*
X178910803Y-135475000D01*
X178689197Y-135475000D01*
X178471850Y-135518233D01*
X178267113Y-135603038D01*
X178082855Y-135726156D01*
X177926156Y-135882855D01*
X177803038Y-136067113D01*
X177718233Y-136271850D01*
X177675000Y-136489197D01*
X177675000Y-136710803D01*
X177718233Y-136928150D01*
X177803038Y-137132887D01*
X177926156Y-137317145D01*
X178082855Y-137473844D01*
X178267113Y-137596962D01*
X178471850Y-137681767D01*
X178563513Y-137700000D01*
X176496487Y-137700000D01*
X176588150Y-137681767D01*
X176792887Y-137596962D01*
X176977145Y-137473844D01*
X177133844Y-137317145D01*
X177256962Y-137132887D01*
X177341767Y-136928150D01*
X177385000Y-136710803D01*
X177385000Y-136489197D01*
X177341767Y-136271850D01*
X177256962Y-136067113D01*
X177133844Y-135882855D01*
X176982292Y-135731303D01*
X177009212Y-135709210D01*
X177021738Y-135693947D01*
X179769355Y-132946330D01*
X181180000Y-132946330D01*
X181233909Y-132941020D01*
X181285747Y-132925296D01*
X181333521Y-132899760D01*
X181375395Y-132865395D01*
X181409760Y-132823521D01*
X181435296Y-132775747D01*
X181451020Y-132723909D01*
X181456330Y-132670000D01*
X181456330Y-130970000D01*
X181451020Y-130916091D01*
X181435296Y-130864253D01*
X181409760Y-130816479D01*
X181375395Y-130774605D01*
X181333521Y-130740240D01*
X181285747Y-130714704D01*
X181233909Y-130698980D01*
X181180000Y-130693670D01*
X180570353Y-130693670D01*
X180281683Y-130405000D01*
X180440803Y-130405000D01*
X180658150Y-130361767D01*
X180862887Y-130276962D01*
X181047145Y-130153844D01*
X181203844Y-129997145D01*
X181326962Y-129812887D01*
X181411767Y-129608150D01*
X181455000Y-129390803D01*
X181455000Y-129169197D01*
X181411767Y-128951850D01*
X181326962Y-128747113D01*
X181203844Y-128562855D01*
X181047145Y-128406156D01*
X180862887Y-128283038D01*
X180658150Y-128198233D01*
X180440803Y-128155000D01*
X180219197Y-128155000D01*
X180001850Y-128198233D01*
X179797113Y-128283038D01*
X179612855Y-128406156D01*
X179554999Y-128464012D01*
X179554999Y-128080686D01*
X179868962Y-127766723D01*
X180001850Y-127821767D01*
X180219197Y-127865000D01*
X180440803Y-127865000D01*
X180658150Y-127821767D01*
X180862887Y-127736962D01*
X181047145Y-127613844D01*
X181203844Y-127457145D01*
X181326962Y-127272887D01*
X181411767Y-127068150D01*
X181455000Y-126850803D01*
X181455000Y-126629197D01*
X181411767Y-126411850D01*
X181326962Y-126207113D01*
X181203844Y-126022855D01*
X181047145Y-125866156D01*
X180862887Y-125743038D01*
X180658150Y-125658233D01*
X180440803Y-125615000D01*
X180219197Y-125615000D01*
X180001850Y-125658233D01*
X179797113Y-125743038D01*
X179612855Y-125866156D01*
X179456156Y-126022855D01*
X179333038Y-126207113D01*
X179248233Y-126411850D01*
X179205000Y-126629197D01*
X179205000Y-126850803D01*
X179248233Y-127068150D01*
X179303277Y-127201038D01*
X178886047Y-127618268D01*
X178870789Y-127630790D01*
X178858267Y-127646048D01*
X178858264Y-127646051D01*
X178820802Y-127691699D01*
X178783660Y-127761187D01*
X178760787Y-127836588D01*
X178753064Y-127915001D01*
X178755000Y-127934657D01*
X178754999Y-129824354D01*
X178753064Y-129844001D01*
X178754999Y-129863647D01*
X178760787Y-129922414D01*
X178783659Y-129997814D01*
X178820802Y-130067303D01*
X178870788Y-130128212D01*
X178886051Y-130140738D01*
X179442661Y-130697348D01*
X179426091Y-130698980D01*
X179374253Y-130714704D01*
X179326479Y-130740240D01*
X179284605Y-130774605D01*
X179250240Y-130816479D01*
X179224704Y-130864253D01*
X179208980Y-130916091D01*
X179203670Y-130970000D01*
X179203670Y-132380645D01*
X176559316Y-135024999D01*
X175748375Y-135024999D01*
X175895621Y-134950486D01*
X175950828Y-134913598D01*
X176081582Y-134716937D01*
X175100000Y-133735355D01*
X174118418Y-134716937D01*
X174249172Y-134913598D01*
X174446807Y-135024999D01*
X171545005Y-135024999D01*
X171555296Y-135005747D01*
X171571020Y-134953909D01*
X171576330Y-134900000D01*
X171576330Y-133666801D01*
X173618235Y-133666801D01*
X173640230Y-133956517D01*
X173718324Y-134236375D01*
X173849514Y-134495621D01*
X173886402Y-134550828D01*
X174083063Y-134681582D01*
X175064645Y-133700000D01*
X175135355Y-133700000D01*
X176116937Y-134681582D01*
X176313598Y-134550828D01*
X176456268Y-134297719D01*
X176546817Y-134021639D01*
X176581765Y-133733199D01*
X176559770Y-133443483D01*
X176481676Y-133163625D01*
X176350486Y-132904379D01*
X176313598Y-132849172D01*
X176116937Y-132718418D01*
X175135355Y-133700000D01*
X175064645Y-133700000D01*
X174083063Y-132718418D01*
X173886402Y-132849172D01*
X173743732Y-133102281D01*
X173653183Y-133378361D01*
X173618235Y-133666801D01*
X171576330Y-133666801D01*
X171576330Y-132683063D01*
X174118418Y-132683063D01*
X175100000Y-133664645D01*
X176081582Y-132683063D01*
X175950828Y-132486402D01*
X175697719Y-132343732D01*
X175421639Y-132253183D01*
X175133199Y-132218235D01*
X174843483Y-132240230D01*
X174563625Y-132318324D01*
X174304379Y-132449514D01*
X174249172Y-132486402D01*
X174118418Y-132683063D01*
X171576330Y-132683063D01*
X171576330Y-132500000D01*
X171571020Y-132446091D01*
X171555296Y-132394253D01*
X171529760Y-132346479D01*
X171495395Y-132304605D01*
X171453521Y-132270240D01*
X171405747Y-132244704D01*
X171353909Y-132228980D01*
X171300000Y-132223670D01*
X170500000Y-132223670D01*
X170500000Y-127869637D01*
X170501934Y-127850001D01*
X170500000Y-127830365D01*
X170500000Y-124089197D01*
X179205000Y-124089197D01*
X179205000Y-124310803D01*
X179248233Y-124528150D01*
X179333038Y-124732887D01*
X179456156Y-124917145D01*
X179612855Y-125073844D01*
X179797113Y-125196962D01*
X180001850Y-125281767D01*
X180219197Y-125325000D01*
X180440803Y-125325000D01*
X180658150Y-125281767D01*
X180862887Y-125196962D01*
X181047145Y-125073844D01*
X181203844Y-124917145D01*
X181326962Y-124732887D01*
X181411767Y-124528150D01*
X181455000Y-124310803D01*
X181455000Y-124089197D01*
X181411767Y-123871850D01*
X181326962Y-123667113D01*
X181203844Y-123482855D01*
X181047145Y-123326156D01*
X180862887Y-123203038D01*
X180658150Y-123118233D01*
X180440803Y-123075000D01*
X180219197Y-123075000D01*
X180001850Y-123118233D01*
X179797113Y-123203038D01*
X179612855Y-123326156D01*
X179456156Y-123482855D01*
X179333038Y-123667113D01*
X179248233Y-123871850D01*
X179205000Y-124089197D01*
X170500000Y-124089197D01*
X170500000Y-122575000D01*
X183605362Y-122575000D01*
X185500000Y-124118779D01*
G37*
%TD.AperFunction*%
D17*
X166446967Y-122553033D02*
X166458332Y-122562360D01*
X166471299Y-122569291D01*
X166485368Y-122573559D01*
X166500000Y-122575000D01*
X169700001Y-122575000D01*
X169700000Y-127515001D01*
X165905988Y-127515001D01*
X165963844Y-127457145D01*
X166086962Y-127272887D01*
X166171767Y-127068150D01*
X166215000Y-126850803D01*
X166215000Y-126629197D01*
X166171767Y-126411850D01*
X166086962Y-126207113D01*
X165963844Y-126022855D01*
X165807145Y-125866156D01*
X165622887Y-125743038D01*
X165418150Y-125658233D01*
X165200803Y-125615000D01*
X164979197Y-125615000D01*
X164761850Y-125658233D01*
X164557113Y-125743038D01*
X164372855Y-125866156D01*
X164216156Y-126022855D01*
X164093038Y-126207113D01*
X164008233Y-126411850D01*
X163965000Y-126629197D01*
X163965000Y-126850803D01*
X164008233Y-127068150D01*
X164093038Y-127272887D01*
X164177973Y-127400000D01*
X154344544Y-127400000D01*
X154324307Y-127369713D01*
X154230287Y-127275693D01*
X154119732Y-127201823D01*
X153996890Y-127150940D01*
X153866482Y-127125000D01*
X153733518Y-127125000D01*
X153603110Y-127150940D01*
X153480268Y-127201823D01*
X153369713Y-127275693D01*
X153275693Y-127369713D01*
X153201823Y-127480268D01*
X153150940Y-127603110D01*
X153125000Y-127733518D01*
X153125000Y-127866482D01*
X153150940Y-127996890D01*
X153201823Y-128119732D01*
X153275693Y-128230287D01*
X153369713Y-128324307D01*
X153480268Y-128398177D01*
X153603110Y-128449060D01*
X153733518Y-128475000D01*
X153866482Y-128475000D01*
X153996890Y-128449060D01*
X154119732Y-128398177D01*
X154230287Y-128324307D01*
X154324307Y-128230287D01*
X154344544Y-128200000D01*
X164242748Y-128200000D01*
X164302696Y-128249198D01*
X164372185Y-128286341D01*
X164447585Y-128309213D01*
X164508902Y-128315252D01*
X164372855Y-128406156D01*
X164216156Y-128562855D01*
X164093038Y-128747113D01*
X164008233Y-128951850D01*
X163965000Y-129169197D01*
X163965000Y-129390803D01*
X164008233Y-129608150D01*
X164093038Y-129812887D01*
X164216156Y-129997145D01*
X164372855Y-130153844D01*
X164557113Y-130276962D01*
X164761850Y-130361767D01*
X164979197Y-130405000D01*
X165200803Y-130405000D01*
X165418150Y-130361767D01*
X165622887Y-130276962D01*
X165807145Y-130153844D01*
X165963844Y-129997145D01*
X166086962Y-129812887D01*
X166171767Y-129608150D01*
X166215000Y-129390803D01*
X166215000Y-129169197D01*
X166171767Y-128951850D01*
X166086962Y-128747113D01*
X165963844Y-128562855D01*
X165807145Y-128406156D01*
X165670723Y-128315001D01*
X169700001Y-128315001D01*
X169700000Y-132223670D01*
X168900000Y-132223670D01*
X168846091Y-132228980D01*
X168794253Y-132244704D01*
X168746479Y-132270240D01*
X168704605Y-132304605D01*
X168670240Y-132346479D01*
X168644704Y-132394253D01*
X168628980Y-132446091D01*
X168623670Y-132500000D01*
X168623670Y-134900000D01*
X168628980Y-134953909D01*
X168644704Y-135005747D01*
X168654995Y-135024999D01*
X167294636Y-135024999D01*
X167275000Y-135023065D01*
X167255364Y-135024999D01*
X167255354Y-135024999D01*
X167196587Y-135030787D01*
X167121187Y-135053659D01*
X167051698Y-135090802D01*
X166990790Y-135140788D01*
X166978266Y-135156049D01*
X166660645Y-135473670D01*
X165250000Y-135473670D01*
X165196091Y-135478980D01*
X165144253Y-135494704D01*
X165096479Y-135520240D01*
X165054605Y-135554605D01*
X165020240Y-135596479D01*
X164994704Y-135644253D01*
X164978980Y-135696091D01*
X164973670Y-135750000D01*
X164973670Y-137450000D01*
X164978980Y-137503909D01*
X164994704Y-137555747D01*
X165020240Y-137603521D01*
X165054605Y-137645395D01*
X165096479Y-137679760D01*
X165144253Y-137705296D01*
X165196091Y-137721020D01*
X165250000Y-137726330D01*
X166950000Y-137726330D01*
X167003909Y-137721020D01*
X167055747Y-137705296D01*
X167103521Y-137679760D01*
X167145395Y-137645395D01*
X167179760Y-137603521D01*
X167205296Y-137555747D01*
X167221020Y-137503909D01*
X167226330Y-137450000D01*
X167226330Y-136800638D01*
X167533035Y-136800638D01*
X167593448Y-137012741D01*
X167694079Y-137208982D01*
X167831061Y-137381821D01*
X167999130Y-137524615D01*
X168191828Y-137631876D01*
X168401749Y-137699483D01*
X168439363Y-137706964D01*
X168615000Y-137655954D01*
X168615000Y-136625000D01*
X168665000Y-136625000D01*
X168665000Y-137655954D01*
X168840637Y-137706964D01*
X168878251Y-137699483D01*
X169088172Y-137631876D01*
X169280870Y-137524615D01*
X169448939Y-137381821D01*
X169585921Y-137208982D01*
X169686552Y-137012741D01*
X169746965Y-136800638D01*
X169695973Y-136625000D01*
X168665000Y-136625000D01*
X168615000Y-136625000D01*
X167584027Y-136625000D01*
X167533035Y-136800638D01*
X167226330Y-136800638D01*
X167226330Y-136039355D01*
X167440686Y-135824999D01*
X167825656Y-135824999D01*
X167694079Y-135991018D01*
X167593448Y-136187259D01*
X167533035Y-136399362D01*
X167584027Y-136575000D01*
X168615000Y-136575000D01*
X168615000Y-136555000D01*
X168665000Y-136555000D01*
X168665000Y-136575000D01*
X169695973Y-136575000D01*
X169746965Y-136399362D01*
X169686552Y-136187259D01*
X169585921Y-135991018D01*
X169454344Y-135824999D01*
X170364012Y-135824999D01*
X170306156Y-135882855D01*
X170183038Y-136067113D01*
X170098233Y-136271850D01*
X170055000Y-136489197D01*
X170055000Y-136710803D01*
X170098233Y-136928150D01*
X170183038Y-137132887D01*
X170306156Y-137317145D01*
X170462855Y-137473844D01*
X170647113Y-137596962D01*
X170851850Y-137681767D01*
X171069197Y-137725000D01*
X171290803Y-137725000D01*
X171508150Y-137681767D01*
X171712887Y-137596962D01*
X171897145Y-137473844D01*
X172053844Y-137317145D01*
X172176962Y-137132887D01*
X172261767Y-136928150D01*
X172305000Y-136710803D01*
X172305000Y-136489197D01*
X172261767Y-136271850D01*
X172176962Y-136067113D01*
X172053844Y-135882855D01*
X171995988Y-135824999D01*
X172904012Y-135824999D01*
X172846156Y-135882855D01*
X172723038Y-136067113D01*
X172638233Y-136271850D01*
X172595000Y-136489197D01*
X172595000Y-136710803D01*
X172638233Y-136928150D01*
X172723038Y-137132887D01*
X172846156Y-137317145D01*
X173002855Y-137473844D01*
X173187113Y-137596962D01*
X173391850Y-137681767D01*
X173609197Y-137725000D01*
X173830803Y-137725000D01*
X174048150Y-137681767D01*
X174181038Y-137626723D01*
X174923263Y-138368948D01*
X174935789Y-138384211D01*
X174996697Y-138434197D01*
X175066186Y-138471340D01*
X175141586Y-138494212D01*
X175200353Y-138500000D01*
X175200363Y-138500000D01*
X175219999Y-138501934D01*
X175239635Y-138500000D01*
X183455456Y-138500000D01*
X183475693Y-138530287D01*
X183569713Y-138624307D01*
X183680268Y-138698177D01*
X183803110Y-138749060D01*
X183807836Y-138750000D01*
X154103553Y-138750000D01*
X149185466Y-133831914D01*
X149177632Y-133822368D01*
X149139564Y-133791127D01*
X149096134Y-133767913D01*
X149049008Y-133753618D01*
X149012275Y-133750000D01*
X149000000Y-133748791D01*
X148987725Y-133750000D01*
X140353553Y-133750000D01*
X140250000Y-133646447D01*
X140250000Y-133015657D01*
X140270239Y-133053521D01*
X140304604Y-133095396D01*
X140346479Y-133129761D01*
X140394253Y-133155297D01*
X140446090Y-133171021D01*
X140500000Y-133176331D01*
X143406250Y-133175000D01*
X143475000Y-133106250D01*
X143475000Y-132025000D01*
X143525000Y-132025000D01*
X143525000Y-133106250D01*
X143593750Y-133175000D01*
X146500000Y-133176331D01*
X146553910Y-133171021D01*
X146605747Y-133155297D01*
X146653521Y-133129761D01*
X146695396Y-133095396D01*
X146729761Y-133053521D01*
X146755297Y-133005747D01*
X146771021Y-132953910D01*
X146776331Y-132900000D01*
X146775000Y-132093750D01*
X146706250Y-132025000D01*
X143525000Y-132025000D01*
X143475000Y-132025000D01*
X143455000Y-132025000D01*
X143455000Y-131975000D01*
X143475000Y-131975000D01*
X143475000Y-130893750D01*
X143525000Y-130893750D01*
X143525000Y-131975000D01*
X146706250Y-131975000D01*
X146775000Y-131906250D01*
X146775325Y-131709197D01*
X163965000Y-131709197D01*
X163965000Y-131930803D01*
X164008233Y-132148150D01*
X164093038Y-132352887D01*
X164216156Y-132537145D01*
X164372855Y-132693844D01*
X164557113Y-132816962D01*
X164761850Y-132901767D01*
X164979197Y-132945000D01*
X165200803Y-132945000D01*
X165418150Y-132901767D01*
X165622887Y-132816962D01*
X165807145Y-132693844D01*
X165963844Y-132537145D01*
X166086962Y-132352887D01*
X166171767Y-132148150D01*
X166215000Y-131930803D01*
X166215000Y-131709197D01*
X166171767Y-131491850D01*
X166086962Y-131287113D01*
X165963844Y-131102855D01*
X165807145Y-130946156D01*
X165622887Y-130823038D01*
X165418150Y-130738233D01*
X165200803Y-130695000D01*
X164979197Y-130695000D01*
X164761850Y-130738233D01*
X164557113Y-130823038D01*
X164372855Y-130946156D01*
X164216156Y-131102855D01*
X164093038Y-131287113D01*
X164008233Y-131491850D01*
X163965000Y-131709197D01*
X146775325Y-131709197D01*
X146775835Y-131400000D01*
X158023669Y-131400000D01*
X158028979Y-131453910D01*
X158044703Y-131505747D01*
X158070239Y-131553521D01*
X158104604Y-131595396D01*
X158146479Y-131629761D01*
X158194253Y-131655297D01*
X158246090Y-131671021D01*
X158300000Y-131676331D01*
X159106250Y-131675000D01*
X159175000Y-131606250D01*
X159175000Y-130625000D01*
X159225000Y-130625000D01*
X159225000Y-131606250D01*
X159293750Y-131675000D01*
X160100000Y-131676331D01*
X160153910Y-131671021D01*
X160205747Y-131655297D01*
X160253521Y-131629761D01*
X160295396Y-131595396D01*
X160329761Y-131553521D01*
X160355297Y-131505747D01*
X160371021Y-131453910D01*
X160376331Y-131400000D01*
X160375000Y-130693750D01*
X160306250Y-130625000D01*
X159225000Y-130625000D01*
X159175000Y-130625000D01*
X158093750Y-130625000D01*
X158025000Y-130693750D01*
X158023669Y-131400000D01*
X146775835Y-131400000D01*
X146776331Y-131100000D01*
X146771021Y-131046090D01*
X146755297Y-130994253D01*
X146729761Y-130946479D01*
X146695396Y-130904604D01*
X146653521Y-130870239D01*
X146605747Y-130844703D01*
X146553910Y-130828979D01*
X146500000Y-130823669D01*
X143593750Y-130825000D01*
X143525000Y-130893750D01*
X143475000Y-130893750D01*
X143406250Y-130825000D01*
X140500000Y-130823669D01*
X140446090Y-130828979D01*
X140394253Y-130844703D01*
X140346479Y-130870239D01*
X140304604Y-130904604D01*
X140270239Y-130946479D01*
X140250000Y-130984343D01*
X140250000Y-129800000D01*
X158023669Y-129800000D01*
X158025000Y-130506250D01*
X158093750Y-130575000D01*
X159175000Y-130575000D01*
X159175000Y-129593750D01*
X159225000Y-129593750D01*
X159225000Y-130575000D01*
X160306250Y-130575000D01*
X160375000Y-130506250D01*
X160376331Y-129800000D01*
X160371021Y-129746090D01*
X160355297Y-129694253D01*
X160329761Y-129646479D01*
X160295396Y-129604604D01*
X160253521Y-129570239D01*
X160205747Y-129544703D01*
X160153910Y-129528979D01*
X160100000Y-129523669D01*
X159293750Y-129525000D01*
X159225000Y-129593750D01*
X159175000Y-129593750D01*
X159106250Y-129525000D01*
X158300000Y-129523669D01*
X158246090Y-129528979D01*
X158194253Y-129544703D01*
X158146479Y-129570239D01*
X158104604Y-129604604D01*
X158070239Y-129646479D01*
X158044703Y-129694253D01*
X158028979Y-129746090D01*
X158023669Y-129800000D01*
X140250000Y-129800000D01*
X140250000Y-127552491D01*
X140278959Y-127647954D01*
X140346079Y-127773527D01*
X140436407Y-127883593D01*
X140546473Y-127973921D01*
X140672046Y-128041041D01*
X140808300Y-128082374D01*
X140950000Y-128096330D01*
X146050000Y-128096330D01*
X146191700Y-128082374D01*
X146327954Y-128041041D01*
X146453527Y-127973921D01*
X146563593Y-127883593D01*
X146653921Y-127773527D01*
X146721041Y-127647954D01*
X146762374Y-127511700D01*
X146776330Y-127370000D01*
X146776330Y-126470000D01*
X146762374Y-126328300D01*
X146721041Y-126192046D01*
X146653921Y-126066473D01*
X146563593Y-125956407D01*
X146453527Y-125866079D01*
X146327954Y-125798959D01*
X146191700Y-125757626D01*
X146050000Y-125743670D01*
X140950000Y-125743670D01*
X140808300Y-125757626D01*
X140672046Y-125798959D01*
X140546473Y-125866079D01*
X140436407Y-125956407D01*
X140346079Y-126066473D01*
X140278959Y-126192046D01*
X140250000Y-126287509D01*
X140250000Y-125050000D01*
X163963669Y-125050000D01*
X163968979Y-125103910D01*
X163984703Y-125155747D01*
X164010239Y-125203521D01*
X164044604Y-125245396D01*
X164086479Y-125279761D01*
X164134253Y-125305297D01*
X164186090Y-125321021D01*
X164240000Y-125326331D01*
X164996250Y-125325000D01*
X165065000Y-125256250D01*
X165065000Y-124225000D01*
X165115000Y-124225000D01*
X165115000Y-125256250D01*
X165183750Y-125325000D01*
X165940000Y-125326331D01*
X165993910Y-125321021D01*
X166045747Y-125305297D01*
X166093521Y-125279761D01*
X166135396Y-125245396D01*
X166169761Y-125203521D01*
X166195297Y-125155747D01*
X166211021Y-125103910D01*
X166216331Y-125050000D01*
X166215000Y-124293750D01*
X166146250Y-124225000D01*
X165115000Y-124225000D01*
X165065000Y-124225000D01*
X164033750Y-124225000D01*
X163965000Y-124293750D01*
X163963669Y-125050000D01*
X140250000Y-125050000D01*
X140250000Y-123350000D01*
X163963669Y-123350000D01*
X163965000Y-124106250D01*
X164033750Y-124175000D01*
X165065000Y-124175000D01*
X165065000Y-123143750D01*
X165115000Y-123143750D01*
X165115000Y-124175000D01*
X166146250Y-124175000D01*
X166215000Y-124106250D01*
X166216331Y-123350000D01*
X166211021Y-123296090D01*
X166195297Y-123244253D01*
X166169761Y-123196479D01*
X166135396Y-123154604D01*
X166093521Y-123120239D01*
X166045747Y-123094703D01*
X165993910Y-123078979D01*
X165940000Y-123073669D01*
X165183750Y-123075000D01*
X165115000Y-123143750D01*
X165065000Y-123143750D01*
X164996250Y-123075000D01*
X164240000Y-123073669D01*
X164186090Y-123078979D01*
X164134253Y-123094703D01*
X164086479Y-123120239D01*
X164044604Y-123154604D01*
X164010239Y-123196479D01*
X163984703Y-123244253D01*
X163968979Y-123296090D01*
X163963669Y-123350000D01*
X140250000Y-123350000D01*
X140250000Y-122472491D01*
X140278959Y-122567954D01*
X140346079Y-122693527D01*
X140436407Y-122803593D01*
X140546473Y-122893921D01*
X140672046Y-122961041D01*
X140808300Y-123002374D01*
X140950000Y-123016330D01*
X146050000Y-123016330D01*
X146191700Y-123002374D01*
X146327954Y-122961041D01*
X146453527Y-122893921D01*
X146563593Y-122803593D01*
X146653921Y-122693527D01*
X146721041Y-122567954D01*
X146762374Y-122431700D01*
X146776330Y-122290000D01*
X146776330Y-121390000D01*
X146762374Y-121248300D01*
X146721041Y-121112046D01*
X146653921Y-120986473D01*
X146563593Y-120876407D01*
X146453527Y-120786079D01*
X146327954Y-120718959D01*
X146191700Y-120677626D01*
X146050000Y-120663670D01*
X140950000Y-120663670D01*
X140808300Y-120677626D01*
X140672046Y-120718959D01*
X140546473Y-120786079D01*
X140436407Y-120876407D01*
X140346079Y-120986473D01*
X140278959Y-121112046D01*
X140250000Y-121207509D01*
X140250000Y-120103553D01*
X140353553Y-120000000D01*
X155237725Y-120000000D01*
X155250000Y-120001209D01*
X155299008Y-119996382D01*
X155327547Y-119987725D01*
X155346134Y-119982087D01*
X155389564Y-119958873D01*
X155427632Y-119927632D01*
X155435466Y-119918086D01*
X155528552Y-119825000D01*
X163718934Y-119825000D01*
X166446967Y-122553033D01*
%TA.AperFunction,Conductor*%
D18*
G36*
X166446967Y-122553033D02*
G01*
X166458332Y-122562360D01*
X166471299Y-122569291D01*
X166485368Y-122573559D01*
X166500000Y-122575000D01*
X169700001Y-122575000D01*
X169700000Y-127515001D01*
X165905988Y-127515001D01*
X165963844Y-127457145D01*
X166086962Y-127272887D01*
X166171767Y-127068150D01*
X166215000Y-126850803D01*
X166215000Y-126629197D01*
X166171767Y-126411850D01*
X166086962Y-126207113D01*
X165963844Y-126022855D01*
X165807145Y-125866156D01*
X165622887Y-125743038D01*
X165418150Y-125658233D01*
X165200803Y-125615000D01*
X164979197Y-125615000D01*
X164761850Y-125658233D01*
X164557113Y-125743038D01*
X164372855Y-125866156D01*
X164216156Y-126022855D01*
X164093038Y-126207113D01*
X164008233Y-126411850D01*
X163965000Y-126629197D01*
X163965000Y-126850803D01*
X164008233Y-127068150D01*
X164093038Y-127272887D01*
X164177973Y-127400000D01*
X154344544Y-127400000D01*
X154324307Y-127369713D01*
X154230287Y-127275693D01*
X154119732Y-127201823D01*
X153996890Y-127150940D01*
X153866482Y-127125000D01*
X153733518Y-127125000D01*
X153603110Y-127150940D01*
X153480268Y-127201823D01*
X153369713Y-127275693D01*
X153275693Y-127369713D01*
X153201823Y-127480268D01*
X153150940Y-127603110D01*
X153125000Y-127733518D01*
X153125000Y-127866482D01*
X153150940Y-127996890D01*
X153201823Y-128119732D01*
X153275693Y-128230287D01*
X153369713Y-128324307D01*
X153480268Y-128398177D01*
X153603110Y-128449060D01*
X153733518Y-128475000D01*
X153866482Y-128475000D01*
X153996890Y-128449060D01*
X154119732Y-128398177D01*
X154230287Y-128324307D01*
X154324307Y-128230287D01*
X154344544Y-128200000D01*
X164242748Y-128200000D01*
X164302696Y-128249198D01*
X164372185Y-128286341D01*
X164447585Y-128309213D01*
X164508902Y-128315252D01*
X164372855Y-128406156D01*
X164216156Y-128562855D01*
X164093038Y-128747113D01*
X164008233Y-128951850D01*
X163965000Y-129169197D01*
X163965000Y-129390803D01*
X164008233Y-129608150D01*
X164093038Y-129812887D01*
X164216156Y-129997145D01*
X164372855Y-130153844D01*
X164557113Y-130276962D01*
X164761850Y-130361767D01*
X164979197Y-130405000D01*
X165200803Y-130405000D01*
X165418150Y-130361767D01*
X165622887Y-130276962D01*
X165807145Y-130153844D01*
X165963844Y-129997145D01*
X166086962Y-129812887D01*
X166171767Y-129608150D01*
X166215000Y-129390803D01*
X166215000Y-129169197D01*
X166171767Y-128951850D01*
X166086962Y-128747113D01*
X165963844Y-128562855D01*
X165807145Y-128406156D01*
X165670723Y-128315001D01*
X169700001Y-128315001D01*
X169700000Y-132223670D01*
X168900000Y-132223670D01*
X168846091Y-132228980D01*
X168794253Y-132244704D01*
X168746479Y-132270240D01*
X168704605Y-132304605D01*
X168670240Y-132346479D01*
X168644704Y-132394253D01*
X168628980Y-132446091D01*
X168623670Y-132500000D01*
X168623670Y-134900000D01*
X168628980Y-134953909D01*
X168644704Y-135005747D01*
X168654995Y-135024999D01*
X167294636Y-135024999D01*
X167275000Y-135023065D01*
X167255364Y-135024999D01*
X167255354Y-135024999D01*
X167196587Y-135030787D01*
X167121187Y-135053659D01*
X167051698Y-135090802D01*
X166990790Y-135140788D01*
X166978266Y-135156049D01*
X166660645Y-135473670D01*
X165250000Y-135473670D01*
X165196091Y-135478980D01*
X165144253Y-135494704D01*
X165096479Y-135520240D01*
X165054605Y-135554605D01*
X165020240Y-135596479D01*
X164994704Y-135644253D01*
X164978980Y-135696091D01*
X164973670Y-135750000D01*
X164973670Y-137450000D01*
X164978980Y-137503909D01*
X164994704Y-137555747D01*
X165020240Y-137603521D01*
X165054605Y-137645395D01*
X165096479Y-137679760D01*
X165144253Y-137705296D01*
X165196091Y-137721020D01*
X165250000Y-137726330D01*
X166950000Y-137726330D01*
X167003909Y-137721020D01*
X167055747Y-137705296D01*
X167103521Y-137679760D01*
X167145395Y-137645395D01*
X167179760Y-137603521D01*
X167205296Y-137555747D01*
X167221020Y-137503909D01*
X167226330Y-137450000D01*
X167226330Y-136800638D01*
X167533035Y-136800638D01*
X167593448Y-137012741D01*
X167694079Y-137208982D01*
X167831061Y-137381821D01*
X167999130Y-137524615D01*
X168191828Y-137631876D01*
X168401749Y-137699483D01*
X168439363Y-137706964D01*
X168615000Y-137655954D01*
X168615000Y-136625000D01*
X168665000Y-136625000D01*
X168665000Y-137655954D01*
X168840637Y-137706964D01*
X168878251Y-137699483D01*
X169088172Y-137631876D01*
X169280870Y-137524615D01*
X169448939Y-137381821D01*
X169585921Y-137208982D01*
X169686552Y-137012741D01*
X169746965Y-136800638D01*
X169695973Y-136625000D01*
X168665000Y-136625000D01*
X168615000Y-136625000D01*
X167584027Y-136625000D01*
X167533035Y-136800638D01*
X167226330Y-136800638D01*
X167226330Y-136039355D01*
X167440686Y-135824999D01*
X167825656Y-135824999D01*
X167694079Y-135991018D01*
X167593448Y-136187259D01*
X167533035Y-136399362D01*
X167584027Y-136575000D01*
X168615000Y-136575000D01*
X168615000Y-136555000D01*
X168665000Y-136555000D01*
X168665000Y-136575000D01*
X169695973Y-136575000D01*
X169746965Y-136399362D01*
X169686552Y-136187259D01*
X169585921Y-135991018D01*
X169454344Y-135824999D01*
X170364012Y-135824999D01*
X170306156Y-135882855D01*
X170183038Y-136067113D01*
X170098233Y-136271850D01*
X170055000Y-136489197D01*
X170055000Y-136710803D01*
X170098233Y-136928150D01*
X170183038Y-137132887D01*
X170306156Y-137317145D01*
X170462855Y-137473844D01*
X170647113Y-137596962D01*
X170851850Y-137681767D01*
X171069197Y-137725000D01*
X171290803Y-137725000D01*
X171508150Y-137681767D01*
X171712887Y-137596962D01*
X171897145Y-137473844D01*
X172053844Y-137317145D01*
X172176962Y-137132887D01*
X172261767Y-136928150D01*
X172305000Y-136710803D01*
X172305000Y-136489197D01*
X172261767Y-136271850D01*
X172176962Y-136067113D01*
X172053844Y-135882855D01*
X171995988Y-135824999D01*
X172904012Y-135824999D01*
X172846156Y-135882855D01*
X172723038Y-136067113D01*
X172638233Y-136271850D01*
X172595000Y-136489197D01*
X172595000Y-136710803D01*
X172638233Y-136928150D01*
X172723038Y-137132887D01*
X172846156Y-137317145D01*
X173002855Y-137473844D01*
X173187113Y-137596962D01*
X173391850Y-137681767D01*
X173609197Y-137725000D01*
X173830803Y-137725000D01*
X174048150Y-137681767D01*
X174181038Y-137626723D01*
X174923263Y-138368948D01*
X174935789Y-138384211D01*
X174996697Y-138434197D01*
X175066186Y-138471340D01*
X175141586Y-138494212D01*
X175200353Y-138500000D01*
X175200363Y-138500000D01*
X175219999Y-138501934D01*
X175239635Y-138500000D01*
X183455456Y-138500000D01*
X183475693Y-138530287D01*
X183569713Y-138624307D01*
X183680268Y-138698177D01*
X183803110Y-138749060D01*
X183807836Y-138750000D01*
X154103553Y-138750000D01*
X149185466Y-133831914D01*
X149177632Y-133822368D01*
X149139564Y-133791127D01*
X149096134Y-133767913D01*
X149049008Y-133753618D01*
X149012275Y-133750000D01*
X149000000Y-133748791D01*
X148987725Y-133750000D01*
X140353553Y-133750000D01*
X140250000Y-133646447D01*
X140250000Y-133015657D01*
X140270239Y-133053521D01*
X140304604Y-133095396D01*
X140346479Y-133129761D01*
X140394253Y-133155297D01*
X140446090Y-133171021D01*
X140500000Y-133176331D01*
X143406250Y-133175000D01*
X143475000Y-133106250D01*
X143475000Y-132025000D01*
X143525000Y-132025000D01*
X143525000Y-133106250D01*
X143593750Y-133175000D01*
X146500000Y-133176331D01*
X146553910Y-133171021D01*
X146605747Y-133155297D01*
X146653521Y-133129761D01*
X146695396Y-133095396D01*
X146729761Y-133053521D01*
X146755297Y-133005747D01*
X146771021Y-132953910D01*
X146776331Y-132900000D01*
X146775000Y-132093750D01*
X146706250Y-132025000D01*
X143525000Y-132025000D01*
X143475000Y-132025000D01*
X143455000Y-132025000D01*
X143455000Y-131975000D01*
X143475000Y-131975000D01*
X143475000Y-130893750D01*
X143525000Y-130893750D01*
X143525000Y-131975000D01*
X146706250Y-131975000D01*
X146775000Y-131906250D01*
X146775325Y-131709197D01*
X163965000Y-131709197D01*
X163965000Y-131930803D01*
X164008233Y-132148150D01*
X164093038Y-132352887D01*
X164216156Y-132537145D01*
X164372855Y-132693844D01*
X164557113Y-132816962D01*
X164761850Y-132901767D01*
X164979197Y-132945000D01*
X165200803Y-132945000D01*
X165418150Y-132901767D01*
X165622887Y-132816962D01*
X165807145Y-132693844D01*
X165963844Y-132537145D01*
X166086962Y-132352887D01*
X166171767Y-132148150D01*
X166215000Y-131930803D01*
X166215000Y-131709197D01*
X166171767Y-131491850D01*
X166086962Y-131287113D01*
X165963844Y-131102855D01*
X165807145Y-130946156D01*
X165622887Y-130823038D01*
X165418150Y-130738233D01*
X165200803Y-130695000D01*
X164979197Y-130695000D01*
X164761850Y-130738233D01*
X164557113Y-130823038D01*
X164372855Y-130946156D01*
X164216156Y-131102855D01*
X164093038Y-131287113D01*
X164008233Y-131491850D01*
X163965000Y-131709197D01*
X146775325Y-131709197D01*
X146775835Y-131400000D01*
X158023669Y-131400000D01*
X158028979Y-131453910D01*
X158044703Y-131505747D01*
X158070239Y-131553521D01*
X158104604Y-131595396D01*
X158146479Y-131629761D01*
X158194253Y-131655297D01*
X158246090Y-131671021D01*
X158300000Y-131676331D01*
X159106250Y-131675000D01*
X159175000Y-131606250D01*
X159175000Y-130625000D01*
X159225000Y-130625000D01*
X159225000Y-131606250D01*
X159293750Y-131675000D01*
X160100000Y-131676331D01*
X160153910Y-131671021D01*
X160205747Y-131655297D01*
X160253521Y-131629761D01*
X160295396Y-131595396D01*
X160329761Y-131553521D01*
X160355297Y-131505747D01*
X160371021Y-131453910D01*
X160376331Y-131400000D01*
X160375000Y-130693750D01*
X160306250Y-130625000D01*
X159225000Y-130625000D01*
X159175000Y-130625000D01*
X158093750Y-130625000D01*
X158025000Y-130693750D01*
X158023669Y-131400000D01*
X146775835Y-131400000D01*
X146776331Y-131100000D01*
X146771021Y-131046090D01*
X146755297Y-130994253D01*
X146729761Y-130946479D01*
X146695396Y-130904604D01*
X146653521Y-130870239D01*
X146605747Y-130844703D01*
X146553910Y-130828979D01*
X146500000Y-130823669D01*
X143593750Y-130825000D01*
X143525000Y-130893750D01*
X143475000Y-130893750D01*
X143406250Y-130825000D01*
X140500000Y-130823669D01*
X140446090Y-130828979D01*
X140394253Y-130844703D01*
X140346479Y-130870239D01*
X140304604Y-130904604D01*
X140270239Y-130946479D01*
X140250000Y-130984343D01*
X140250000Y-129800000D01*
X158023669Y-129800000D01*
X158025000Y-130506250D01*
X158093750Y-130575000D01*
X159175000Y-130575000D01*
X159175000Y-129593750D01*
X159225000Y-129593750D01*
X159225000Y-130575000D01*
X160306250Y-130575000D01*
X160375000Y-130506250D01*
X160376331Y-129800000D01*
X160371021Y-129746090D01*
X160355297Y-129694253D01*
X160329761Y-129646479D01*
X160295396Y-129604604D01*
X160253521Y-129570239D01*
X160205747Y-129544703D01*
X160153910Y-129528979D01*
X160100000Y-129523669D01*
X159293750Y-129525000D01*
X159225000Y-129593750D01*
X159175000Y-129593750D01*
X159106250Y-129525000D01*
X158300000Y-129523669D01*
X158246090Y-129528979D01*
X158194253Y-129544703D01*
X158146479Y-129570239D01*
X158104604Y-129604604D01*
X158070239Y-129646479D01*
X158044703Y-129694253D01*
X158028979Y-129746090D01*
X158023669Y-129800000D01*
X140250000Y-129800000D01*
X140250000Y-127552491D01*
X140278959Y-127647954D01*
X140346079Y-127773527D01*
X140436407Y-127883593D01*
X140546473Y-127973921D01*
X140672046Y-128041041D01*
X140808300Y-128082374D01*
X140950000Y-128096330D01*
X146050000Y-128096330D01*
X146191700Y-128082374D01*
X146327954Y-128041041D01*
X146453527Y-127973921D01*
X146563593Y-127883593D01*
X146653921Y-127773527D01*
X146721041Y-127647954D01*
X146762374Y-127511700D01*
X146776330Y-127370000D01*
X146776330Y-126470000D01*
X146762374Y-126328300D01*
X146721041Y-126192046D01*
X146653921Y-126066473D01*
X146563593Y-125956407D01*
X146453527Y-125866079D01*
X146327954Y-125798959D01*
X146191700Y-125757626D01*
X146050000Y-125743670D01*
X140950000Y-125743670D01*
X140808300Y-125757626D01*
X140672046Y-125798959D01*
X140546473Y-125866079D01*
X140436407Y-125956407D01*
X140346079Y-126066473D01*
X140278959Y-126192046D01*
X140250000Y-126287509D01*
X140250000Y-125050000D01*
X163963669Y-125050000D01*
X163968979Y-125103910D01*
X163984703Y-125155747D01*
X164010239Y-125203521D01*
X164044604Y-125245396D01*
X164086479Y-125279761D01*
X164134253Y-125305297D01*
X164186090Y-125321021D01*
X164240000Y-125326331D01*
X164996250Y-125325000D01*
X165065000Y-125256250D01*
X165065000Y-124225000D01*
X165115000Y-124225000D01*
X165115000Y-125256250D01*
X165183750Y-125325000D01*
X165940000Y-125326331D01*
X165993910Y-125321021D01*
X166045747Y-125305297D01*
X166093521Y-125279761D01*
X166135396Y-125245396D01*
X166169761Y-125203521D01*
X166195297Y-125155747D01*
X166211021Y-125103910D01*
X166216331Y-125050000D01*
X166215000Y-124293750D01*
X166146250Y-124225000D01*
X165115000Y-124225000D01*
X165065000Y-124225000D01*
X164033750Y-124225000D01*
X163965000Y-124293750D01*
X163963669Y-125050000D01*
X140250000Y-125050000D01*
X140250000Y-123350000D01*
X163963669Y-123350000D01*
X163965000Y-124106250D01*
X164033750Y-124175000D01*
X165065000Y-124175000D01*
X165065000Y-123143750D01*
X165115000Y-123143750D01*
X165115000Y-124175000D01*
X166146250Y-124175000D01*
X166215000Y-124106250D01*
X166216331Y-123350000D01*
X166211021Y-123296090D01*
X166195297Y-123244253D01*
X166169761Y-123196479D01*
X166135396Y-123154604D01*
X166093521Y-123120239D01*
X166045747Y-123094703D01*
X165993910Y-123078979D01*
X165940000Y-123073669D01*
X165183750Y-123075000D01*
X165115000Y-123143750D01*
X165065000Y-123143750D01*
X164996250Y-123075000D01*
X164240000Y-123073669D01*
X164186090Y-123078979D01*
X164134253Y-123094703D01*
X164086479Y-123120239D01*
X164044604Y-123154604D01*
X164010239Y-123196479D01*
X163984703Y-123244253D01*
X163968979Y-123296090D01*
X163963669Y-123350000D01*
X140250000Y-123350000D01*
X140250000Y-122472491D01*
X140278959Y-122567954D01*
X140346079Y-122693527D01*
X140436407Y-122803593D01*
X140546473Y-122893921D01*
X140672046Y-122961041D01*
X140808300Y-123002374D01*
X140950000Y-123016330D01*
X146050000Y-123016330D01*
X146191700Y-123002374D01*
X146327954Y-122961041D01*
X146453527Y-122893921D01*
X146563593Y-122803593D01*
X146653921Y-122693527D01*
X146721041Y-122567954D01*
X146762374Y-122431700D01*
X146776330Y-122290000D01*
X146776330Y-121390000D01*
X146762374Y-121248300D01*
X146721041Y-121112046D01*
X146653921Y-120986473D01*
X146563593Y-120876407D01*
X146453527Y-120786079D01*
X146327954Y-120718959D01*
X146191700Y-120677626D01*
X146050000Y-120663670D01*
X140950000Y-120663670D01*
X140808300Y-120677626D01*
X140672046Y-120718959D01*
X140546473Y-120786079D01*
X140436407Y-120876407D01*
X140346079Y-120986473D01*
X140278959Y-121112046D01*
X140250000Y-121207509D01*
X140250000Y-120103553D01*
X140353553Y-120000000D01*
X155237725Y-120000000D01*
X155250000Y-120001209D01*
X155299008Y-119996382D01*
X155327547Y-119987725D01*
X155346134Y-119982087D01*
X155389564Y-119958873D01*
X155427632Y-119927632D01*
X155435466Y-119918086D01*
X155528552Y-119825000D01*
X163718934Y-119825000D01*
X166446967Y-122553033D01*
G37*
%TD.AperFunction*%
%TD*%
M02*
