%TF.GenerationSoftware,KiCad,Pcbnew,5.1.9+dfsg1-1*%
%TF.CreationDate,2021-06-24T19:32:38+02:00*%
%TF.ProjectId,pcb,7063622e-6b69-4636-9164-5f7063625858,rev?*%
%TF.SameCoordinates,Original*%
%TF.FileFunction,Copper,L1,Top*%
%TF.FilePolarity,Positive*%
%FSLAX46Y46*%
G04 Gerber Fmt 4.6, Leading zero omitted, Abs format (unit mm)*
G04 Created by KiCad (PCBNEW 5.1.9+dfsg1-1) date 2021-06-24 19:32:38*
%MOMM*%
%LPD*%
G01*
G04 APERTURE LIST*
%TA.AperFunction,SMDPad,CuDef*%
%ADD10R,0.450000X0.600000*%
%TD*%
%TA.AperFunction,SMDPad,CuDef*%
%ADD11R,1.880000X1.680000*%
%TD*%
%TA.AperFunction,SMDPad,CuDef*%
%ADD12R,0.600000X0.450000*%
%TD*%
%TA.AperFunction,SMDPad,CuDef*%
%ADD13R,0.800000X0.900000*%
%TD*%
%TA.AperFunction,ComponentPad*%
%ADD14R,2.400000X2.400000*%
%TD*%
%TA.AperFunction,ComponentPad*%
%ADD15C,2.400000*%
%TD*%
%TA.AperFunction,ComponentPad*%
%ADD16R,1.700000X1.700000*%
%TD*%
%TA.AperFunction,ComponentPad*%
%ADD17O,1.700000X1.700000*%
%TD*%
%TA.AperFunction,SMDPad,CuDef*%
%ADD18R,0.800000X2.900000*%
%TD*%
%TA.AperFunction,SMDPad,CuDef*%
%ADD19R,0.900000X0.800000*%
%TD*%
%TA.AperFunction,SMDPad,CuDef*%
%ADD20R,1.060000X0.650000*%
%TD*%
%TA.AperFunction,ViaPad*%
%ADD21C,0.800000*%
%TD*%
%TA.AperFunction,Conductor*%
%ADD22C,0.250000*%
%TD*%
%TA.AperFunction,Conductor*%
%ADD23C,0.150000*%
%TD*%
%TA.AperFunction,Conductor*%
%ADD24C,0.100000*%
%TD*%
G04 APERTURE END LIST*
D10*
%TO.P,D6,1*%
%TO.N,+2V5*%
X183250000Y-131450000D03*
%TO.P,D6,2*%
%TO.N,Net-(D6-Pad2)*%
X183250000Y-133550000D03*
%TD*%
%TO.P,U1,1*%
%TO.N,GND*%
%TA.AperFunction,SMDPad,CuDef*%
G36*
G01*
X158325000Y-133475000D02*
X158125000Y-133475000D01*
G75*
G02*
X158025000Y-133375000I0J100000D01*
G01*
X158025000Y-132125000D01*
G75*
G02*
X158125000Y-132025000I100000J0D01*
G01*
X158325000Y-132025000D01*
G75*
G02*
X158425000Y-132125000I0J-100000D01*
G01*
X158425000Y-133375000D01*
G75*
G02*
X158325000Y-133475000I-100000J0D01*
G01*
G37*
%TD.AperFunction*%
%TO.P,U1,2*%
%TO.N,VCC*%
%TA.AperFunction,SMDPad,CuDef*%
G36*
G01*
X158975000Y-133475000D02*
X158775000Y-133475000D01*
G75*
G02*
X158675000Y-133375000I0J100000D01*
G01*
X158675000Y-132125000D01*
G75*
G02*
X158775000Y-132025000I100000J0D01*
G01*
X158975000Y-132025000D01*
G75*
G02*
X159075000Y-132125000I0J-100000D01*
G01*
X159075000Y-133375000D01*
G75*
G02*
X158975000Y-133475000I-100000J0D01*
G01*
G37*
%TD.AperFunction*%
%TO.P,U1,3*%
%TO.N,Net-(D4-Pad1)*%
%TA.AperFunction,SMDPad,CuDef*%
G36*
G01*
X159625000Y-133475000D02*
X159425000Y-133475000D01*
G75*
G02*
X159325000Y-133375000I0J100000D01*
G01*
X159325000Y-132125000D01*
G75*
G02*
X159425000Y-132025000I100000J0D01*
G01*
X159625000Y-132025000D01*
G75*
G02*
X159725000Y-132125000I0J-100000D01*
G01*
X159725000Y-133375000D01*
G75*
G02*
X159625000Y-133475000I-100000J0D01*
G01*
G37*
%TD.AperFunction*%
%TO.P,U1,4*%
%TO.N,GND*%
%TA.AperFunction,SMDPad,CuDef*%
G36*
G01*
X160275000Y-133475000D02*
X160075000Y-133475000D01*
G75*
G02*
X159975000Y-133375000I0J100000D01*
G01*
X159975000Y-132125000D01*
G75*
G02*
X160075000Y-132025000I100000J0D01*
G01*
X160275000Y-132025000D01*
G75*
G02*
X160375000Y-132125000I0J-100000D01*
G01*
X160375000Y-133375000D01*
G75*
G02*
X160275000Y-133475000I-100000J0D01*
G01*
G37*
%TD.AperFunction*%
%TO.P,U1,5*%
%TO.N,Net-(R8-Pad2)*%
%TA.AperFunction,SMDPad,CuDef*%
G36*
G01*
X160275000Y-129175000D02*
X160075000Y-129175000D01*
G75*
G02*
X159975000Y-129075000I0J100000D01*
G01*
X159975000Y-127825000D01*
G75*
G02*
X160075000Y-127725000I100000J0D01*
G01*
X160275000Y-127725000D01*
G75*
G02*
X160375000Y-127825000I0J-100000D01*
G01*
X160375000Y-129075000D01*
G75*
G02*
X160275000Y-129175000I-100000J0D01*
G01*
G37*
%TD.AperFunction*%
%TO.P,U1,6*%
%TO.N,+2V5*%
%TA.AperFunction,SMDPad,CuDef*%
G36*
G01*
X159625000Y-129175000D02*
X159425000Y-129175000D01*
G75*
G02*
X159325000Y-129075000I0J100000D01*
G01*
X159325000Y-127825000D01*
G75*
G02*
X159425000Y-127725000I100000J0D01*
G01*
X159625000Y-127725000D01*
G75*
G02*
X159725000Y-127825000I0J-100000D01*
G01*
X159725000Y-129075000D01*
G75*
G02*
X159625000Y-129175000I-100000J0D01*
G01*
G37*
%TD.AperFunction*%
%TO.P,U1,7*%
%TO.N,Net-(L1-Pad1)*%
%TA.AperFunction,SMDPad,CuDef*%
G36*
G01*
X158975000Y-129175000D02*
X158775000Y-129175000D01*
G75*
G02*
X158675000Y-129075000I0J100000D01*
G01*
X158675000Y-127825000D01*
G75*
G02*
X158775000Y-127725000I100000J0D01*
G01*
X158975000Y-127725000D01*
G75*
G02*
X159075000Y-127825000I0J-100000D01*
G01*
X159075000Y-129075000D01*
G75*
G02*
X158975000Y-129175000I-100000J0D01*
G01*
G37*
%TD.AperFunction*%
%TO.P,U1,8*%
%TO.N,N/C*%
%TA.AperFunction,SMDPad,CuDef*%
G36*
G01*
X158325000Y-129175000D02*
X158125000Y-129175000D01*
G75*
G02*
X158025000Y-129075000I0J100000D01*
G01*
X158025000Y-127825000D01*
G75*
G02*
X158125000Y-127725000I100000J0D01*
G01*
X158325000Y-127725000D01*
G75*
G02*
X158425000Y-127825000I0J-100000D01*
G01*
X158425000Y-129075000D01*
G75*
G02*
X158325000Y-129175000I-100000J0D01*
G01*
G37*
%TD.AperFunction*%
D11*
%TO.P,U1,9*%
%TO.N,GND*%
X159200000Y-130600000D03*
%TD*%
D12*
%TO.P,D2,2*%
%TO.N,Net-(C1-Pad1)*%
X150250000Y-125000000D03*
%TO.P,D2,1*%
%TO.N,VCC*%
X152350000Y-125000000D03*
%TD*%
D13*
%TO.P,D3,2*%
%TO.N,GND*%
X155750000Y-131100000D03*
%TO.P,D3,*%
%TO.N,*%
X153850000Y-131100000D03*
%TO.P,D3,1*%
%TO.N,VCC*%
X154800000Y-133100000D03*
%TD*%
D14*
%TO.P,C3,1*%
%TO.N,VCC*%
X170100000Y-120200000D03*
D15*
%TO.P,C3,2*%
%TO.N,GND*%
X175100000Y-120200000D03*
%TD*%
D16*
%TO.P,P1,1*%
%TO.N,GND*%
X165090000Y-124200000D03*
D17*
%TO.P,P1,2*%
%TO.N,/RX*%
X165090000Y-126740000D03*
%TO.P,P1,3*%
%TO.N,/TX*%
X165090000Y-129280000D03*
%TO.P,P1,4*%
%TO.N,+2V5*%
X165090000Y-131820000D03*
%TD*%
%TO.P,P2,4*%
%TO.N,/RST*%
X180330000Y-124200000D03*
%TO.P,P2,3*%
%TO.N,+2V5*%
X180330000Y-126740000D03*
%TO.P,P2,2*%
%TO.N,/CTS*%
X180330000Y-129280000D03*
D16*
%TO.P,P2,1*%
%TO.N,+2V5*%
X180330000Y-131820000D03*
%TD*%
%TO.P,C1,1*%
%TO.N,Net-(C1-Pad1)*%
%TA.AperFunction,SMDPad,CuDef*%
G36*
G01*
X149825000Y-122325000D02*
X149825000Y-123275000D01*
G75*
G02*
X149575000Y-123525000I-250000J0D01*
G01*
X148900000Y-123525000D01*
G75*
G02*
X148650000Y-123275000I0J250000D01*
G01*
X148650000Y-122325000D01*
G75*
G02*
X148900000Y-122075000I250000J0D01*
G01*
X149575000Y-122075000D01*
G75*
G02*
X149825000Y-122325000I0J-250000D01*
G01*
G37*
%TD.AperFunction*%
%TO.P,C1,2*%
%TO.N,/A*%
%TA.AperFunction,SMDPad,CuDef*%
G36*
G01*
X147750000Y-122325000D02*
X147750000Y-123275000D01*
G75*
G02*
X147500000Y-123525000I-250000J0D01*
G01*
X146825000Y-123525000D01*
G75*
G02*
X146575000Y-123275000I0J250000D01*
G01*
X146575000Y-122325000D01*
G75*
G02*
X146825000Y-122075000I250000J0D01*
G01*
X147500000Y-122075000D01*
G75*
G02*
X147750000Y-122325000I0J-250000D01*
G01*
G37*
%TD.AperFunction*%
%TD*%
%TO.P,C2,2*%
%TO.N,GND*%
%TA.AperFunction,SMDPad,CuDef*%
G36*
G01*
X162437500Y-124575000D02*
X161962500Y-124575000D01*
G75*
G02*
X161725000Y-124337500I0J237500D01*
G01*
X161725000Y-123737500D01*
G75*
G02*
X161962500Y-123500000I237500J0D01*
G01*
X162437500Y-123500000D01*
G75*
G02*
X162675000Y-123737500I0J-237500D01*
G01*
X162675000Y-124337500D01*
G75*
G02*
X162437500Y-124575000I-237500J0D01*
G01*
G37*
%TD.AperFunction*%
%TO.P,C2,1*%
%TO.N,/RX*%
%TA.AperFunction,SMDPad,CuDef*%
G36*
G01*
X162437500Y-126300000D02*
X161962500Y-126300000D01*
G75*
G02*
X161725000Y-126062500I0J237500D01*
G01*
X161725000Y-125462500D01*
G75*
G02*
X161962500Y-125225000I237500J0D01*
G01*
X162437500Y-125225000D01*
G75*
G02*
X162675000Y-125462500I0J-237500D01*
G01*
X162675000Y-126062500D01*
G75*
G02*
X162437500Y-126300000I-237500J0D01*
G01*
G37*
%TD.AperFunction*%
%TD*%
%TO.P,C4,1*%
%TO.N,VCC*%
%TA.AperFunction,SMDPad,CuDef*%
G36*
G01*
X156500000Y-134562500D02*
X156500000Y-135037500D01*
G75*
G02*
X156262500Y-135275000I-237500J0D01*
G01*
X155662500Y-135275000D01*
G75*
G02*
X155425000Y-135037500I0J237500D01*
G01*
X155425000Y-134562500D01*
G75*
G02*
X155662500Y-134325000I237500J0D01*
G01*
X156262500Y-134325000D01*
G75*
G02*
X156500000Y-134562500I0J-237500D01*
G01*
G37*
%TD.AperFunction*%
%TO.P,C4,2*%
%TO.N,GND*%
%TA.AperFunction,SMDPad,CuDef*%
G36*
G01*
X154775000Y-134562500D02*
X154775000Y-135037500D01*
G75*
G02*
X154537500Y-135275000I-237500J0D01*
G01*
X153937500Y-135275000D01*
G75*
G02*
X153700000Y-135037500I0J237500D01*
G01*
X153700000Y-134562500D01*
G75*
G02*
X153937500Y-134325000I237500J0D01*
G01*
X154537500Y-134325000D01*
G75*
G02*
X154775000Y-134562500I0J-237500D01*
G01*
G37*
%TD.AperFunction*%
%TD*%
%TO.P,C5,2*%
%TO.N,GND*%
%TA.AperFunction,SMDPad,CuDef*%
G36*
G01*
X155125000Y-129537500D02*
X155125000Y-129062500D01*
G75*
G02*
X155362500Y-128825000I237500J0D01*
G01*
X155962500Y-128825000D01*
G75*
G02*
X156200000Y-129062500I0J-237500D01*
G01*
X156200000Y-129537500D01*
G75*
G02*
X155962500Y-129775000I-237500J0D01*
G01*
X155362500Y-129775000D01*
G75*
G02*
X155125000Y-129537500I0J237500D01*
G01*
G37*
%TD.AperFunction*%
%TO.P,C5,1*%
%TO.N,VCC*%
%TA.AperFunction,SMDPad,CuDef*%
G36*
G01*
X153400000Y-129537500D02*
X153400000Y-129062500D01*
G75*
G02*
X153637500Y-128825000I237500J0D01*
G01*
X154237500Y-128825000D01*
G75*
G02*
X154475000Y-129062500I0J-237500D01*
G01*
X154475000Y-129537500D01*
G75*
G02*
X154237500Y-129775000I-237500J0D01*
G01*
X153637500Y-129775000D01*
G75*
G02*
X153400000Y-129537500I0J237500D01*
G01*
G37*
%TD.AperFunction*%
%TD*%
%TO.P,C6,1*%
%TO.N,+2V5*%
%TA.AperFunction,SMDPad,CuDef*%
G36*
G01*
X162437500Y-133300000D02*
X161962500Y-133300000D01*
G75*
G02*
X161725000Y-133062500I0J237500D01*
G01*
X161725000Y-132462500D01*
G75*
G02*
X161962500Y-132225000I237500J0D01*
G01*
X162437500Y-132225000D01*
G75*
G02*
X162675000Y-132462500I0J-237500D01*
G01*
X162675000Y-133062500D01*
G75*
G02*
X162437500Y-133300000I-237500J0D01*
G01*
G37*
%TD.AperFunction*%
%TO.P,C6,2*%
%TO.N,GND*%
%TA.AperFunction,SMDPad,CuDef*%
G36*
G01*
X162437500Y-131575000D02*
X161962500Y-131575000D01*
G75*
G02*
X161725000Y-131337500I0J237500D01*
G01*
X161725000Y-130737500D01*
G75*
G02*
X161962500Y-130500000I237500J0D01*
G01*
X162437500Y-130500000D01*
G75*
G02*
X162675000Y-130737500I0J-237500D01*
G01*
X162675000Y-131337500D01*
G75*
G02*
X162437500Y-131575000I-237500J0D01*
G01*
G37*
%TD.AperFunction*%
%TD*%
D10*
%TO.P,D1,1*%
%TO.N,Net-(C1-Pad1)*%
X147800000Y-124450000D03*
%TO.P,D1,2*%
%TO.N,GND*%
X147800000Y-126550000D03*
%TD*%
D12*
%TO.P,D4,1*%
%TO.N,Net-(D4-Pad1)*%
X161250000Y-136600000D03*
%TO.P,D4,2*%
%TO.N,Net-(D4-Pad2)*%
X163350000Y-136600000D03*
%TD*%
%TO.P,J1,1*%
%TO.N,GND*%
%TA.AperFunction,ComponentPad*%
G36*
G01*
X146050000Y-132900000D02*
X140950000Y-132900000D01*
G75*
G02*
X140500000Y-132450000I0J450000D01*
G01*
X140500000Y-131550000D01*
G75*
G02*
X140950000Y-131100000I450000J0D01*
G01*
X146050000Y-131100000D01*
G75*
G02*
X146500000Y-131550000I0J-450000D01*
G01*
X146500000Y-132450000D01*
G75*
G02*
X146050000Y-132900000I-450000J0D01*
G01*
G37*
%TD.AperFunction*%
%TO.P,J1,2*%
%TO.N,/I2*%
%TA.AperFunction,ComponentPad*%
G36*
G01*
X146050000Y-127820000D02*
X140950000Y-127820000D01*
G75*
G02*
X140500000Y-127370000I0J450000D01*
G01*
X140500000Y-126470000D01*
G75*
G02*
X140950000Y-126020000I450000J0D01*
G01*
X146050000Y-126020000D01*
G75*
G02*
X146500000Y-126470000I0J-450000D01*
G01*
X146500000Y-127370000D01*
G75*
G02*
X146050000Y-127820000I-450000J0D01*
G01*
G37*
%TD.AperFunction*%
%TO.P,J1,3*%
%TO.N,/A*%
%TA.AperFunction,ComponentPad*%
G36*
G01*
X146050000Y-122740000D02*
X140950000Y-122740000D01*
G75*
G02*
X140500000Y-122290000I0J450000D01*
G01*
X140500000Y-121390000D01*
G75*
G02*
X140950000Y-120940000I450000J0D01*
G01*
X146050000Y-120940000D01*
G75*
G02*
X146500000Y-121390000I0J-450000D01*
G01*
X146500000Y-122290000D01*
G75*
G02*
X146050000Y-122740000I-450000J0D01*
G01*
G37*
%TD.AperFunction*%
%TD*%
D16*
%TO.P,J2,1*%
%TO.N,+2V5*%
X166100000Y-136600000D03*
D17*
%TO.P,J2,2*%
%TO.N,GND*%
X168640000Y-136600000D03*
%TO.P,J2,3*%
%TO.N,/RX*%
X171180000Y-136600000D03*
%TO.P,J2,4*%
%TO.N,/TX*%
X173720000Y-136600000D03*
%TO.P,J2,5*%
%TO.N,/RST*%
X176260000Y-136600000D03*
%TO.P,J2,6*%
%TO.N,/CTS*%
X178800000Y-136600000D03*
%TD*%
D18*
%TO.P,L1,1*%
%TO.N,Net-(L1-Pad1)*%
X156400000Y-125200000D03*
%TO.P,L1,2*%
%TO.N,+2V5*%
X158600000Y-125200000D03*
%TD*%
D19*
%TO.P,Q1,1*%
%TO.N,/I2*%
X149400000Y-128150000D03*
%TO.P,Q1,2*%
%TO.N,GND*%
X149400000Y-130050000D03*
%TO.P,Q1,3*%
%TO.N,/RX*%
X151400000Y-129100000D03*
%TD*%
%TO.P,R1,2*%
%TO.N,/RX*%
%TA.AperFunction,SMDPad,CuDef*%
G36*
G01*
X162437500Y-127975000D02*
X161962500Y-127975000D01*
G75*
G02*
X161725000Y-127737500I0J237500D01*
G01*
X161725000Y-127237500D01*
G75*
G02*
X161962500Y-127000000I237500J0D01*
G01*
X162437500Y-127000000D01*
G75*
G02*
X162675000Y-127237500I0J-237500D01*
G01*
X162675000Y-127737500D01*
G75*
G02*
X162437500Y-127975000I-237500J0D01*
G01*
G37*
%TD.AperFunction*%
%TO.P,R1,1*%
%TO.N,+2V5*%
%TA.AperFunction,SMDPad,CuDef*%
G36*
G01*
X162437500Y-129800000D02*
X161962500Y-129800000D01*
G75*
G02*
X161725000Y-129562500I0J237500D01*
G01*
X161725000Y-129062500D01*
G75*
G02*
X161962500Y-128825000I237500J0D01*
G01*
X162437500Y-128825000D01*
G75*
G02*
X162675000Y-129062500I0J-237500D01*
G01*
X162675000Y-129562500D01*
G75*
G02*
X162437500Y-129800000I-237500J0D01*
G01*
G37*
%TD.AperFunction*%
%TD*%
%TO.P,R3,1*%
%TO.N,/I2*%
%TA.AperFunction,SMDPad,CuDef*%
G36*
G01*
X147262500Y-128200000D02*
X147737500Y-128200000D01*
G75*
G02*
X147975000Y-128437500I0J-237500D01*
G01*
X147975000Y-128937500D01*
G75*
G02*
X147737500Y-129175000I-237500J0D01*
G01*
X147262500Y-129175000D01*
G75*
G02*
X147025000Y-128937500I0J237500D01*
G01*
X147025000Y-128437500D01*
G75*
G02*
X147262500Y-128200000I237500J0D01*
G01*
G37*
%TD.AperFunction*%
%TO.P,R3,2*%
%TO.N,GND*%
%TA.AperFunction,SMDPad,CuDef*%
G36*
G01*
X147262500Y-130025000D02*
X147737500Y-130025000D01*
G75*
G02*
X147975000Y-130262500I0J-237500D01*
G01*
X147975000Y-130762500D01*
G75*
G02*
X147737500Y-131000000I-237500J0D01*
G01*
X147262500Y-131000000D01*
G75*
G02*
X147025000Y-130762500I0J237500D01*
G01*
X147025000Y-130262500D01*
G75*
G02*
X147262500Y-130025000I237500J0D01*
G01*
G37*
%TD.AperFunction*%
%TD*%
%TO.P,R5,1*%
%TO.N,GND*%
%TA.AperFunction,SMDPad,CuDef*%
G36*
G01*
X157200000Y-136737500D02*
X157200000Y-136262500D01*
G75*
G02*
X157437500Y-136025000I237500J0D01*
G01*
X157937500Y-136025000D01*
G75*
G02*
X158175000Y-136262500I0J-237500D01*
G01*
X158175000Y-136737500D01*
G75*
G02*
X157937500Y-136975000I-237500J0D01*
G01*
X157437500Y-136975000D01*
G75*
G02*
X157200000Y-136737500I0J237500D01*
G01*
G37*
%TD.AperFunction*%
%TO.P,R5,2*%
%TO.N,Net-(D4-Pad1)*%
%TA.AperFunction,SMDPad,CuDef*%
G36*
G01*
X159025000Y-136737500D02*
X159025000Y-136262500D01*
G75*
G02*
X159262500Y-136025000I237500J0D01*
G01*
X159762500Y-136025000D01*
G75*
G02*
X160000000Y-136262500I0J-237500D01*
G01*
X160000000Y-136737500D01*
G75*
G02*
X159762500Y-136975000I-237500J0D01*
G01*
X159262500Y-136975000D01*
G75*
G02*
X159025000Y-136737500I0J237500D01*
G01*
G37*
%TD.AperFunction*%
%TD*%
%TO.P,R7,1*%
%TO.N,+2V5*%
%TA.AperFunction,SMDPad,CuDef*%
G36*
G01*
X160900000Y-134837500D02*
X160900000Y-134362500D01*
G75*
G02*
X161137500Y-134125000I237500J0D01*
G01*
X161637500Y-134125000D01*
G75*
G02*
X161875000Y-134362500I0J-237500D01*
G01*
X161875000Y-134837500D01*
G75*
G02*
X161637500Y-135075000I-237500J0D01*
G01*
X161137500Y-135075000D01*
G75*
G02*
X160900000Y-134837500I0J237500D01*
G01*
G37*
%TD.AperFunction*%
%TO.P,R7,2*%
%TO.N,Net-(D4-Pad2)*%
%TA.AperFunction,SMDPad,CuDef*%
G36*
G01*
X162725000Y-134837500D02*
X162725000Y-134362500D01*
G75*
G02*
X162962500Y-134125000I237500J0D01*
G01*
X163462500Y-134125000D01*
G75*
G02*
X163700000Y-134362500I0J-237500D01*
G01*
X163700000Y-134837500D01*
G75*
G02*
X163462500Y-135075000I-237500J0D01*
G01*
X162962500Y-135075000D01*
G75*
G02*
X162725000Y-134837500I0J237500D01*
G01*
G37*
%TD.AperFunction*%
%TD*%
%TO.P,R8,1*%
%TO.N,+2V5*%
%TA.AperFunction,SMDPad,CuDef*%
G36*
G01*
X156100000Y-122537500D02*
X156100000Y-122062500D01*
G75*
G02*
X156337500Y-121825000I237500J0D01*
G01*
X156837500Y-121825000D01*
G75*
G02*
X157075000Y-122062500I0J-237500D01*
G01*
X157075000Y-122537500D01*
G75*
G02*
X156837500Y-122775000I-237500J0D01*
G01*
X156337500Y-122775000D01*
G75*
G02*
X156100000Y-122537500I0J237500D01*
G01*
G37*
%TD.AperFunction*%
%TO.P,R8,2*%
%TO.N,Net-(R8-Pad2)*%
%TA.AperFunction,SMDPad,CuDef*%
G36*
G01*
X157925000Y-122537500D02*
X157925000Y-122062500D01*
G75*
G02*
X158162500Y-121825000I237500J0D01*
G01*
X158662500Y-121825000D01*
G75*
G02*
X158900000Y-122062500I0J-237500D01*
G01*
X158900000Y-122537500D01*
G75*
G02*
X158662500Y-122775000I-237500J0D01*
G01*
X158162500Y-122775000D01*
G75*
G02*
X157925000Y-122537500I0J237500D01*
G01*
G37*
%TD.AperFunction*%
%TD*%
%TO.P,R9,2*%
%TO.N,GND*%
%TA.AperFunction,SMDPad,CuDef*%
G36*
G01*
X161725000Y-122537500D02*
X161725000Y-122062500D01*
G75*
G02*
X161962500Y-121825000I237500J0D01*
G01*
X162462500Y-121825000D01*
G75*
G02*
X162700000Y-122062500I0J-237500D01*
G01*
X162700000Y-122537500D01*
G75*
G02*
X162462500Y-122775000I-237500J0D01*
G01*
X161962500Y-122775000D01*
G75*
G02*
X161725000Y-122537500I0J237500D01*
G01*
G37*
%TD.AperFunction*%
%TO.P,R9,1*%
%TO.N,Net-(R8-Pad2)*%
%TA.AperFunction,SMDPad,CuDef*%
G36*
G01*
X159900000Y-122537500D02*
X159900000Y-122062500D01*
G75*
G02*
X160137500Y-121825000I237500J0D01*
G01*
X160637500Y-121825000D01*
G75*
G02*
X160875000Y-122062500I0J-237500D01*
G01*
X160875000Y-122537500D01*
G75*
G02*
X160637500Y-122775000I-237500J0D01*
G01*
X160137500Y-122775000D01*
G75*
G02*
X159900000Y-122537500I0J237500D01*
G01*
G37*
%TD.AperFunction*%
%TD*%
D14*
%TO.P,C7,1*%
%TO.N,VCC*%
X170100000Y-133700000D03*
D15*
%TO.P,C7,2*%
%TO.N,GND*%
X175100000Y-133700000D03*
%TD*%
D12*
%TO.P,D5,1*%
%TO.N,VCC*%
X157450000Y-134750000D03*
%TO.P,D5,2*%
%TO.N,Net-(D4-Pad1)*%
X159550000Y-134750000D03*
%TD*%
D20*
%TO.P,U2,1*%
%TO.N,/RST*%
X182650000Y-135050000D03*
%TO.P,U2,2*%
%TO.N,GND*%
X182650000Y-136000000D03*
%TO.P,U2,3*%
%TO.N,Net-(D6-Pad2)*%
X182650000Y-136950000D03*
%TO.P,U2,4*%
%TO.N,/TX*%
X184850000Y-136950000D03*
%TO.P,U2,5*%
%TO.N,+2V5*%
X184850000Y-135050000D03*
%TD*%
D19*
%TO.P,D7,2*%
%TO.N,Net-(D7-Pad2)*%
X150000000Y-131650000D03*
%TO.P,D7,*%
%TO.N,*%
X150000000Y-133550000D03*
%TO.P,D7,1*%
%TO.N,VCC*%
X152000000Y-132600000D03*
%TD*%
%TO.P,R2,1*%
%TO.N,Net-(D7-Pad2)*%
%TA.AperFunction,SMDPad,CuDef*%
G36*
G01*
X154600000Y-138337500D02*
X154600000Y-137862500D01*
G75*
G02*
X154837500Y-137625000I237500J0D01*
G01*
X155337500Y-137625000D01*
G75*
G02*
X155575000Y-137862500I0J-237500D01*
G01*
X155575000Y-138337500D01*
G75*
G02*
X155337500Y-138575000I-237500J0D01*
G01*
X154837500Y-138575000D01*
G75*
G02*
X154600000Y-138337500I0J237500D01*
G01*
G37*
%TD.AperFunction*%
%TO.P,R2,2*%
%TO.N,Net-(D6-Pad2)*%
%TA.AperFunction,SMDPad,CuDef*%
G36*
G01*
X156425000Y-138337500D02*
X156425000Y-137862500D01*
G75*
G02*
X156662500Y-137625000I237500J0D01*
G01*
X157162500Y-137625000D01*
G75*
G02*
X157400000Y-137862500I0J-237500D01*
G01*
X157400000Y-138337500D01*
G75*
G02*
X157162500Y-138575000I-237500J0D01*
G01*
X156662500Y-138575000D01*
G75*
G02*
X156425000Y-138337500I0J237500D01*
G01*
G37*
%TD.AperFunction*%
%TD*%
%TO.P,R4,2*%
%TO.N,GND*%
%TA.AperFunction,SMDPad,CuDef*%
G36*
G01*
X181237500Y-136375000D02*
X180762500Y-136375000D01*
G75*
G02*
X180525000Y-136137500I0J237500D01*
G01*
X180525000Y-135637500D01*
G75*
G02*
X180762500Y-135400000I237500J0D01*
G01*
X181237500Y-135400000D01*
G75*
G02*
X181475000Y-135637500I0J-237500D01*
G01*
X181475000Y-136137500D01*
G75*
G02*
X181237500Y-136375000I-237500J0D01*
G01*
G37*
%TD.AperFunction*%
%TO.P,R4,1*%
%TO.N,Net-(D6-Pad2)*%
%TA.AperFunction,SMDPad,CuDef*%
G36*
G01*
X181237500Y-138200000D02*
X180762500Y-138200000D01*
G75*
G02*
X180525000Y-137962500I0J237500D01*
G01*
X180525000Y-137462500D01*
G75*
G02*
X180762500Y-137225000I237500J0D01*
G01*
X181237500Y-137225000D01*
G75*
G02*
X181475000Y-137462500I0J-237500D01*
G01*
X181475000Y-137962500D01*
G75*
G02*
X181237500Y-138200000I-237500J0D01*
G01*
G37*
%TD.AperFunction*%
%TD*%
D21*
%TO.N,GND*%
X160800000Y-130600000D03*
%TO.N,VCC*%
X153800000Y-127800000D03*
%TO.N,/TX*%
X184000000Y-138100000D03*
%TD*%
D22*
%TO.N,/A*%
X146402500Y-122040000D02*
X147162500Y-122800000D01*
X143400000Y-122040000D02*
X146402500Y-122040000D01*
%TO.N,Net-(C1-Pad1)*%
X149250000Y-122787500D02*
X149237500Y-122800000D01*
X147800000Y-124237500D02*
X149237500Y-122800000D01*
X149237500Y-123987500D02*
X150250000Y-125000000D01*
X149237500Y-122800000D02*
X149237500Y-123987500D01*
%TO.N,/RX*%
X163914999Y-127915001D02*
X165090000Y-126740000D01*
X163487498Y-127487500D02*
X163914999Y-127915001D01*
X162200000Y-127487500D02*
X163487498Y-127487500D01*
X162200000Y-125762500D02*
X162200000Y-127487500D01*
X166265001Y-125564999D02*
X165090000Y-126740000D01*
X166265001Y-123089999D02*
X166265001Y-125564999D01*
X164224982Y-121049980D02*
X166265001Y-123089999D01*
X158950020Y-121049980D02*
X164224982Y-121049980D01*
X156554510Y-121049980D02*
X158950020Y-121049980D01*
X151400000Y-129700000D02*
X151400000Y-124900000D01*
X163914999Y-129844001D02*
X163914999Y-127915001D01*
X164525999Y-130455001D02*
X163914999Y-129844001D01*
X171180000Y-136600000D02*
X172029999Y-135750001D01*
X168155001Y-130455001D02*
X170155001Y-130455001D01*
X168155001Y-130455001D02*
X164525999Y-130455001D01*
X172029999Y-132329999D02*
X172029999Y-133470001D01*
X170155001Y-130455001D02*
X172029999Y-132329999D01*
X172029999Y-135750001D02*
X172029999Y-133470001D01*
X155190018Y-121049980D02*
X157450020Y-121049980D01*
X151400000Y-129700000D02*
X151400000Y-124839998D01*
X151400000Y-124839998D02*
X155190018Y-121049980D01*
X157450020Y-121049980D02*
X158950020Y-121049980D01*
X157049980Y-121049980D02*
X157450020Y-121049980D01*
%TO.N,GND*%
X155750000Y-129387500D02*
X155662500Y-129300000D01*
X155750000Y-131100000D02*
X155750000Y-129387500D01*
X154237500Y-136650000D02*
X154187500Y-136700000D01*
X154237500Y-134800000D02*
X154237500Y-136650000D01*
X158225000Y-131575000D02*
X159200000Y-130600000D01*
X158225000Y-132750000D02*
X158225000Y-131575000D01*
X160175000Y-131575000D02*
X159200000Y-130600000D01*
X160175000Y-132750000D02*
X160175000Y-131575000D01*
X159962500Y-131037500D02*
X159850000Y-131150000D01*
X158700000Y-131100000D02*
X159200000Y-130600000D01*
X162212500Y-124025000D02*
X162200000Y-124037500D01*
X162212500Y-122300000D02*
X162212500Y-124025000D01*
X164927500Y-124037500D02*
X165090000Y-124200000D01*
X162200000Y-124037500D02*
X164927500Y-124037500D01*
X145812500Y-132200000D02*
X147500000Y-130512500D01*
X143400000Y-132200000D02*
X145812500Y-132200000D01*
X159200000Y-130600000D02*
X160800000Y-130600000D01*
X175100000Y-120200000D02*
X175100000Y-123400000D01*
%TO.N,+2V5*%
X161387500Y-133575000D02*
X162200000Y-132762500D01*
X161387500Y-134600000D02*
X161387500Y-133575000D01*
X164147500Y-132762500D02*
X165090000Y-131820000D01*
X162200000Y-132762500D02*
X164147500Y-132762500D01*
X165090000Y-135590000D02*
X166100000Y-136600000D01*
X165090000Y-131820000D02*
X165090000Y-135590000D01*
X159525000Y-126125000D02*
X159525000Y-128450000D01*
X158600000Y-125200000D02*
X159525000Y-126125000D01*
X157129490Y-122300000D02*
X156587500Y-122300000D01*
X158600000Y-123770510D02*
X157129490Y-122300000D01*
X158600000Y-125200000D02*
X158600000Y-123770510D01*
X161399990Y-128512490D02*
X162200000Y-129312500D01*
X161399990Y-121829500D02*
X161399990Y-128512490D01*
X161070480Y-121499990D02*
X161399990Y-121829500D01*
X157387510Y-121499990D02*
X161070480Y-121499990D01*
X156587500Y-122300000D02*
X157387510Y-121499990D01*
X162582500Y-129312500D02*
X165090000Y-131820000D01*
X162200000Y-129312500D02*
X162582500Y-129312500D01*
%TO.N,/I2*%
X144967500Y-128687500D02*
X143400000Y-127120000D01*
X147500000Y-128687500D02*
X144967500Y-128687500D01*
%TO.N,/TX*%
X172870001Y-135750001D02*
X172870001Y-131170001D01*
X173720000Y-136600000D02*
X172870001Y-135750001D01*
X170980000Y-129280000D02*
X165090000Y-129280000D01*
X172870001Y-131170001D02*
X170980000Y-129280000D01*
%TO.N,/RST*%
X176260000Y-136600000D02*
X176900000Y-135960000D01*
X176900000Y-127630000D02*
X180330000Y-124200000D01*
X176900000Y-135960000D02*
X176900000Y-127630000D01*
%TO.N,/CTS*%
X180330000Y-129280000D02*
X179220000Y-129280000D01*
X179220000Y-129280000D02*
X178500000Y-130000000D01*
X178500000Y-136300000D02*
X178800000Y-136600000D01*
X178500000Y-130000000D02*
X178500000Y-136300000D01*
%TO.N,VCC*%
X158750010Y-133737490D02*
X157687500Y-134800000D01*
X158750010Y-133349990D02*
X158750010Y-133737490D01*
X158875000Y-133225000D02*
X158750010Y-133349990D01*
X158875000Y-132750000D02*
X158875000Y-133225000D01*
X154800000Y-133637500D02*
X155962500Y-134800000D01*
X154800000Y-133100000D02*
X154800000Y-133637500D01*
X154575001Y-132875001D02*
X154800000Y-133100000D01*
X154575001Y-129937501D02*
X154575001Y-132875001D01*
X153937500Y-129300000D02*
X154575001Y-129937501D01*
X155962500Y-134800000D02*
X157687500Y-134800000D01*
X153800000Y-129162500D02*
X153937500Y-129300000D01*
X153800000Y-127800000D02*
X153800000Y-129162500D01*
X153500000Y-127500000D02*
X153800000Y-127800000D01*
X152350000Y-126350000D02*
X153800000Y-127800000D01*
X152350000Y-125000000D02*
X152350000Y-126350000D01*
%TO.N,Net-(D4-Pad1)*%
X159512500Y-136700000D02*
X159512500Y-134800000D01*
X159525000Y-134787500D02*
X159512500Y-134800000D01*
X159525000Y-132750000D02*
X159525000Y-134787500D01*
X159612500Y-136600000D02*
X159512500Y-136700000D01*
X161250000Y-136600000D02*
X159612500Y-136600000D01*
%TO.N,Net-(D4-Pad2)*%
X163212500Y-136462500D02*
X163350000Y-136600000D01*
X163212500Y-134600000D02*
X163212500Y-136462500D01*
%TO.N,Net-(L1-Pad1)*%
X156400000Y-126900000D02*
X156400000Y-125200000D01*
X156475001Y-126975001D02*
X156400000Y-126900000D01*
X158125001Y-126975001D02*
X156475001Y-126975001D01*
X158875000Y-127725000D02*
X158125001Y-126975001D01*
X158875000Y-128450000D02*
X158875000Y-127725000D01*
%TO.N,GND*%
X156012500Y-136700000D02*
X157687500Y-136700000D01*
X181112500Y-136000000D02*
X181000000Y-135887500D01*
X182400000Y-136000000D02*
X181112500Y-136000000D01*
X147962500Y-130050000D02*
X147500000Y-130512500D01*
X149400000Y-130050000D02*
X147962500Y-130050000D01*
X182400000Y-136000000D02*
X183180000Y-136000000D01*
X180575001Y-134275001D02*
X180300000Y-134000000D01*
X183315003Y-134275001D02*
X180575001Y-134275001D01*
X183505001Y-135924999D02*
X183505001Y-134464999D01*
X183505001Y-134464999D02*
X183315003Y-134275001D01*
X183430000Y-136000000D02*
X183505001Y-135924999D01*
X182650000Y-136000000D02*
X183430000Y-136000000D01*
%TO.N,+2V5*%
X181370000Y-131820000D02*
X180330000Y-131820000D01*
X184600000Y-132800000D02*
X183250000Y-131450000D01*
X184600000Y-135050000D02*
X184600000Y-132800000D01*
X181740000Y-131450000D02*
X181370000Y-131820000D01*
X183250000Y-131450000D02*
X181740000Y-131450000D01*
%TO.N,/I2*%
X148862500Y-128687500D02*
X149400000Y-128150000D01*
X147500000Y-128687500D02*
X148862500Y-128687500D01*
%TO.N,/TX*%
X184000000Y-137550000D02*
X184600000Y-136950000D01*
X184000000Y-138100000D02*
X184000000Y-137550000D01*
%TO.N,/RST*%
X181400000Y-135050000D02*
X182400000Y-135050000D01*
X179975001Y-135629489D02*
X180554490Y-135050000D01*
X180554490Y-135050000D02*
X181400000Y-135050000D01*
X179975001Y-137164001D02*
X179975001Y-135629489D01*
X179364001Y-137775001D02*
X179975001Y-137164001D01*
X177435001Y-137775001D02*
X179364001Y-137775001D01*
X176260000Y-136600000D02*
X177435001Y-137775001D01*
%TO.N,VCC*%
X152500000Y-133100000D02*
X152000000Y-132600000D01*
X154800000Y-133100000D02*
X152500000Y-133100000D01*
%TO.N,Net-(R8-Pad2)*%
X160175000Y-122512500D02*
X160387500Y-122300000D01*
X160175000Y-128450000D02*
X160175000Y-122512500D01*
X158412500Y-122300000D02*
X160387500Y-122300000D01*
%TO.N,Net-(D6-Pad2)*%
X181762500Y-136950000D02*
X181000000Y-137712500D01*
X182400000Y-136950000D02*
X181762500Y-136950000D01*
X180487489Y-138225011D02*
X181000000Y-137712500D01*
X177248601Y-138225011D02*
X180487489Y-138225011D01*
X177123590Y-138100000D02*
X177248601Y-138225011D01*
X156912500Y-138100000D02*
X177123590Y-138100000D01*
X182400000Y-136950000D02*
X183180000Y-136950000D01*
X183430000Y-136950000D02*
X183994999Y-136385001D01*
X182650000Y-136950000D02*
X183430000Y-136950000D01*
X183994999Y-134269999D02*
X183487500Y-133762500D01*
X183994999Y-136385001D02*
X183994999Y-134269999D01*
X183487500Y-133762500D02*
X183375000Y-133650000D01*
X183744999Y-134019999D02*
X183487500Y-133762500D01*
%TO.N,Net-(D7-Pad2)*%
X154951090Y-138100000D02*
X155087500Y-138100000D01*
X150775001Y-133923911D02*
X154951090Y-138100000D01*
X150775001Y-132425001D02*
X150775001Y-133923911D01*
X150000000Y-131650000D02*
X150775001Y-132425001D01*
%TD*%
D23*
%TO.N,GND*%
X166446967Y-122553033D02*
X166458332Y-122562360D01*
X166471299Y-122569291D01*
X166485368Y-122573559D01*
X166500000Y-122575000D01*
X183605362Y-122575000D01*
X185500000Y-124118779D01*
X185500001Y-134477323D01*
X185485747Y-134469704D01*
X185433909Y-134453980D01*
X185380000Y-134448670D01*
X185000000Y-134448670D01*
X185000000Y-132819635D01*
X185001934Y-132799999D01*
X185000000Y-132780363D01*
X185000000Y-132780353D01*
X184994212Y-132721586D01*
X184971340Y-132646186D01*
X184934197Y-132576697D01*
X184907571Y-132544253D01*
X184896735Y-132531049D01*
X184896733Y-132531047D01*
X184884211Y-132515789D01*
X184868953Y-132503267D01*
X183751330Y-131385645D01*
X183751330Y-131150000D01*
X183746020Y-131096091D01*
X183730296Y-131044253D01*
X183704760Y-130996479D01*
X183670395Y-130954605D01*
X183628521Y-130920240D01*
X183580747Y-130894704D01*
X183528909Y-130878980D01*
X183475000Y-130873670D01*
X183025000Y-130873670D01*
X182971091Y-130878980D01*
X182919253Y-130894704D01*
X182871479Y-130920240D01*
X182829605Y-130954605D01*
X182795240Y-130996479D01*
X182769704Y-131044253D01*
X182767961Y-131050000D01*
X181759646Y-131050000D01*
X181739999Y-131048065D01*
X181720353Y-131050000D01*
X181661586Y-131055788D01*
X181586186Y-131078660D01*
X181516697Y-131115803D01*
X181471049Y-131153265D01*
X181471047Y-131153267D01*
X181456330Y-131165345D01*
X181456330Y-130970000D01*
X181451020Y-130916091D01*
X181435296Y-130864253D01*
X181409760Y-130816479D01*
X181375395Y-130774605D01*
X181333521Y-130740240D01*
X181285747Y-130714704D01*
X181233909Y-130698980D01*
X181180000Y-130693670D01*
X179480000Y-130693670D01*
X179426091Y-130698980D01*
X179374253Y-130714704D01*
X179326479Y-130740240D01*
X179284605Y-130774605D01*
X179250240Y-130816479D01*
X179224704Y-130864253D01*
X179208980Y-130916091D01*
X179203670Y-130970000D01*
X179203670Y-132670000D01*
X179208980Y-132723909D01*
X179224704Y-132775747D01*
X179250240Y-132823521D01*
X179284605Y-132865395D01*
X179326479Y-132899760D01*
X179374253Y-132925296D01*
X179426091Y-132941020D01*
X179480000Y-132946330D01*
X181180000Y-132946330D01*
X181233909Y-132941020D01*
X181285747Y-132925296D01*
X181333521Y-132899760D01*
X181375395Y-132865395D01*
X181409760Y-132823521D01*
X181435296Y-132775747D01*
X181451020Y-132723909D01*
X181456330Y-132670000D01*
X181456330Y-132211811D01*
X181523814Y-132191340D01*
X181593303Y-132154197D01*
X181654211Y-132104211D01*
X181666737Y-132088948D01*
X181905686Y-131850000D01*
X182767961Y-131850000D01*
X182769704Y-131855747D01*
X182795240Y-131903521D01*
X182829605Y-131945395D01*
X182871479Y-131979760D01*
X182919253Y-132005296D01*
X182971091Y-132021020D01*
X183025000Y-132026330D01*
X183260645Y-132026330D01*
X184200001Y-132965687D01*
X184200001Y-133909315D01*
X183756450Y-133465765D01*
X183751330Y-133460645D01*
X183751330Y-133250000D01*
X183746020Y-133196091D01*
X183730296Y-133144253D01*
X183704760Y-133096479D01*
X183670395Y-133054605D01*
X183628521Y-133020240D01*
X183580747Y-132994704D01*
X183528909Y-132978980D01*
X183475000Y-132973670D01*
X183025000Y-132973670D01*
X182971091Y-132978980D01*
X182919253Y-132994704D01*
X182871479Y-133020240D01*
X182829605Y-133054605D01*
X182795240Y-133096479D01*
X182769704Y-133144253D01*
X182753980Y-133196091D01*
X182748670Y-133250000D01*
X182748670Y-133850000D01*
X182753980Y-133903909D01*
X182769704Y-133955747D01*
X182795240Y-134003521D01*
X182829605Y-134045395D01*
X182871479Y-134079760D01*
X182919253Y-134105296D01*
X182971091Y-134121020D01*
X183025000Y-134126330D01*
X183285645Y-134126330D01*
X183595000Y-134435686D01*
X183594999Y-136219315D01*
X183452727Y-136361587D01*
X183456331Y-136325000D01*
X183455000Y-136093750D01*
X183386250Y-136025000D01*
X182675000Y-136025000D01*
X182675000Y-136045000D01*
X182625000Y-136045000D01*
X182625000Y-136025000D01*
X181913750Y-136025000D01*
X181845000Y-136093750D01*
X181843669Y-136325000D01*
X181848979Y-136378910D01*
X181864703Y-136430747D01*
X181888357Y-136475001D01*
X181864704Y-136519253D01*
X181855378Y-136550000D01*
X181782147Y-136550000D01*
X181762500Y-136548065D01*
X181684086Y-136555788D01*
X181681820Y-136556475D01*
X181704761Y-136528521D01*
X181730297Y-136480747D01*
X181746021Y-136428910D01*
X181751331Y-136375000D01*
X181750000Y-135981250D01*
X181681250Y-135912500D01*
X181025000Y-135912500D01*
X181025000Y-136581250D01*
X181093750Y-136650000D01*
X181475000Y-136651331D01*
X181498757Y-136648991D01*
X181493549Y-136653265D01*
X181493547Y-136653267D01*
X181478289Y-136665789D01*
X181465767Y-136681047D01*
X181198144Y-136948670D01*
X180762500Y-136948670D01*
X180662257Y-136958543D01*
X180565866Y-136987783D01*
X180477031Y-137035266D01*
X180399167Y-137099167D01*
X180375001Y-137128614D01*
X180375001Y-136606644D01*
X180419253Y-136630297D01*
X180471090Y-136646021D01*
X180525000Y-136651331D01*
X180906250Y-136650000D01*
X180975000Y-136581250D01*
X180975000Y-135912500D01*
X180955000Y-135912500D01*
X180955000Y-135862500D01*
X180975000Y-135862500D01*
X180975000Y-135842500D01*
X181025000Y-135842500D01*
X181025000Y-135862500D01*
X181681250Y-135862500D01*
X181750000Y-135793750D01*
X181751162Y-135450000D01*
X181855378Y-135450000D01*
X181864704Y-135480747D01*
X181888357Y-135524999D01*
X181864703Y-135569253D01*
X181848979Y-135621090D01*
X181843669Y-135675000D01*
X181845000Y-135906250D01*
X181913750Y-135975000D01*
X182625000Y-135975000D01*
X182625000Y-135955000D01*
X182675000Y-135955000D01*
X182675000Y-135975000D01*
X183386250Y-135975000D01*
X183455000Y-135906250D01*
X183456331Y-135675000D01*
X183451021Y-135621090D01*
X183435297Y-135569253D01*
X183411643Y-135524999D01*
X183435296Y-135480747D01*
X183451020Y-135428909D01*
X183456330Y-135375000D01*
X183456330Y-134725000D01*
X183451020Y-134671091D01*
X183435296Y-134619253D01*
X183409760Y-134571479D01*
X183375395Y-134529605D01*
X183333521Y-134495240D01*
X183285747Y-134469704D01*
X183233909Y-134453980D01*
X183180000Y-134448670D01*
X182120000Y-134448670D01*
X182066091Y-134453980D01*
X182014253Y-134469704D01*
X181966479Y-134495240D01*
X181924605Y-134529605D01*
X181890240Y-134571479D01*
X181864704Y-134619253D01*
X181855378Y-134650000D01*
X180574125Y-134650000D01*
X180554489Y-134648066D01*
X180534853Y-134650000D01*
X180534843Y-134650000D01*
X180476076Y-134655788D01*
X180400676Y-134678660D01*
X180331187Y-134715803D01*
X180324139Y-134721587D01*
X180285539Y-134753265D01*
X180285537Y-134753267D01*
X180270279Y-134765789D01*
X180257757Y-134781047D01*
X179706048Y-135332757D01*
X179690791Y-135345278D01*
X179678269Y-135360536D01*
X179678266Y-135360539D01*
X179640804Y-135406187D01*
X179603662Y-135475675D01*
X179580789Y-135551076D01*
X179573066Y-135629489D01*
X179575002Y-135649145D01*
X179575002Y-135784013D01*
X179517145Y-135726156D01*
X179332887Y-135603038D01*
X179128150Y-135518233D01*
X178910803Y-135475000D01*
X178900000Y-135475000D01*
X178900000Y-130165685D01*
X179309536Y-129756149D01*
X179333038Y-129812887D01*
X179456156Y-129997145D01*
X179612855Y-130153844D01*
X179797113Y-130276962D01*
X180001850Y-130361767D01*
X180219197Y-130405000D01*
X180440803Y-130405000D01*
X180658150Y-130361767D01*
X180862887Y-130276962D01*
X181047145Y-130153844D01*
X181203844Y-129997145D01*
X181326962Y-129812887D01*
X181411767Y-129608150D01*
X181455000Y-129390803D01*
X181455000Y-129169197D01*
X181411767Y-128951850D01*
X181326962Y-128747113D01*
X181203844Y-128562855D01*
X181047145Y-128406156D01*
X180862887Y-128283038D01*
X180658150Y-128198233D01*
X180440803Y-128155000D01*
X180219197Y-128155000D01*
X180001850Y-128198233D01*
X179797113Y-128283038D01*
X179612855Y-128406156D01*
X179456156Y-128562855D01*
X179333038Y-128747113D01*
X179277994Y-128880000D01*
X179239647Y-128880000D01*
X179220000Y-128878065D01*
X179141586Y-128885788D01*
X179066186Y-128908660D01*
X178996697Y-128945803D01*
X178951049Y-128983265D01*
X178951047Y-128983267D01*
X178935789Y-128995789D01*
X178923267Y-129011047D01*
X178231052Y-129703263D01*
X178215789Y-129715789D01*
X178165803Y-129776698D01*
X178128660Y-129846187D01*
X178112084Y-129900833D01*
X178105788Y-129921587D01*
X178098065Y-130000000D01*
X178100000Y-130019646D01*
X178100001Y-135714699D01*
X178082855Y-135726156D01*
X177926156Y-135882855D01*
X177803038Y-136067113D01*
X177718233Y-136271850D01*
X177675000Y-136489197D01*
X177675000Y-136710803D01*
X177718233Y-136928150D01*
X177803038Y-137132887D01*
X177926156Y-137317145D01*
X177984012Y-137375001D01*
X177600686Y-137375001D01*
X177286723Y-137061038D01*
X177341767Y-136928150D01*
X177385000Y-136710803D01*
X177385000Y-136489197D01*
X177341767Y-136271850D01*
X177273439Y-136106893D01*
X177294212Y-136038414D01*
X177300000Y-135979647D01*
X177300000Y-135979646D01*
X177301935Y-135960000D01*
X177300000Y-135940353D01*
X177300000Y-127795685D01*
X178466488Y-126629197D01*
X179205000Y-126629197D01*
X179205000Y-126850803D01*
X179248233Y-127068150D01*
X179333038Y-127272887D01*
X179456156Y-127457145D01*
X179612855Y-127613844D01*
X179797113Y-127736962D01*
X180001850Y-127821767D01*
X180219197Y-127865000D01*
X180440803Y-127865000D01*
X180658150Y-127821767D01*
X180862887Y-127736962D01*
X181047145Y-127613844D01*
X181203844Y-127457145D01*
X181326962Y-127272887D01*
X181411767Y-127068150D01*
X181455000Y-126850803D01*
X181455000Y-126629197D01*
X181411767Y-126411850D01*
X181326962Y-126207113D01*
X181203844Y-126022855D01*
X181047145Y-125866156D01*
X180862887Y-125743038D01*
X180658150Y-125658233D01*
X180440803Y-125615000D01*
X180219197Y-125615000D01*
X180001850Y-125658233D01*
X179797113Y-125743038D01*
X179612855Y-125866156D01*
X179456156Y-126022855D01*
X179333038Y-126207113D01*
X179248233Y-126411850D01*
X179205000Y-126629197D01*
X178466488Y-126629197D01*
X179868962Y-125226723D01*
X180001850Y-125281767D01*
X180219197Y-125325000D01*
X180440803Y-125325000D01*
X180658150Y-125281767D01*
X180862887Y-125196962D01*
X181047145Y-125073844D01*
X181203844Y-124917145D01*
X181326962Y-124732887D01*
X181411767Y-124528150D01*
X181455000Y-124310803D01*
X181455000Y-124089197D01*
X181411767Y-123871850D01*
X181326962Y-123667113D01*
X181203844Y-123482855D01*
X181047145Y-123326156D01*
X180862887Y-123203038D01*
X180658150Y-123118233D01*
X180440803Y-123075000D01*
X180219197Y-123075000D01*
X180001850Y-123118233D01*
X179797113Y-123203038D01*
X179612855Y-123326156D01*
X179456156Y-123482855D01*
X179333038Y-123667113D01*
X179248233Y-123871850D01*
X179205000Y-124089197D01*
X179205000Y-124310803D01*
X179248233Y-124528150D01*
X179303277Y-124661038D01*
X176631048Y-127333267D01*
X176615790Y-127345789D01*
X176603268Y-127361047D01*
X176603265Y-127361050D01*
X176565803Y-127406698D01*
X176528661Y-127476186D01*
X176505788Y-127551587D01*
X176498065Y-127630000D01*
X176500001Y-127649657D01*
X176500000Y-133229292D01*
X176481676Y-133163625D01*
X176350486Y-132904379D01*
X176313598Y-132849172D01*
X176116937Y-132718418D01*
X175135355Y-133700000D01*
X176116937Y-134681582D01*
X176313598Y-134550828D01*
X176456268Y-134297719D01*
X176500000Y-134164381D01*
X176500000Y-135500699D01*
X176370803Y-135475000D01*
X176149197Y-135475000D01*
X175931850Y-135518233D01*
X175727113Y-135603038D01*
X175542855Y-135726156D01*
X175386156Y-135882855D01*
X175263038Y-136067113D01*
X175178233Y-136271850D01*
X175135000Y-136489197D01*
X175135000Y-136710803D01*
X175178233Y-136928150D01*
X175263038Y-137132887D01*
X175386156Y-137317145D01*
X175542855Y-137473844D01*
X175727113Y-137596962D01*
X175931850Y-137681767D01*
X176023513Y-137700000D01*
X173956487Y-137700000D01*
X174048150Y-137681767D01*
X174252887Y-137596962D01*
X174437145Y-137473844D01*
X174593844Y-137317145D01*
X174716962Y-137132887D01*
X174801767Y-136928150D01*
X174845000Y-136710803D01*
X174845000Y-136489197D01*
X174801767Y-136271850D01*
X174716962Y-136067113D01*
X174593844Y-135882855D01*
X174437145Y-135726156D01*
X174252887Y-135603038D01*
X174048150Y-135518233D01*
X173830803Y-135475000D01*
X173609197Y-135475000D01*
X173391850Y-135518233D01*
X173270001Y-135568705D01*
X173270001Y-134716937D01*
X174118418Y-134716937D01*
X174249172Y-134913598D01*
X174502281Y-135056268D01*
X174778361Y-135146817D01*
X175066801Y-135181765D01*
X175356517Y-135159770D01*
X175636375Y-135081676D01*
X175895621Y-134950486D01*
X175950828Y-134913598D01*
X176081582Y-134716937D01*
X175100000Y-133735355D01*
X174118418Y-134716937D01*
X173270001Y-134716937D01*
X173270001Y-133666801D01*
X173618235Y-133666801D01*
X173640230Y-133956517D01*
X173718324Y-134236375D01*
X173849514Y-134495621D01*
X173886402Y-134550828D01*
X174083063Y-134681582D01*
X175064645Y-133700000D01*
X174083063Y-132718418D01*
X173886402Y-132849172D01*
X173743732Y-133102281D01*
X173653183Y-133378361D01*
X173618235Y-133666801D01*
X173270001Y-133666801D01*
X173270001Y-132683063D01*
X174118418Y-132683063D01*
X175100000Y-133664645D01*
X176081582Y-132683063D01*
X175950828Y-132486402D01*
X175697719Y-132343732D01*
X175421639Y-132253183D01*
X175133199Y-132218235D01*
X174843483Y-132240230D01*
X174563625Y-132318324D01*
X174304379Y-132449514D01*
X174249172Y-132486402D01*
X174118418Y-132683063D01*
X173270001Y-132683063D01*
X173270001Y-131189644D01*
X173271936Y-131170000D01*
X173268119Y-131131250D01*
X173264213Y-131091587D01*
X173241341Y-131016187D01*
X173204198Y-130946698D01*
X173201779Y-130943750D01*
X173166736Y-130901050D01*
X173166734Y-130901048D01*
X173154212Y-130885790D01*
X173138954Y-130873268D01*
X171276737Y-129011052D01*
X171264211Y-128995789D01*
X171203303Y-128945803D01*
X171133814Y-128908660D01*
X171058414Y-128885788D01*
X170999647Y-128880000D01*
X170999646Y-128880000D01*
X170980000Y-128878065D01*
X170960354Y-128880000D01*
X166142006Y-128880000D01*
X166086962Y-128747113D01*
X165963844Y-128562855D01*
X165807145Y-128406156D01*
X165622887Y-128283038D01*
X165418150Y-128198233D01*
X165200803Y-128155000D01*
X164979197Y-128155000D01*
X164761850Y-128198233D01*
X164557113Y-128283038D01*
X164372855Y-128406156D01*
X164314999Y-128464012D01*
X164314999Y-128080686D01*
X164628962Y-127766723D01*
X164761850Y-127821767D01*
X164979197Y-127865000D01*
X165200803Y-127865000D01*
X165418150Y-127821767D01*
X165622887Y-127736962D01*
X165807145Y-127613844D01*
X165963844Y-127457145D01*
X166086962Y-127272887D01*
X166171767Y-127068150D01*
X166215000Y-126850803D01*
X166215000Y-126629197D01*
X166171767Y-126411850D01*
X166116723Y-126278962D01*
X166533949Y-125861736D01*
X166549212Y-125849210D01*
X166599198Y-125788302D01*
X166636341Y-125718813D01*
X166659213Y-125643413D01*
X166665001Y-125584646D01*
X166665001Y-125584636D01*
X166666935Y-125565000D01*
X166665001Y-125545364D01*
X166665001Y-123109646D01*
X166666936Y-123089999D01*
X166663128Y-123051330D01*
X166659213Y-123011585D01*
X166636341Y-122936185D01*
X166599198Y-122866696D01*
X166549212Y-122805788D01*
X166533950Y-122793263D01*
X164521719Y-120781032D01*
X164509193Y-120765769D01*
X164448285Y-120715783D01*
X164378796Y-120678640D01*
X164303396Y-120655768D01*
X164244629Y-120649980D01*
X164244628Y-120649980D01*
X164224982Y-120648045D01*
X164205336Y-120649980D01*
X155209665Y-120649980D01*
X155190018Y-120648045D01*
X155111604Y-120655768D01*
X155036203Y-120678640D01*
X154966715Y-120715783D01*
X154921067Y-120753245D01*
X154921065Y-120753247D01*
X154905807Y-120765769D01*
X154893285Y-120781027D01*
X151131048Y-124543265D01*
X151115790Y-124555787D01*
X151103268Y-124571045D01*
X151103265Y-124571048D01*
X151065803Y-124616696D01*
X151028661Y-124686184D01*
X151005788Y-124761585D01*
X150998065Y-124839998D01*
X151000001Y-124859654D01*
X151000000Y-128423670D01*
X150950000Y-128423670D01*
X150896091Y-128428980D01*
X150844253Y-128444704D01*
X150796479Y-128470240D01*
X150754605Y-128504605D01*
X150720240Y-128546479D01*
X150694704Y-128594253D01*
X150678980Y-128646091D01*
X150673670Y-128700000D01*
X150673670Y-129500000D01*
X150678980Y-129553909D01*
X150694704Y-129605747D01*
X150720240Y-129653521D01*
X150754605Y-129695395D01*
X150796479Y-129729760D01*
X150844253Y-129755296D01*
X150896091Y-129771020D01*
X150950000Y-129776330D01*
X151005583Y-129776330D01*
X151005788Y-129778413D01*
X151028660Y-129853813D01*
X151065803Y-129923302D01*
X151115789Y-129984211D01*
X151176697Y-130034197D01*
X151246186Y-130071340D01*
X151321586Y-130094212D01*
X151400000Y-130101935D01*
X151478413Y-130094212D01*
X151553813Y-130071340D01*
X151623302Y-130034197D01*
X151684211Y-129984211D01*
X151734197Y-129923303D01*
X151771340Y-129853814D01*
X151794212Y-129778414D01*
X151794417Y-129776330D01*
X151850000Y-129776330D01*
X151903909Y-129771020D01*
X151955747Y-129755296D01*
X152003521Y-129729760D01*
X152045395Y-129695395D01*
X152079760Y-129653521D01*
X152105296Y-129605747D01*
X152121020Y-129553909D01*
X152126330Y-129500000D01*
X152126330Y-128700000D01*
X152121020Y-128646091D01*
X152105296Y-128594253D01*
X152079760Y-128546479D01*
X152045395Y-128504605D01*
X152003521Y-128470240D01*
X151955747Y-128444704D01*
X151903909Y-128428980D01*
X151850000Y-128423670D01*
X151800000Y-128423670D01*
X151800000Y-125340655D01*
X151820240Y-125378521D01*
X151854605Y-125420395D01*
X151896479Y-125454760D01*
X151944253Y-125480296D01*
X151950000Y-125482039D01*
X151950001Y-126330344D01*
X151948065Y-126350000D01*
X151955788Y-126428413D01*
X151978661Y-126503814D01*
X152015803Y-126573302D01*
X152053265Y-126618950D01*
X152053268Y-126618953D01*
X152065790Y-126634211D01*
X152081048Y-126646733D01*
X153132107Y-127697792D01*
X153125000Y-127733518D01*
X153125000Y-127866482D01*
X153150940Y-127996890D01*
X153201823Y-128119732D01*
X153275693Y-128230287D01*
X153369713Y-128324307D01*
X153400000Y-128344544D01*
X153400001Y-128609626D01*
X153352031Y-128635266D01*
X153274167Y-128699167D01*
X153210266Y-128777031D01*
X153162783Y-128865866D01*
X153133543Y-128962257D01*
X153123670Y-129062500D01*
X153123670Y-129537500D01*
X153133543Y-129637743D01*
X153162783Y-129734134D01*
X153210266Y-129822969D01*
X153274167Y-129900833D01*
X153352031Y-129964734D01*
X153440866Y-130012217D01*
X153537257Y-130041457D01*
X153637500Y-130051330D01*
X154123145Y-130051330D01*
X154175001Y-130103186D01*
X154175001Y-130373670D01*
X153450000Y-130373670D01*
X153396091Y-130378980D01*
X153344253Y-130394704D01*
X153296479Y-130420240D01*
X153254605Y-130454605D01*
X153220240Y-130496479D01*
X153194704Y-130544253D01*
X153178980Y-130596091D01*
X153173670Y-130650000D01*
X153173670Y-131550000D01*
X153178980Y-131603909D01*
X153194704Y-131655747D01*
X153220240Y-131703521D01*
X153254605Y-131745395D01*
X153296479Y-131779760D01*
X153344253Y-131805296D01*
X153396091Y-131821020D01*
X153450000Y-131826330D01*
X154175002Y-131826330D01*
X154175002Y-132490677D01*
X154170240Y-132496479D01*
X154144704Y-132544253D01*
X154128980Y-132596091D01*
X154123670Y-132650000D01*
X154123670Y-132700000D01*
X152726330Y-132700000D01*
X152726330Y-132200000D01*
X152721020Y-132146091D01*
X152705296Y-132094253D01*
X152679760Y-132046479D01*
X152645395Y-132004605D01*
X152603521Y-131970240D01*
X152555747Y-131944704D01*
X152503909Y-131928980D01*
X152450000Y-131923670D01*
X151550000Y-131923670D01*
X151496091Y-131928980D01*
X151444253Y-131944704D01*
X151396479Y-131970240D01*
X151354605Y-132004605D01*
X151320240Y-132046479D01*
X151294704Y-132094253D01*
X151278980Y-132146091D01*
X151273670Y-132200000D01*
X151273670Y-133000000D01*
X151278980Y-133053909D01*
X151294704Y-133105747D01*
X151320240Y-133153521D01*
X151354605Y-133195395D01*
X151396479Y-133229760D01*
X151444253Y-133255296D01*
X151496091Y-133271020D01*
X151550000Y-133276330D01*
X152110644Y-133276330D01*
X152203267Y-133368953D01*
X152215789Y-133384211D01*
X152231047Y-133396733D01*
X152231049Y-133396735D01*
X152276697Y-133434197D01*
X152346186Y-133471340D01*
X152421586Y-133494212D01*
X152500000Y-133501935D01*
X152519647Y-133500000D01*
X154123670Y-133500000D01*
X154123670Y-133550000D01*
X154128980Y-133603909D01*
X154144704Y-133655747D01*
X154170240Y-133703521D01*
X154204605Y-133745395D01*
X154246479Y-133779760D01*
X154294253Y-133805296D01*
X154346091Y-133821020D01*
X154400000Y-133826330D01*
X154447377Y-133826330D01*
X154465803Y-133860802D01*
X154503265Y-133906450D01*
X154503268Y-133906453D01*
X154515790Y-133921711D01*
X154531048Y-133934233D01*
X154645871Y-134049056D01*
X154331250Y-134050000D01*
X154262500Y-134118750D01*
X154262500Y-134775000D01*
X154981250Y-134775000D01*
X155050000Y-134706250D01*
X155050880Y-134454066D01*
X155149624Y-134552810D01*
X155148670Y-134562500D01*
X155148670Y-135037500D01*
X155158543Y-135137743D01*
X155187783Y-135234134D01*
X155235266Y-135322969D01*
X155299167Y-135400833D01*
X155377031Y-135464734D01*
X155465866Y-135512217D01*
X155562257Y-135541457D01*
X155662500Y-135551330D01*
X156262500Y-135551330D01*
X156362743Y-135541457D01*
X156459134Y-135512217D01*
X156547969Y-135464734D01*
X156625833Y-135400833D01*
X156689734Y-135322969D01*
X156737217Y-135234134D01*
X156747571Y-135200000D01*
X156990679Y-135200000D01*
X156996479Y-135204760D01*
X157044253Y-135230296D01*
X157096091Y-135246020D01*
X157150000Y-135251330D01*
X157750000Y-135251330D01*
X157803909Y-135246020D01*
X157855747Y-135230296D01*
X157903521Y-135204760D01*
X157945395Y-135170395D01*
X157979760Y-135128521D01*
X158005296Y-135080747D01*
X158019602Y-135033583D01*
X159018963Y-134034223D01*
X159034221Y-134021701D01*
X159050124Y-134002324D01*
X159084207Y-133960793D01*
X159097565Y-133935802D01*
X159121350Y-133891304D01*
X159125001Y-133879270D01*
X159125001Y-134279995D01*
X159096479Y-134295240D01*
X159054605Y-134329605D01*
X159020240Y-134371479D01*
X158994704Y-134419253D01*
X158978980Y-134471091D01*
X158973670Y-134525000D01*
X158973670Y-134975000D01*
X158978980Y-135028909D01*
X158994704Y-135080747D01*
X159020240Y-135128521D01*
X159054605Y-135170395D01*
X159096479Y-135204760D01*
X159112501Y-135213324D01*
X159112500Y-135773637D01*
X159065866Y-135787783D01*
X158977031Y-135835266D01*
X158899167Y-135899167D01*
X158835266Y-135977031D01*
X158787783Y-136065866D01*
X158758543Y-136162257D01*
X158748670Y-136262500D01*
X158748670Y-136737500D01*
X158758543Y-136837743D01*
X158787783Y-136934134D01*
X158835266Y-137022969D01*
X158899167Y-137100833D01*
X158977031Y-137164734D01*
X159065866Y-137212217D01*
X159162257Y-137241457D01*
X159262500Y-137251330D01*
X159762500Y-137251330D01*
X159862743Y-137241457D01*
X159959134Y-137212217D01*
X160047969Y-137164734D01*
X160125833Y-137100833D01*
X160189734Y-137022969D01*
X160202011Y-137000000D01*
X160737867Y-137000000D01*
X160754605Y-137020395D01*
X160796479Y-137054760D01*
X160844253Y-137080296D01*
X160896091Y-137096020D01*
X160950000Y-137101330D01*
X161550000Y-137101330D01*
X161603909Y-137096020D01*
X161655747Y-137080296D01*
X161703521Y-137054760D01*
X161745395Y-137020395D01*
X161779760Y-136978521D01*
X161805296Y-136930747D01*
X161821020Y-136878909D01*
X161826330Y-136825000D01*
X161826330Y-136375000D01*
X161821020Y-136321091D01*
X161805296Y-136269253D01*
X161779760Y-136221479D01*
X161745395Y-136179605D01*
X161703521Y-136145240D01*
X161655747Y-136119704D01*
X161603909Y-136103980D01*
X161550000Y-136098670D01*
X160950000Y-136098670D01*
X160896091Y-136103980D01*
X160844253Y-136119704D01*
X160796479Y-136145240D01*
X160754605Y-136179605D01*
X160737867Y-136200000D01*
X160270174Y-136200000D01*
X160266457Y-136162257D01*
X160237217Y-136065866D01*
X160189734Y-135977031D01*
X160125833Y-135899167D01*
X160047969Y-135835266D01*
X159959134Y-135787783D01*
X159912500Y-135773637D01*
X159912500Y-135243414D01*
X159955747Y-135230296D01*
X160003521Y-135204760D01*
X160045395Y-135170395D01*
X160079760Y-135128521D01*
X160105296Y-135080747D01*
X160121020Y-135028909D01*
X160126330Y-134975000D01*
X160126330Y-134525000D01*
X160121020Y-134471091D01*
X160105296Y-134419253D01*
X160079760Y-134371479D01*
X160045395Y-134329605D01*
X160003521Y-134295240D01*
X159955747Y-134269704D01*
X159925000Y-134260378D01*
X159925000Y-133746406D01*
X159975000Y-133751331D01*
X160081250Y-133750000D01*
X160150000Y-133681250D01*
X160150000Y-132775000D01*
X160200000Y-132775000D01*
X160200000Y-133681250D01*
X160268750Y-133750000D01*
X160375000Y-133751331D01*
X160428910Y-133746021D01*
X160480747Y-133730297D01*
X160528521Y-133704761D01*
X160570396Y-133670396D01*
X160604761Y-133628521D01*
X160630297Y-133580747D01*
X160646021Y-133528910D01*
X160651331Y-133475000D01*
X160650000Y-132843750D01*
X160581250Y-132775000D01*
X160200000Y-132775000D01*
X160150000Y-132775000D01*
X160130000Y-132775000D01*
X160130000Y-132725000D01*
X160150000Y-132725000D01*
X160150000Y-131818750D01*
X160200000Y-131818750D01*
X160200000Y-132725000D01*
X160581250Y-132725000D01*
X160650000Y-132656250D01*
X160651331Y-132025000D01*
X160646021Y-131971090D01*
X160630297Y-131919253D01*
X160604761Y-131871479D01*
X160570396Y-131829604D01*
X160528521Y-131795239D01*
X160480747Y-131769703D01*
X160428910Y-131753979D01*
X160375000Y-131748669D01*
X160268750Y-131750000D01*
X160200000Y-131818750D01*
X160150000Y-131818750D01*
X160081250Y-131750000D01*
X159975000Y-131748669D01*
X159921090Y-131753979D01*
X159869253Y-131769703D01*
X159821479Y-131795239D01*
X159814012Y-131801367D01*
X159769015Y-131777316D01*
X159698418Y-131755901D01*
X159625000Y-131748670D01*
X159425000Y-131748670D01*
X159351582Y-131755901D01*
X159280985Y-131777316D01*
X159215922Y-131812093D01*
X159200000Y-131825160D01*
X159184078Y-131812093D01*
X159119015Y-131777316D01*
X159048418Y-131755901D01*
X158975000Y-131748670D01*
X158775000Y-131748670D01*
X158701582Y-131755901D01*
X158630985Y-131777316D01*
X158585988Y-131801367D01*
X158578521Y-131795239D01*
X158530747Y-131769703D01*
X158478910Y-131753979D01*
X158425000Y-131748669D01*
X158318750Y-131750000D01*
X158250000Y-131818750D01*
X158250000Y-132725000D01*
X158270000Y-132725000D01*
X158270000Y-132775000D01*
X158250000Y-132775000D01*
X158250000Y-132795000D01*
X158200000Y-132795000D01*
X158200000Y-132775000D01*
X157818750Y-132775000D01*
X157750000Y-132843750D01*
X157748669Y-133475000D01*
X157753979Y-133528910D01*
X157769703Y-133580747D01*
X157795239Y-133628521D01*
X157829604Y-133670396D01*
X157871479Y-133704761D01*
X157919253Y-133730297D01*
X157971090Y-133746021D01*
X158025000Y-133751331D01*
X158131250Y-133750000D01*
X158199998Y-133681252D01*
X158199998Y-133721816D01*
X157673145Y-134248670D01*
X157150000Y-134248670D01*
X157096091Y-134253980D01*
X157044253Y-134269704D01*
X156996479Y-134295240D01*
X156954605Y-134329605D01*
X156920240Y-134371479D01*
X156904995Y-134400000D01*
X156747571Y-134400000D01*
X156737217Y-134365866D01*
X156689734Y-134277031D01*
X156625833Y-134199167D01*
X156547969Y-134135266D01*
X156459134Y-134087783D01*
X156362743Y-134058543D01*
X156262500Y-134048670D01*
X155776856Y-134048670D01*
X155430438Y-133702253D01*
X155455296Y-133655747D01*
X155471020Y-133603909D01*
X155476330Y-133550000D01*
X155476330Y-132650000D01*
X155471020Y-132596091D01*
X155455296Y-132544253D01*
X155429760Y-132496479D01*
X155395395Y-132454605D01*
X155353521Y-132420240D01*
X155305747Y-132394704D01*
X155253909Y-132378980D01*
X155200000Y-132373670D01*
X154975001Y-132373670D01*
X154975001Y-132025000D01*
X157748669Y-132025000D01*
X157750000Y-132656250D01*
X157818750Y-132725000D01*
X158200000Y-132725000D01*
X158200000Y-131818750D01*
X158131250Y-131750000D01*
X158025000Y-131748669D01*
X157971090Y-131753979D01*
X157919253Y-131769703D01*
X157871479Y-131795239D01*
X157829604Y-131829604D01*
X157795239Y-131871479D01*
X157769703Y-131919253D01*
X157753979Y-131971090D01*
X157748669Y-132025000D01*
X154975001Y-132025000D01*
X154975001Y-131550000D01*
X155073669Y-131550000D01*
X155078979Y-131603910D01*
X155094703Y-131655747D01*
X155120239Y-131703521D01*
X155154604Y-131745396D01*
X155196479Y-131779761D01*
X155244253Y-131805297D01*
X155296090Y-131821021D01*
X155350000Y-131826331D01*
X155656250Y-131825000D01*
X155725000Y-131756250D01*
X155725000Y-131125000D01*
X155775000Y-131125000D01*
X155775000Y-131756250D01*
X155843750Y-131825000D01*
X156150000Y-131826331D01*
X156203910Y-131821021D01*
X156255747Y-131805297D01*
X156303521Y-131779761D01*
X156345396Y-131745396D01*
X156379761Y-131703521D01*
X156405297Y-131655747D01*
X156421021Y-131603910D01*
X156426331Y-131550000D01*
X156425921Y-131440000D01*
X157983669Y-131440000D01*
X157988979Y-131493910D01*
X158004703Y-131545747D01*
X158030239Y-131593521D01*
X158064604Y-131635396D01*
X158106479Y-131669761D01*
X158154253Y-131695297D01*
X158206090Y-131711021D01*
X158260000Y-131716331D01*
X159106250Y-131715000D01*
X159175000Y-131646250D01*
X159175000Y-130625000D01*
X159225000Y-130625000D01*
X159225000Y-131646250D01*
X159293750Y-131715000D01*
X160140000Y-131716331D01*
X160193910Y-131711021D01*
X160245747Y-131695297D01*
X160293521Y-131669761D01*
X160335396Y-131635396D01*
X160369761Y-131593521D01*
X160379660Y-131575000D01*
X161448669Y-131575000D01*
X161453979Y-131628910D01*
X161469703Y-131680747D01*
X161495239Y-131728521D01*
X161529604Y-131770396D01*
X161571479Y-131804761D01*
X161619253Y-131830297D01*
X161671090Y-131846021D01*
X161725000Y-131851331D01*
X162106250Y-131850000D01*
X162175000Y-131781250D01*
X162175000Y-131062500D01*
X162225000Y-131062500D01*
X162225000Y-131781250D01*
X162293750Y-131850000D01*
X162675000Y-131851331D01*
X162728910Y-131846021D01*
X162780747Y-131830297D01*
X162828521Y-131804761D01*
X162870396Y-131770396D01*
X162904761Y-131728521D01*
X162930297Y-131680747D01*
X162946021Y-131628910D01*
X162951331Y-131575000D01*
X162950000Y-131131250D01*
X162881250Y-131062500D01*
X162225000Y-131062500D01*
X162175000Y-131062500D01*
X161518750Y-131062500D01*
X161450000Y-131131250D01*
X161448669Y-131575000D01*
X160379660Y-131575000D01*
X160395297Y-131545747D01*
X160411021Y-131493910D01*
X160416331Y-131440000D01*
X160415000Y-130693750D01*
X160346250Y-130625000D01*
X159225000Y-130625000D01*
X159175000Y-130625000D01*
X158053750Y-130625000D01*
X157985000Y-130693750D01*
X157983669Y-131440000D01*
X156425921Y-131440000D01*
X156425000Y-131193750D01*
X156356250Y-131125000D01*
X155775000Y-131125000D01*
X155725000Y-131125000D01*
X155143750Y-131125000D01*
X155075000Y-131193750D01*
X155073669Y-131550000D01*
X154975001Y-131550000D01*
X154975001Y-130650000D01*
X155073669Y-130650000D01*
X155075000Y-131006250D01*
X155143750Y-131075000D01*
X155725000Y-131075000D01*
X155725000Y-130443750D01*
X155775000Y-130443750D01*
X155775000Y-131075000D01*
X156356250Y-131075000D01*
X156425000Y-131006250D01*
X156426331Y-130650000D01*
X156421021Y-130596090D01*
X156405297Y-130544253D01*
X156379761Y-130496479D01*
X156345396Y-130454604D01*
X156303521Y-130420239D01*
X156255747Y-130394703D01*
X156203910Y-130378979D01*
X156150000Y-130373669D01*
X155843750Y-130375000D01*
X155775000Y-130443750D01*
X155725000Y-130443750D01*
X155656250Y-130375000D01*
X155350000Y-130373669D01*
X155296090Y-130378979D01*
X155244253Y-130394703D01*
X155196479Y-130420239D01*
X155154604Y-130454604D01*
X155120239Y-130496479D01*
X155094703Y-130544253D01*
X155078979Y-130596090D01*
X155073669Y-130650000D01*
X154975001Y-130650000D01*
X154975001Y-130006644D01*
X155019253Y-130030297D01*
X155071090Y-130046021D01*
X155125000Y-130051331D01*
X155568750Y-130050000D01*
X155637500Y-129981250D01*
X155637500Y-129325000D01*
X155687500Y-129325000D01*
X155687500Y-129981250D01*
X155756250Y-130050000D01*
X156200000Y-130051331D01*
X156253910Y-130046021D01*
X156305747Y-130030297D01*
X156353521Y-130004761D01*
X156395396Y-129970396D01*
X156429761Y-129928521D01*
X156455297Y-129880747D01*
X156471021Y-129828910D01*
X156476331Y-129775000D01*
X156476279Y-129760000D01*
X157983669Y-129760000D01*
X157985000Y-130506250D01*
X158053750Y-130575000D01*
X159175000Y-130575000D01*
X159175000Y-129553750D01*
X159225000Y-129553750D01*
X159225000Y-130575000D01*
X160346250Y-130575000D01*
X160415000Y-130506250D01*
X160415011Y-130500000D01*
X161448669Y-130500000D01*
X161450000Y-130943750D01*
X161518750Y-131012500D01*
X162175000Y-131012500D01*
X162175000Y-130293750D01*
X162225000Y-130293750D01*
X162225000Y-131012500D01*
X162881250Y-131012500D01*
X162950000Y-130943750D01*
X162951331Y-130500000D01*
X162946021Y-130446090D01*
X162930297Y-130394253D01*
X162904761Y-130346479D01*
X162870396Y-130304604D01*
X162828521Y-130270239D01*
X162780747Y-130244703D01*
X162728910Y-130228979D01*
X162675000Y-130223669D01*
X162293750Y-130225000D01*
X162225000Y-130293750D01*
X162175000Y-130293750D01*
X162106250Y-130225000D01*
X161725000Y-130223669D01*
X161671090Y-130228979D01*
X161619253Y-130244703D01*
X161571479Y-130270239D01*
X161529604Y-130304604D01*
X161495239Y-130346479D01*
X161469703Y-130394253D01*
X161453979Y-130446090D01*
X161448669Y-130500000D01*
X160415011Y-130500000D01*
X160416331Y-129760000D01*
X160411021Y-129706090D01*
X160395297Y-129654253D01*
X160369761Y-129606479D01*
X160335396Y-129564604D01*
X160293521Y-129530239D01*
X160245747Y-129504703D01*
X160193910Y-129488979D01*
X160140000Y-129483669D01*
X159293750Y-129485000D01*
X159225000Y-129553750D01*
X159175000Y-129553750D01*
X159106250Y-129485000D01*
X158260000Y-129483669D01*
X158206090Y-129488979D01*
X158154253Y-129504703D01*
X158106479Y-129530239D01*
X158064604Y-129564604D01*
X158030239Y-129606479D01*
X158004703Y-129654253D01*
X157988979Y-129706090D01*
X157983669Y-129760000D01*
X156476279Y-129760000D01*
X156475000Y-129393750D01*
X156406250Y-129325000D01*
X155687500Y-129325000D01*
X155637500Y-129325000D01*
X154918750Y-129325000D01*
X154850000Y-129393750D01*
X154849123Y-129645010D01*
X154843950Y-129640765D01*
X154750376Y-129547191D01*
X154751330Y-129537500D01*
X154751330Y-129062500D01*
X154741457Y-128962257D01*
X154712217Y-128865866D01*
X154690374Y-128825000D01*
X154848669Y-128825000D01*
X154850000Y-129206250D01*
X154918750Y-129275000D01*
X155637500Y-129275000D01*
X155637500Y-128618750D01*
X155687500Y-128618750D01*
X155687500Y-129275000D01*
X156406250Y-129275000D01*
X156475000Y-129206250D01*
X156476331Y-128825000D01*
X156471021Y-128771090D01*
X156455297Y-128719253D01*
X156429761Y-128671479D01*
X156395396Y-128629604D01*
X156353521Y-128595239D01*
X156305747Y-128569703D01*
X156253910Y-128553979D01*
X156200000Y-128548669D01*
X155756250Y-128550000D01*
X155687500Y-128618750D01*
X155637500Y-128618750D01*
X155568750Y-128550000D01*
X155125000Y-128548669D01*
X155071090Y-128553979D01*
X155019253Y-128569703D01*
X154971479Y-128595239D01*
X154929604Y-128629604D01*
X154895239Y-128671479D01*
X154869703Y-128719253D01*
X154853979Y-128771090D01*
X154848669Y-128825000D01*
X154690374Y-128825000D01*
X154664734Y-128777031D01*
X154600833Y-128699167D01*
X154522969Y-128635266D01*
X154434134Y-128587783D01*
X154337743Y-128558543D01*
X154237500Y-128548670D01*
X154200000Y-128548670D01*
X154200000Y-128344544D01*
X154230287Y-128324307D01*
X154324307Y-128230287D01*
X154398177Y-128119732D01*
X154449060Y-127996890D01*
X154475000Y-127866482D01*
X154475000Y-127733518D01*
X154449060Y-127603110D01*
X154398177Y-127480268D01*
X154324307Y-127369713D01*
X154230287Y-127275693D01*
X154119732Y-127201823D01*
X153996890Y-127150940D01*
X153866482Y-127125000D01*
X153733518Y-127125000D01*
X153697792Y-127132107D01*
X152750000Y-126184315D01*
X152750000Y-125482039D01*
X152755747Y-125480296D01*
X152803521Y-125454760D01*
X152845395Y-125420395D01*
X152879760Y-125378521D01*
X152905296Y-125330747D01*
X152921020Y-125278909D01*
X152926330Y-125225000D01*
X152926330Y-124775000D01*
X152921020Y-124721091D01*
X152905296Y-124669253D01*
X152879760Y-124621479D01*
X152845395Y-124579605D01*
X152803521Y-124545240D01*
X152755747Y-124519704D01*
X152703909Y-124503980D01*
X152650000Y-124498670D01*
X152307013Y-124498670D01*
X155355704Y-121449980D01*
X156871834Y-121449980D01*
X156773144Y-121548670D01*
X156337500Y-121548670D01*
X156237257Y-121558543D01*
X156140866Y-121587783D01*
X156052031Y-121635266D01*
X155974167Y-121699167D01*
X155910266Y-121777031D01*
X155862783Y-121865866D01*
X155833543Y-121962257D01*
X155823670Y-122062500D01*
X155823670Y-122537500D01*
X155833543Y-122637743D01*
X155862783Y-122734134D01*
X155910266Y-122822969D01*
X155974167Y-122900833D01*
X156052031Y-122964734D01*
X156140866Y-123012217D01*
X156237257Y-123041457D01*
X156337500Y-123051330D01*
X156837500Y-123051330D01*
X156937743Y-123041457D01*
X157034134Y-123012217D01*
X157122969Y-122964734D01*
X157180953Y-122917148D01*
X157936175Y-123672371D01*
X157928980Y-123696091D01*
X157923670Y-123750000D01*
X157923670Y-126575001D01*
X157076330Y-126575001D01*
X157076330Y-123750000D01*
X157071020Y-123696091D01*
X157055296Y-123644253D01*
X157029760Y-123596479D01*
X156995395Y-123554605D01*
X156953521Y-123520240D01*
X156905747Y-123494704D01*
X156853909Y-123478980D01*
X156800000Y-123473670D01*
X156000000Y-123473670D01*
X155946091Y-123478980D01*
X155894253Y-123494704D01*
X155846479Y-123520240D01*
X155804605Y-123554605D01*
X155770240Y-123596479D01*
X155744704Y-123644253D01*
X155728980Y-123696091D01*
X155723670Y-123750000D01*
X155723670Y-126650000D01*
X155728980Y-126703909D01*
X155744704Y-126755747D01*
X155770240Y-126803521D01*
X155804605Y-126845395D01*
X155846479Y-126879760D01*
X155894253Y-126905296D01*
X155946091Y-126921020D01*
X156000000Y-126926330D01*
X156000658Y-126926330D01*
X156005788Y-126978413D01*
X156028660Y-127053813D01*
X156065803Y-127123302D01*
X156115789Y-127184211D01*
X156131054Y-127196738D01*
X156178260Y-127243945D01*
X156190790Y-127259212D01*
X156251698Y-127309198D01*
X156321187Y-127346341D01*
X156396587Y-127369213D01*
X156455354Y-127375001D01*
X156455364Y-127375001D01*
X156475000Y-127376935D01*
X156494636Y-127375001D01*
X157959316Y-127375001D01*
X158042861Y-127458546D01*
X157980985Y-127477316D01*
X157915922Y-127512093D01*
X157858895Y-127558895D01*
X157812093Y-127615922D01*
X157777316Y-127680985D01*
X157755901Y-127751582D01*
X157748670Y-127825000D01*
X157748670Y-129075000D01*
X157755901Y-129148418D01*
X157777316Y-129219015D01*
X157812093Y-129284078D01*
X157858895Y-129341105D01*
X157915922Y-129387907D01*
X157980985Y-129422684D01*
X158051582Y-129444099D01*
X158125000Y-129451330D01*
X158325000Y-129451330D01*
X158398418Y-129444099D01*
X158469015Y-129422684D01*
X158534078Y-129387907D01*
X158550000Y-129374840D01*
X158565922Y-129387907D01*
X158630985Y-129422684D01*
X158701582Y-129444099D01*
X158775000Y-129451330D01*
X158975000Y-129451330D01*
X159048418Y-129444099D01*
X159119015Y-129422684D01*
X159184078Y-129387907D01*
X159200000Y-129374840D01*
X159215922Y-129387907D01*
X159280985Y-129422684D01*
X159351582Y-129444099D01*
X159425000Y-129451330D01*
X159625000Y-129451330D01*
X159698418Y-129444099D01*
X159769015Y-129422684D01*
X159834078Y-129387907D01*
X159850000Y-129374840D01*
X159865922Y-129387907D01*
X159930985Y-129422684D01*
X160001582Y-129444099D01*
X160075000Y-129451330D01*
X160275000Y-129451330D01*
X160348418Y-129444099D01*
X160419015Y-129422684D01*
X160484078Y-129387907D01*
X160541105Y-129341105D01*
X160587907Y-129284078D01*
X160622684Y-129219015D01*
X160644099Y-129148418D01*
X160651330Y-129075000D01*
X160651330Y-127825000D01*
X160644099Y-127751582D01*
X160622684Y-127680985D01*
X160587907Y-127615922D01*
X160575000Y-127600195D01*
X160575000Y-123051330D01*
X160637500Y-123051330D01*
X160737743Y-123041457D01*
X160834134Y-123012217D01*
X160922969Y-122964734D01*
X160999990Y-122901525D01*
X160999991Y-128492834D01*
X160998055Y-128512490D01*
X161005778Y-128590903D01*
X161028651Y-128666304D01*
X161065793Y-128735792D01*
X161103255Y-128781440D01*
X161103258Y-128781443D01*
X161115780Y-128796701D01*
X161131037Y-128809223D01*
X161448670Y-129126855D01*
X161448670Y-129562500D01*
X161458543Y-129662743D01*
X161487783Y-129759134D01*
X161535266Y-129847969D01*
X161599167Y-129925833D01*
X161677031Y-129989734D01*
X161765866Y-130037217D01*
X161862257Y-130066457D01*
X161962500Y-130076330D01*
X162437500Y-130076330D01*
X162537743Y-130066457D01*
X162634134Y-130037217D01*
X162704123Y-129999808D01*
X164063277Y-131358962D01*
X164008233Y-131491850D01*
X163965000Y-131709197D01*
X163965000Y-131930803D01*
X164008233Y-132148150D01*
X164063277Y-132281038D01*
X163981815Y-132362500D01*
X162941481Y-132362500D01*
X162941457Y-132362257D01*
X162912217Y-132265866D01*
X162864734Y-132177031D01*
X162800833Y-132099167D01*
X162722969Y-132035266D01*
X162634134Y-131987783D01*
X162537743Y-131958543D01*
X162437500Y-131948670D01*
X161962500Y-131948670D01*
X161862257Y-131958543D01*
X161765866Y-131987783D01*
X161677031Y-132035266D01*
X161599167Y-132099167D01*
X161535266Y-132177031D01*
X161487783Y-132265866D01*
X161458543Y-132362257D01*
X161448670Y-132462500D01*
X161448670Y-132948145D01*
X161118548Y-133278267D01*
X161103290Y-133290789D01*
X161090768Y-133306047D01*
X161090765Y-133306050D01*
X161053303Y-133351698D01*
X161016161Y-133421186D01*
X160993288Y-133496587D01*
X160985565Y-133575000D01*
X160987501Y-133594656D01*
X160987501Y-133873636D01*
X160940866Y-133887783D01*
X160852031Y-133935266D01*
X160774167Y-133999167D01*
X160710266Y-134077031D01*
X160662783Y-134165866D01*
X160633543Y-134262257D01*
X160623670Y-134362500D01*
X160623670Y-134837500D01*
X160633543Y-134937743D01*
X160662783Y-135034134D01*
X160710266Y-135122969D01*
X160774167Y-135200833D01*
X160852031Y-135264734D01*
X160940866Y-135312217D01*
X161037257Y-135341457D01*
X161137500Y-135351330D01*
X161637500Y-135351330D01*
X161737743Y-135341457D01*
X161834134Y-135312217D01*
X161922969Y-135264734D01*
X162000833Y-135200833D01*
X162064734Y-135122969D01*
X162112217Y-135034134D01*
X162141457Y-134937743D01*
X162151330Y-134837500D01*
X162151330Y-134362500D01*
X162448670Y-134362500D01*
X162448670Y-134837500D01*
X162458543Y-134937743D01*
X162487783Y-135034134D01*
X162535266Y-135122969D01*
X162599167Y-135200833D01*
X162677031Y-135264734D01*
X162765866Y-135312217D01*
X162812500Y-135326363D01*
X162812501Y-136235958D01*
X162794704Y-136269253D01*
X162778980Y-136321091D01*
X162773670Y-136375000D01*
X162773670Y-136825000D01*
X162778980Y-136878909D01*
X162794704Y-136930747D01*
X162820240Y-136978521D01*
X162854605Y-137020395D01*
X162896479Y-137054760D01*
X162944253Y-137080296D01*
X162996091Y-137096020D01*
X163050000Y-137101330D01*
X163650000Y-137101330D01*
X163703909Y-137096020D01*
X163755747Y-137080296D01*
X163803521Y-137054760D01*
X163845395Y-137020395D01*
X163879760Y-136978521D01*
X163905296Y-136930747D01*
X163921020Y-136878909D01*
X163926330Y-136825000D01*
X163926330Y-136375000D01*
X163921020Y-136321091D01*
X163905296Y-136269253D01*
X163879760Y-136221479D01*
X163845395Y-136179605D01*
X163803521Y-136145240D01*
X163755747Y-136119704D01*
X163703909Y-136103980D01*
X163650000Y-136098670D01*
X163612500Y-136098670D01*
X163612500Y-135326363D01*
X163659134Y-135312217D01*
X163747969Y-135264734D01*
X163825833Y-135200833D01*
X163889734Y-135122969D01*
X163937217Y-135034134D01*
X163966457Y-134937743D01*
X163976330Y-134837500D01*
X163976330Y-134362500D01*
X163966457Y-134262257D01*
X163937217Y-134165866D01*
X163889734Y-134077031D01*
X163825833Y-133999167D01*
X163747969Y-133935266D01*
X163659134Y-133887783D01*
X163562743Y-133858543D01*
X163462500Y-133848670D01*
X162962500Y-133848670D01*
X162862257Y-133858543D01*
X162765866Y-133887783D01*
X162677031Y-133935266D01*
X162599167Y-133999167D01*
X162535266Y-134077031D01*
X162487783Y-134165866D01*
X162458543Y-134262257D01*
X162448670Y-134362500D01*
X162151330Y-134362500D01*
X162141457Y-134262257D01*
X162112217Y-134165866D01*
X162064734Y-134077031D01*
X162000833Y-133999167D01*
X161922969Y-133935266D01*
X161834134Y-133887783D01*
X161787500Y-133873637D01*
X161787500Y-133740685D01*
X161952809Y-133575376D01*
X161962500Y-133576330D01*
X162437500Y-133576330D01*
X162537743Y-133566457D01*
X162634134Y-133537217D01*
X162722969Y-133489734D01*
X162800833Y-133425833D01*
X162864734Y-133347969D01*
X162912217Y-133259134D01*
X162941457Y-133162743D01*
X162941481Y-133162500D01*
X164127854Y-133162500D01*
X164147500Y-133164435D01*
X164167146Y-133162500D01*
X164167147Y-133162500D01*
X164225914Y-133156712D01*
X164301314Y-133133840D01*
X164370803Y-133096697D01*
X164431711Y-133046711D01*
X164444237Y-133031448D01*
X164628962Y-132846723D01*
X164690000Y-132872006D01*
X164690001Y-135570344D01*
X164688065Y-135590000D01*
X164695788Y-135668413D01*
X164718661Y-135743814D01*
X164755803Y-135813302D01*
X164793265Y-135858950D01*
X164793268Y-135858953D01*
X164805790Y-135874211D01*
X164821048Y-135886733D01*
X164973670Y-136039355D01*
X164973670Y-137450000D01*
X164978980Y-137503909D01*
X164994704Y-137555747D01*
X165020240Y-137603521D01*
X165054605Y-137645395D01*
X165096479Y-137679760D01*
X165134345Y-137700000D01*
X157647571Y-137700000D01*
X157637217Y-137665866D01*
X157589734Y-137577031D01*
X157525833Y-137499167D01*
X157447969Y-137435266D01*
X157359134Y-137387783D01*
X157262743Y-137358543D01*
X157162500Y-137348670D01*
X156662500Y-137348670D01*
X156562257Y-137358543D01*
X156465866Y-137387783D01*
X156377031Y-137435266D01*
X156299167Y-137499167D01*
X156235266Y-137577031D01*
X156187783Y-137665866D01*
X156158543Y-137762257D01*
X156148670Y-137862500D01*
X156148670Y-138337500D01*
X156158543Y-138437743D01*
X156187783Y-138534134D01*
X156235266Y-138622969D01*
X156299167Y-138700833D01*
X156359077Y-138750000D01*
X155640923Y-138750000D01*
X155700833Y-138700833D01*
X155764734Y-138622969D01*
X155812217Y-138534134D01*
X155841457Y-138437743D01*
X155851330Y-138337500D01*
X155851330Y-137862500D01*
X155841457Y-137762257D01*
X155812217Y-137665866D01*
X155764734Y-137577031D01*
X155700833Y-137499167D01*
X155622969Y-137435266D01*
X155534134Y-137387783D01*
X155437743Y-137358543D01*
X155337500Y-137348670D01*
X154837500Y-137348670D01*
X154771905Y-137355130D01*
X154391775Y-136975000D01*
X156923669Y-136975000D01*
X156928979Y-137028910D01*
X156944703Y-137080747D01*
X156970239Y-137128521D01*
X157004604Y-137170396D01*
X157046479Y-137204761D01*
X157094253Y-137230297D01*
X157146090Y-137246021D01*
X157200000Y-137251331D01*
X157593750Y-137250000D01*
X157662500Y-137181250D01*
X157662500Y-136525000D01*
X157712500Y-136525000D01*
X157712500Y-137181250D01*
X157781250Y-137250000D01*
X158175000Y-137251331D01*
X158228910Y-137246021D01*
X158280747Y-137230297D01*
X158328521Y-137204761D01*
X158370396Y-137170396D01*
X158404761Y-137128521D01*
X158430297Y-137080747D01*
X158446021Y-137028910D01*
X158451331Y-136975000D01*
X158450000Y-136593750D01*
X158381250Y-136525000D01*
X157712500Y-136525000D01*
X157662500Y-136525000D01*
X156993750Y-136525000D01*
X156925000Y-136593750D01*
X156923669Y-136975000D01*
X154391775Y-136975000D01*
X153441775Y-136025000D01*
X156923669Y-136025000D01*
X156925000Y-136406250D01*
X156993750Y-136475000D01*
X157662500Y-136475000D01*
X157662500Y-135818750D01*
X157712500Y-135818750D01*
X157712500Y-136475000D01*
X158381250Y-136475000D01*
X158450000Y-136406250D01*
X158451331Y-136025000D01*
X158446021Y-135971090D01*
X158430297Y-135919253D01*
X158404761Y-135871479D01*
X158370396Y-135829604D01*
X158328521Y-135795239D01*
X158280747Y-135769703D01*
X158228910Y-135753979D01*
X158175000Y-135748669D01*
X157781250Y-135750000D01*
X157712500Y-135818750D01*
X157662500Y-135818750D01*
X157593750Y-135750000D01*
X157200000Y-135748669D01*
X157146090Y-135753979D01*
X157094253Y-135769703D01*
X157046479Y-135795239D01*
X157004604Y-135829604D01*
X156970239Y-135871479D01*
X156944703Y-135919253D01*
X156928979Y-135971090D01*
X156923669Y-136025000D01*
X153441775Y-136025000D01*
X152691775Y-135275000D01*
X153423669Y-135275000D01*
X153428979Y-135328910D01*
X153444703Y-135380747D01*
X153470239Y-135428521D01*
X153504604Y-135470396D01*
X153546479Y-135504761D01*
X153594253Y-135530297D01*
X153646090Y-135546021D01*
X153700000Y-135551331D01*
X154143750Y-135550000D01*
X154212500Y-135481250D01*
X154212500Y-134825000D01*
X154262500Y-134825000D01*
X154262500Y-135481250D01*
X154331250Y-135550000D01*
X154775000Y-135551331D01*
X154828910Y-135546021D01*
X154880747Y-135530297D01*
X154928521Y-135504761D01*
X154970396Y-135470396D01*
X155004761Y-135428521D01*
X155030297Y-135380747D01*
X155046021Y-135328910D01*
X155051331Y-135275000D01*
X155050000Y-134893750D01*
X154981250Y-134825000D01*
X154262500Y-134825000D01*
X154212500Y-134825000D01*
X153493750Y-134825000D01*
X153425000Y-134893750D01*
X153423669Y-135275000D01*
X152691775Y-135275000D01*
X151741775Y-134325000D01*
X153423669Y-134325000D01*
X153425000Y-134706250D01*
X153493750Y-134775000D01*
X154212500Y-134775000D01*
X154212500Y-134118750D01*
X154143750Y-134050000D01*
X153700000Y-134048669D01*
X153646090Y-134053979D01*
X153594253Y-134069703D01*
X153546479Y-134095239D01*
X153504604Y-134129604D01*
X153470239Y-134171479D01*
X153444703Y-134219253D01*
X153428979Y-134271090D01*
X153423669Y-134325000D01*
X151741775Y-134325000D01*
X151175001Y-133758226D01*
X151175001Y-132444647D01*
X151176936Y-132425001D01*
X151169213Y-132346587D01*
X151146341Y-132271186D01*
X151109198Y-132201698D01*
X151071736Y-132156050D01*
X151071734Y-132156048D01*
X151059212Y-132140790D01*
X151043955Y-132128269D01*
X150726330Y-131810644D01*
X150726330Y-131250000D01*
X150721020Y-131196091D01*
X150705296Y-131144253D01*
X150679760Y-131096479D01*
X150645395Y-131054605D01*
X150603521Y-131020240D01*
X150555747Y-130994704D01*
X150503909Y-130978980D01*
X150450000Y-130973670D01*
X149550000Y-130973670D01*
X149496091Y-130978980D01*
X149444253Y-130994704D01*
X149396479Y-131020240D01*
X149354605Y-131054605D01*
X149320240Y-131096479D01*
X149294704Y-131144253D01*
X149278980Y-131196091D01*
X149273670Y-131250000D01*
X149273670Y-132050000D01*
X149278980Y-132103909D01*
X149294704Y-132155747D01*
X149320240Y-132203521D01*
X149354605Y-132245395D01*
X149396479Y-132279760D01*
X149444253Y-132305296D01*
X149496091Y-132321020D01*
X149550000Y-132326330D01*
X150110644Y-132326330D01*
X150375001Y-132590687D01*
X150375001Y-132873670D01*
X149550000Y-132873670D01*
X149496091Y-132878980D01*
X149444253Y-132894704D01*
X149396479Y-132920240D01*
X149354605Y-132954605D01*
X149320240Y-132996479D01*
X149294704Y-133044253D01*
X149278980Y-133096091D01*
X149273670Y-133150000D01*
X149273670Y-133920118D01*
X149185466Y-133831914D01*
X149177632Y-133822368D01*
X149139564Y-133791127D01*
X149096134Y-133767913D01*
X149049008Y-133753618D01*
X149012275Y-133750000D01*
X149000000Y-133748791D01*
X148987725Y-133750000D01*
X140353553Y-133750000D01*
X140250000Y-133646447D01*
X140250000Y-133015657D01*
X140270239Y-133053521D01*
X140304604Y-133095396D01*
X140346479Y-133129761D01*
X140394253Y-133155297D01*
X140446090Y-133171021D01*
X140500000Y-133176331D01*
X143406250Y-133175000D01*
X143475000Y-133106250D01*
X143475000Y-132025000D01*
X143525000Y-132025000D01*
X143525000Y-133106250D01*
X143593750Y-133175000D01*
X146500000Y-133176331D01*
X146553910Y-133171021D01*
X146605747Y-133155297D01*
X146653521Y-133129761D01*
X146695396Y-133095396D01*
X146729761Y-133053521D01*
X146755297Y-133005747D01*
X146771021Y-132953910D01*
X146776331Y-132900000D01*
X146775000Y-132093750D01*
X146706250Y-132025000D01*
X143525000Y-132025000D01*
X143475000Y-132025000D01*
X143455000Y-132025000D01*
X143455000Y-131975000D01*
X143475000Y-131975000D01*
X143475000Y-130893750D01*
X143525000Y-130893750D01*
X143525000Y-131975000D01*
X146706250Y-131975000D01*
X146775000Y-131906250D01*
X146776301Y-131118091D01*
X146795239Y-131153521D01*
X146829604Y-131195396D01*
X146871479Y-131229761D01*
X146919253Y-131255297D01*
X146971090Y-131271021D01*
X147025000Y-131276331D01*
X147406250Y-131275000D01*
X147475000Y-131206250D01*
X147475000Y-130537500D01*
X147525000Y-130537500D01*
X147525000Y-131206250D01*
X147593750Y-131275000D01*
X147975000Y-131276331D01*
X148028910Y-131271021D01*
X148080747Y-131255297D01*
X148128521Y-131229761D01*
X148170396Y-131195396D01*
X148204761Y-131153521D01*
X148230297Y-131105747D01*
X148246021Y-131053910D01*
X148251331Y-131000000D01*
X148250000Y-130606250D01*
X148181250Y-130537500D01*
X147525000Y-130537500D01*
X147475000Y-130537500D01*
X146818750Y-130537500D01*
X146750000Y-130606250D01*
X146748730Y-130981967D01*
X146729761Y-130946479D01*
X146695396Y-130904604D01*
X146653521Y-130870239D01*
X146605747Y-130844703D01*
X146553910Y-130828979D01*
X146500000Y-130823669D01*
X143593750Y-130825000D01*
X143525000Y-130893750D01*
X143475000Y-130893750D01*
X143406250Y-130825000D01*
X140500000Y-130823669D01*
X140446090Y-130828979D01*
X140394253Y-130844703D01*
X140346479Y-130870239D01*
X140304604Y-130904604D01*
X140270239Y-130946479D01*
X140250000Y-130984343D01*
X140250000Y-130025000D01*
X146748669Y-130025000D01*
X146750000Y-130418750D01*
X146818750Y-130487500D01*
X147475000Y-130487500D01*
X147475000Y-129818750D01*
X147525000Y-129818750D01*
X147525000Y-130487500D01*
X148181250Y-130487500D01*
X148218750Y-130450000D01*
X148673669Y-130450000D01*
X148678979Y-130503910D01*
X148694703Y-130555747D01*
X148720239Y-130603521D01*
X148754604Y-130645396D01*
X148796479Y-130679761D01*
X148844253Y-130705297D01*
X148896090Y-130721021D01*
X148950000Y-130726331D01*
X149306250Y-130725000D01*
X149375000Y-130656250D01*
X149375000Y-130075000D01*
X149425000Y-130075000D01*
X149425000Y-130656250D01*
X149493750Y-130725000D01*
X149850000Y-130726331D01*
X149903910Y-130721021D01*
X149955747Y-130705297D01*
X150003521Y-130679761D01*
X150045396Y-130645396D01*
X150079761Y-130603521D01*
X150105297Y-130555747D01*
X150121021Y-130503910D01*
X150126331Y-130450000D01*
X150125000Y-130143750D01*
X150056250Y-130075000D01*
X149425000Y-130075000D01*
X149375000Y-130075000D01*
X148743750Y-130075000D01*
X148675000Y-130143750D01*
X148673669Y-130450000D01*
X148218750Y-130450000D01*
X148250000Y-130418750D01*
X148251331Y-130025000D01*
X148246021Y-129971090D01*
X148230297Y-129919253D01*
X148204761Y-129871479D01*
X148170396Y-129829604D01*
X148128521Y-129795239D01*
X148080747Y-129769703D01*
X148028910Y-129753979D01*
X147975000Y-129748669D01*
X147593750Y-129750000D01*
X147525000Y-129818750D01*
X147475000Y-129818750D01*
X147406250Y-129750000D01*
X147025000Y-129748669D01*
X146971090Y-129753979D01*
X146919253Y-129769703D01*
X146871479Y-129795239D01*
X146829604Y-129829604D01*
X146795239Y-129871479D01*
X146769703Y-129919253D01*
X146753979Y-129971090D01*
X146748669Y-130025000D01*
X140250000Y-130025000D01*
X140250000Y-129650000D01*
X148673669Y-129650000D01*
X148675000Y-129956250D01*
X148743750Y-130025000D01*
X149375000Y-130025000D01*
X149375000Y-129443750D01*
X149425000Y-129443750D01*
X149425000Y-130025000D01*
X150056250Y-130025000D01*
X150125000Y-129956250D01*
X150126331Y-129650000D01*
X150121021Y-129596090D01*
X150105297Y-129544253D01*
X150079761Y-129496479D01*
X150045396Y-129454604D01*
X150003521Y-129420239D01*
X149955747Y-129394703D01*
X149903910Y-129378979D01*
X149850000Y-129373669D01*
X149493750Y-129375000D01*
X149425000Y-129443750D01*
X149375000Y-129443750D01*
X149306250Y-129375000D01*
X148950000Y-129373669D01*
X148896090Y-129378979D01*
X148844253Y-129394703D01*
X148796479Y-129420239D01*
X148754604Y-129454604D01*
X148720239Y-129496479D01*
X148694703Y-129544253D01*
X148678979Y-129596090D01*
X148673669Y-129650000D01*
X140250000Y-129650000D01*
X140250000Y-127552491D01*
X140278959Y-127647954D01*
X140346079Y-127773527D01*
X140436407Y-127883593D01*
X140546473Y-127973921D01*
X140672046Y-128041041D01*
X140808300Y-128082374D01*
X140950000Y-128096330D01*
X143810645Y-128096330D01*
X144670767Y-128956453D01*
X144683289Y-128971711D01*
X144698547Y-128984233D01*
X144698549Y-128984235D01*
X144744197Y-129021697D01*
X144813686Y-129058840D01*
X144889086Y-129081712D01*
X144967500Y-129089435D01*
X144987147Y-129087500D01*
X146773637Y-129087500D01*
X146787783Y-129134134D01*
X146835266Y-129222969D01*
X146899167Y-129300833D01*
X146977031Y-129364734D01*
X147065866Y-129412217D01*
X147162257Y-129441457D01*
X147262500Y-129451330D01*
X147737500Y-129451330D01*
X147837743Y-129441457D01*
X147934134Y-129412217D01*
X148022969Y-129364734D01*
X148100833Y-129300833D01*
X148164734Y-129222969D01*
X148212217Y-129134134D01*
X148226363Y-129087500D01*
X148842854Y-129087500D01*
X148862500Y-129089435D01*
X148882146Y-129087500D01*
X148882147Y-129087500D01*
X148940914Y-129081712D01*
X149016314Y-129058840D01*
X149085803Y-129021697D01*
X149146711Y-128971711D01*
X149159237Y-128956448D01*
X149289355Y-128826330D01*
X149850000Y-128826330D01*
X149903909Y-128821020D01*
X149955747Y-128805296D01*
X150003521Y-128779760D01*
X150045395Y-128745395D01*
X150079760Y-128703521D01*
X150105296Y-128655747D01*
X150121020Y-128603909D01*
X150126330Y-128550000D01*
X150126330Y-127750000D01*
X150121020Y-127696091D01*
X150105296Y-127644253D01*
X150079760Y-127596479D01*
X150045395Y-127554605D01*
X150003521Y-127520240D01*
X149955747Y-127494704D01*
X149903909Y-127478980D01*
X149850000Y-127473670D01*
X148950000Y-127473670D01*
X148896091Y-127478980D01*
X148844253Y-127494704D01*
X148796479Y-127520240D01*
X148754605Y-127554605D01*
X148720240Y-127596479D01*
X148694704Y-127644253D01*
X148678980Y-127696091D01*
X148673670Y-127750000D01*
X148673670Y-128287500D01*
X148226363Y-128287500D01*
X148212217Y-128240866D01*
X148164734Y-128152031D01*
X148100833Y-128074167D01*
X148022969Y-128010266D01*
X147934134Y-127962783D01*
X147837743Y-127933543D01*
X147737500Y-127923670D01*
X147262500Y-127923670D01*
X147162257Y-127933543D01*
X147065866Y-127962783D01*
X146977031Y-128010266D01*
X146899167Y-128074167D01*
X146835266Y-128152031D01*
X146787783Y-128240866D01*
X146773637Y-128287500D01*
X145133186Y-128287500D01*
X144942016Y-128096330D01*
X146050000Y-128096330D01*
X146191700Y-128082374D01*
X146327954Y-128041041D01*
X146453527Y-127973921D01*
X146563593Y-127883593D01*
X146653921Y-127773527D01*
X146721041Y-127647954D01*
X146762374Y-127511700D01*
X146776330Y-127370000D01*
X146776330Y-126850000D01*
X147298669Y-126850000D01*
X147303979Y-126903910D01*
X147319703Y-126955747D01*
X147345239Y-127003521D01*
X147379604Y-127045396D01*
X147421479Y-127079761D01*
X147469253Y-127105297D01*
X147521090Y-127121021D01*
X147575000Y-127126331D01*
X147706250Y-127125000D01*
X147775000Y-127056250D01*
X147775000Y-126575000D01*
X147825000Y-126575000D01*
X147825000Y-127056250D01*
X147893750Y-127125000D01*
X148025000Y-127126331D01*
X148078910Y-127121021D01*
X148130747Y-127105297D01*
X148178521Y-127079761D01*
X148220396Y-127045396D01*
X148254761Y-127003521D01*
X148280297Y-126955747D01*
X148296021Y-126903910D01*
X148301331Y-126850000D01*
X148300000Y-126643750D01*
X148231250Y-126575000D01*
X147825000Y-126575000D01*
X147775000Y-126575000D01*
X147368750Y-126575000D01*
X147300000Y-126643750D01*
X147298669Y-126850000D01*
X146776330Y-126850000D01*
X146776330Y-126470000D01*
X146762374Y-126328300D01*
X146738622Y-126250000D01*
X147298669Y-126250000D01*
X147300000Y-126456250D01*
X147368750Y-126525000D01*
X147775000Y-126525000D01*
X147775000Y-126043750D01*
X147825000Y-126043750D01*
X147825000Y-126525000D01*
X148231250Y-126525000D01*
X148300000Y-126456250D01*
X148301331Y-126250000D01*
X148296021Y-126196090D01*
X148280297Y-126144253D01*
X148254761Y-126096479D01*
X148220396Y-126054604D01*
X148178521Y-126020239D01*
X148130747Y-125994703D01*
X148078910Y-125978979D01*
X148025000Y-125973669D01*
X147893750Y-125975000D01*
X147825000Y-126043750D01*
X147775000Y-126043750D01*
X147706250Y-125975000D01*
X147575000Y-125973669D01*
X147521090Y-125978979D01*
X147469253Y-125994703D01*
X147421479Y-126020239D01*
X147379604Y-126054604D01*
X147345239Y-126096479D01*
X147319703Y-126144253D01*
X147303979Y-126196090D01*
X147298669Y-126250000D01*
X146738622Y-126250000D01*
X146721041Y-126192046D01*
X146653921Y-126066473D01*
X146563593Y-125956407D01*
X146453527Y-125866079D01*
X146327954Y-125798959D01*
X146191700Y-125757626D01*
X146050000Y-125743670D01*
X140950000Y-125743670D01*
X140808300Y-125757626D01*
X140672046Y-125798959D01*
X140546473Y-125866079D01*
X140436407Y-125956407D01*
X140346079Y-126066473D01*
X140278959Y-126192046D01*
X140250000Y-126287509D01*
X140250000Y-122472491D01*
X140278959Y-122567954D01*
X140346079Y-122693527D01*
X140436407Y-122803593D01*
X140546473Y-122893921D01*
X140672046Y-122961041D01*
X140808300Y-123002374D01*
X140950000Y-123016330D01*
X146050000Y-123016330D01*
X146191700Y-123002374D01*
X146298670Y-122969924D01*
X146298670Y-123275000D01*
X146308783Y-123377682D01*
X146338734Y-123476418D01*
X146387373Y-123567413D01*
X146452828Y-123647172D01*
X146532587Y-123712627D01*
X146623582Y-123761266D01*
X146722318Y-123791217D01*
X146825000Y-123801330D01*
X147500000Y-123801330D01*
X147602682Y-123791217D01*
X147701418Y-123761266D01*
X147721034Y-123750781D01*
X147598145Y-123873670D01*
X147575000Y-123873670D01*
X147521091Y-123878980D01*
X147469253Y-123894704D01*
X147421479Y-123920240D01*
X147379605Y-123954605D01*
X147345240Y-123996479D01*
X147319704Y-124044253D01*
X147303980Y-124096091D01*
X147298670Y-124150000D01*
X147298670Y-124750000D01*
X147303980Y-124803909D01*
X147319704Y-124855747D01*
X147345240Y-124903521D01*
X147379605Y-124945395D01*
X147421479Y-124979760D01*
X147469253Y-125005296D01*
X147521091Y-125021020D01*
X147575000Y-125026330D01*
X148025000Y-125026330D01*
X148078909Y-125021020D01*
X148130747Y-125005296D01*
X148178521Y-124979760D01*
X148220395Y-124945395D01*
X148254760Y-124903521D01*
X148280296Y-124855747D01*
X148296020Y-124803909D01*
X148301330Y-124750000D01*
X148301330Y-124301855D01*
X148810655Y-123792531D01*
X148837501Y-123795175D01*
X148837501Y-123967844D01*
X148835565Y-123987500D01*
X148843288Y-124065913D01*
X148866161Y-124141314D01*
X148903303Y-124210802D01*
X148940765Y-124256450D01*
X148940768Y-124256453D01*
X148953290Y-124271711D01*
X148968548Y-124284233D01*
X149673670Y-124989356D01*
X149673670Y-125225000D01*
X149678980Y-125278909D01*
X149694704Y-125330747D01*
X149720240Y-125378521D01*
X149754605Y-125420395D01*
X149796479Y-125454760D01*
X149844253Y-125480296D01*
X149896091Y-125496020D01*
X149950000Y-125501330D01*
X150550000Y-125501330D01*
X150603909Y-125496020D01*
X150655747Y-125480296D01*
X150703521Y-125454760D01*
X150745395Y-125420395D01*
X150779760Y-125378521D01*
X150805296Y-125330747D01*
X150821020Y-125278909D01*
X150826330Y-125225000D01*
X150826330Y-124775000D01*
X150821020Y-124721091D01*
X150805296Y-124669253D01*
X150779760Y-124621479D01*
X150745395Y-124579605D01*
X150703521Y-124545240D01*
X150655747Y-124519704D01*
X150603909Y-124503980D01*
X150550000Y-124498670D01*
X150314356Y-124498670D01*
X149637500Y-123821815D01*
X149637500Y-123795174D01*
X149677682Y-123791217D01*
X149776418Y-123761266D01*
X149867413Y-123712627D01*
X149947172Y-123647172D01*
X150012627Y-123567413D01*
X150061266Y-123476418D01*
X150091217Y-123377682D01*
X150101330Y-123275000D01*
X150101330Y-122325000D01*
X150091217Y-122222318D01*
X150061266Y-122123582D01*
X150012627Y-122032587D01*
X149947172Y-121952828D01*
X149867413Y-121887373D01*
X149776418Y-121838734D01*
X149677682Y-121808783D01*
X149575000Y-121798670D01*
X148900000Y-121798670D01*
X148797318Y-121808783D01*
X148698582Y-121838734D01*
X148607587Y-121887373D01*
X148527828Y-121952828D01*
X148462373Y-122032587D01*
X148413734Y-122123582D01*
X148383783Y-122222318D01*
X148373670Y-122325000D01*
X148373670Y-123098144D01*
X147975781Y-123496034D01*
X147986266Y-123476418D01*
X148016217Y-123377682D01*
X148026330Y-123275000D01*
X148026330Y-122325000D01*
X148016217Y-122222318D01*
X147986266Y-122123582D01*
X147937627Y-122032587D01*
X147872172Y-121952828D01*
X147792413Y-121887373D01*
X147701418Y-121838734D01*
X147602682Y-121808783D01*
X147500000Y-121798670D01*
X146825000Y-121798670D01*
X146776330Y-121803463D01*
X146776330Y-121390000D01*
X146762374Y-121248300D01*
X146721041Y-121112046D01*
X146653921Y-120986473D01*
X146563593Y-120876407D01*
X146453527Y-120786079D01*
X146327954Y-120718959D01*
X146191700Y-120677626D01*
X146050000Y-120663670D01*
X140950000Y-120663670D01*
X140808300Y-120677626D01*
X140672046Y-120718959D01*
X140546473Y-120786079D01*
X140436407Y-120876407D01*
X140346079Y-120986473D01*
X140278959Y-121112046D01*
X140250000Y-121207509D01*
X140250000Y-120103553D01*
X140353553Y-120000000D01*
X155237725Y-120000000D01*
X155250000Y-120001209D01*
X155299008Y-119996382D01*
X155327547Y-119987725D01*
X155346134Y-119982087D01*
X155389564Y-119958873D01*
X155427632Y-119927632D01*
X155435466Y-119918086D01*
X155528552Y-119825000D01*
X163718934Y-119825000D01*
X166446967Y-122553033D01*
%TA.AperFunction,Conductor*%
D24*
G36*
X166446967Y-122553033D02*
G01*
X166458332Y-122562360D01*
X166471299Y-122569291D01*
X166485368Y-122573559D01*
X166500000Y-122575000D01*
X183605362Y-122575000D01*
X185500000Y-124118779D01*
X185500001Y-134477323D01*
X185485747Y-134469704D01*
X185433909Y-134453980D01*
X185380000Y-134448670D01*
X185000000Y-134448670D01*
X185000000Y-132819635D01*
X185001934Y-132799999D01*
X185000000Y-132780363D01*
X185000000Y-132780353D01*
X184994212Y-132721586D01*
X184971340Y-132646186D01*
X184934197Y-132576697D01*
X184907571Y-132544253D01*
X184896735Y-132531049D01*
X184896733Y-132531047D01*
X184884211Y-132515789D01*
X184868953Y-132503267D01*
X183751330Y-131385645D01*
X183751330Y-131150000D01*
X183746020Y-131096091D01*
X183730296Y-131044253D01*
X183704760Y-130996479D01*
X183670395Y-130954605D01*
X183628521Y-130920240D01*
X183580747Y-130894704D01*
X183528909Y-130878980D01*
X183475000Y-130873670D01*
X183025000Y-130873670D01*
X182971091Y-130878980D01*
X182919253Y-130894704D01*
X182871479Y-130920240D01*
X182829605Y-130954605D01*
X182795240Y-130996479D01*
X182769704Y-131044253D01*
X182767961Y-131050000D01*
X181759646Y-131050000D01*
X181739999Y-131048065D01*
X181720353Y-131050000D01*
X181661586Y-131055788D01*
X181586186Y-131078660D01*
X181516697Y-131115803D01*
X181471049Y-131153265D01*
X181471047Y-131153267D01*
X181456330Y-131165345D01*
X181456330Y-130970000D01*
X181451020Y-130916091D01*
X181435296Y-130864253D01*
X181409760Y-130816479D01*
X181375395Y-130774605D01*
X181333521Y-130740240D01*
X181285747Y-130714704D01*
X181233909Y-130698980D01*
X181180000Y-130693670D01*
X179480000Y-130693670D01*
X179426091Y-130698980D01*
X179374253Y-130714704D01*
X179326479Y-130740240D01*
X179284605Y-130774605D01*
X179250240Y-130816479D01*
X179224704Y-130864253D01*
X179208980Y-130916091D01*
X179203670Y-130970000D01*
X179203670Y-132670000D01*
X179208980Y-132723909D01*
X179224704Y-132775747D01*
X179250240Y-132823521D01*
X179284605Y-132865395D01*
X179326479Y-132899760D01*
X179374253Y-132925296D01*
X179426091Y-132941020D01*
X179480000Y-132946330D01*
X181180000Y-132946330D01*
X181233909Y-132941020D01*
X181285747Y-132925296D01*
X181333521Y-132899760D01*
X181375395Y-132865395D01*
X181409760Y-132823521D01*
X181435296Y-132775747D01*
X181451020Y-132723909D01*
X181456330Y-132670000D01*
X181456330Y-132211811D01*
X181523814Y-132191340D01*
X181593303Y-132154197D01*
X181654211Y-132104211D01*
X181666737Y-132088948D01*
X181905686Y-131850000D01*
X182767961Y-131850000D01*
X182769704Y-131855747D01*
X182795240Y-131903521D01*
X182829605Y-131945395D01*
X182871479Y-131979760D01*
X182919253Y-132005296D01*
X182971091Y-132021020D01*
X183025000Y-132026330D01*
X183260645Y-132026330D01*
X184200001Y-132965687D01*
X184200001Y-133909315D01*
X183756450Y-133465765D01*
X183751330Y-133460645D01*
X183751330Y-133250000D01*
X183746020Y-133196091D01*
X183730296Y-133144253D01*
X183704760Y-133096479D01*
X183670395Y-133054605D01*
X183628521Y-133020240D01*
X183580747Y-132994704D01*
X183528909Y-132978980D01*
X183475000Y-132973670D01*
X183025000Y-132973670D01*
X182971091Y-132978980D01*
X182919253Y-132994704D01*
X182871479Y-133020240D01*
X182829605Y-133054605D01*
X182795240Y-133096479D01*
X182769704Y-133144253D01*
X182753980Y-133196091D01*
X182748670Y-133250000D01*
X182748670Y-133850000D01*
X182753980Y-133903909D01*
X182769704Y-133955747D01*
X182795240Y-134003521D01*
X182829605Y-134045395D01*
X182871479Y-134079760D01*
X182919253Y-134105296D01*
X182971091Y-134121020D01*
X183025000Y-134126330D01*
X183285645Y-134126330D01*
X183595000Y-134435686D01*
X183594999Y-136219315D01*
X183452727Y-136361587D01*
X183456331Y-136325000D01*
X183455000Y-136093750D01*
X183386250Y-136025000D01*
X182675000Y-136025000D01*
X182675000Y-136045000D01*
X182625000Y-136045000D01*
X182625000Y-136025000D01*
X181913750Y-136025000D01*
X181845000Y-136093750D01*
X181843669Y-136325000D01*
X181848979Y-136378910D01*
X181864703Y-136430747D01*
X181888357Y-136475001D01*
X181864704Y-136519253D01*
X181855378Y-136550000D01*
X181782147Y-136550000D01*
X181762500Y-136548065D01*
X181684086Y-136555788D01*
X181681820Y-136556475D01*
X181704761Y-136528521D01*
X181730297Y-136480747D01*
X181746021Y-136428910D01*
X181751331Y-136375000D01*
X181750000Y-135981250D01*
X181681250Y-135912500D01*
X181025000Y-135912500D01*
X181025000Y-136581250D01*
X181093750Y-136650000D01*
X181475000Y-136651331D01*
X181498757Y-136648991D01*
X181493549Y-136653265D01*
X181493547Y-136653267D01*
X181478289Y-136665789D01*
X181465767Y-136681047D01*
X181198144Y-136948670D01*
X180762500Y-136948670D01*
X180662257Y-136958543D01*
X180565866Y-136987783D01*
X180477031Y-137035266D01*
X180399167Y-137099167D01*
X180375001Y-137128614D01*
X180375001Y-136606644D01*
X180419253Y-136630297D01*
X180471090Y-136646021D01*
X180525000Y-136651331D01*
X180906250Y-136650000D01*
X180975000Y-136581250D01*
X180975000Y-135912500D01*
X180955000Y-135912500D01*
X180955000Y-135862500D01*
X180975000Y-135862500D01*
X180975000Y-135842500D01*
X181025000Y-135842500D01*
X181025000Y-135862500D01*
X181681250Y-135862500D01*
X181750000Y-135793750D01*
X181751162Y-135450000D01*
X181855378Y-135450000D01*
X181864704Y-135480747D01*
X181888357Y-135524999D01*
X181864703Y-135569253D01*
X181848979Y-135621090D01*
X181843669Y-135675000D01*
X181845000Y-135906250D01*
X181913750Y-135975000D01*
X182625000Y-135975000D01*
X182625000Y-135955000D01*
X182675000Y-135955000D01*
X182675000Y-135975000D01*
X183386250Y-135975000D01*
X183455000Y-135906250D01*
X183456331Y-135675000D01*
X183451021Y-135621090D01*
X183435297Y-135569253D01*
X183411643Y-135524999D01*
X183435296Y-135480747D01*
X183451020Y-135428909D01*
X183456330Y-135375000D01*
X183456330Y-134725000D01*
X183451020Y-134671091D01*
X183435296Y-134619253D01*
X183409760Y-134571479D01*
X183375395Y-134529605D01*
X183333521Y-134495240D01*
X183285747Y-134469704D01*
X183233909Y-134453980D01*
X183180000Y-134448670D01*
X182120000Y-134448670D01*
X182066091Y-134453980D01*
X182014253Y-134469704D01*
X181966479Y-134495240D01*
X181924605Y-134529605D01*
X181890240Y-134571479D01*
X181864704Y-134619253D01*
X181855378Y-134650000D01*
X180574125Y-134650000D01*
X180554489Y-134648066D01*
X180534853Y-134650000D01*
X180534843Y-134650000D01*
X180476076Y-134655788D01*
X180400676Y-134678660D01*
X180331187Y-134715803D01*
X180324139Y-134721587D01*
X180285539Y-134753265D01*
X180285537Y-134753267D01*
X180270279Y-134765789D01*
X180257757Y-134781047D01*
X179706048Y-135332757D01*
X179690791Y-135345278D01*
X179678269Y-135360536D01*
X179678266Y-135360539D01*
X179640804Y-135406187D01*
X179603662Y-135475675D01*
X179580789Y-135551076D01*
X179573066Y-135629489D01*
X179575002Y-135649145D01*
X179575002Y-135784013D01*
X179517145Y-135726156D01*
X179332887Y-135603038D01*
X179128150Y-135518233D01*
X178910803Y-135475000D01*
X178900000Y-135475000D01*
X178900000Y-130165685D01*
X179309536Y-129756149D01*
X179333038Y-129812887D01*
X179456156Y-129997145D01*
X179612855Y-130153844D01*
X179797113Y-130276962D01*
X180001850Y-130361767D01*
X180219197Y-130405000D01*
X180440803Y-130405000D01*
X180658150Y-130361767D01*
X180862887Y-130276962D01*
X181047145Y-130153844D01*
X181203844Y-129997145D01*
X181326962Y-129812887D01*
X181411767Y-129608150D01*
X181455000Y-129390803D01*
X181455000Y-129169197D01*
X181411767Y-128951850D01*
X181326962Y-128747113D01*
X181203844Y-128562855D01*
X181047145Y-128406156D01*
X180862887Y-128283038D01*
X180658150Y-128198233D01*
X180440803Y-128155000D01*
X180219197Y-128155000D01*
X180001850Y-128198233D01*
X179797113Y-128283038D01*
X179612855Y-128406156D01*
X179456156Y-128562855D01*
X179333038Y-128747113D01*
X179277994Y-128880000D01*
X179239647Y-128880000D01*
X179220000Y-128878065D01*
X179141586Y-128885788D01*
X179066186Y-128908660D01*
X178996697Y-128945803D01*
X178951049Y-128983265D01*
X178951047Y-128983267D01*
X178935789Y-128995789D01*
X178923267Y-129011047D01*
X178231052Y-129703263D01*
X178215789Y-129715789D01*
X178165803Y-129776698D01*
X178128660Y-129846187D01*
X178112084Y-129900833D01*
X178105788Y-129921587D01*
X178098065Y-130000000D01*
X178100000Y-130019646D01*
X178100001Y-135714699D01*
X178082855Y-135726156D01*
X177926156Y-135882855D01*
X177803038Y-136067113D01*
X177718233Y-136271850D01*
X177675000Y-136489197D01*
X177675000Y-136710803D01*
X177718233Y-136928150D01*
X177803038Y-137132887D01*
X177926156Y-137317145D01*
X177984012Y-137375001D01*
X177600686Y-137375001D01*
X177286723Y-137061038D01*
X177341767Y-136928150D01*
X177385000Y-136710803D01*
X177385000Y-136489197D01*
X177341767Y-136271850D01*
X177273439Y-136106893D01*
X177294212Y-136038414D01*
X177300000Y-135979647D01*
X177300000Y-135979646D01*
X177301935Y-135960000D01*
X177300000Y-135940353D01*
X177300000Y-127795685D01*
X178466488Y-126629197D01*
X179205000Y-126629197D01*
X179205000Y-126850803D01*
X179248233Y-127068150D01*
X179333038Y-127272887D01*
X179456156Y-127457145D01*
X179612855Y-127613844D01*
X179797113Y-127736962D01*
X180001850Y-127821767D01*
X180219197Y-127865000D01*
X180440803Y-127865000D01*
X180658150Y-127821767D01*
X180862887Y-127736962D01*
X181047145Y-127613844D01*
X181203844Y-127457145D01*
X181326962Y-127272887D01*
X181411767Y-127068150D01*
X181455000Y-126850803D01*
X181455000Y-126629197D01*
X181411767Y-126411850D01*
X181326962Y-126207113D01*
X181203844Y-126022855D01*
X181047145Y-125866156D01*
X180862887Y-125743038D01*
X180658150Y-125658233D01*
X180440803Y-125615000D01*
X180219197Y-125615000D01*
X180001850Y-125658233D01*
X179797113Y-125743038D01*
X179612855Y-125866156D01*
X179456156Y-126022855D01*
X179333038Y-126207113D01*
X179248233Y-126411850D01*
X179205000Y-126629197D01*
X178466488Y-126629197D01*
X179868962Y-125226723D01*
X180001850Y-125281767D01*
X180219197Y-125325000D01*
X180440803Y-125325000D01*
X180658150Y-125281767D01*
X180862887Y-125196962D01*
X181047145Y-125073844D01*
X181203844Y-124917145D01*
X181326962Y-124732887D01*
X181411767Y-124528150D01*
X181455000Y-124310803D01*
X181455000Y-124089197D01*
X181411767Y-123871850D01*
X181326962Y-123667113D01*
X181203844Y-123482855D01*
X181047145Y-123326156D01*
X180862887Y-123203038D01*
X180658150Y-123118233D01*
X180440803Y-123075000D01*
X180219197Y-123075000D01*
X180001850Y-123118233D01*
X179797113Y-123203038D01*
X179612855Y-123326156D01*
X179456156Y-123482855D01*
X179333038Y-123667113D01*
X179248233Y-123871850D01*
X179205000Y-124089197D01*
X179205000Y-124310803D01*
X179248233Y-124528150D01*
X179303277Y-124661038D01*
X176631048Y-127333267D01*
X176615790Y-127345789D01*
X176603268Y-127361047D01*
X176603265Y-127361050D01*
X176565803Y-127406698D01*
X176528661Y-127476186D01*
X176505788Y-127551587D01*
X176498065Y-127630000D01*
X176500001Y-127649657D01*
X176500000Y-133229292D01*
X176481676Y-133163625D01*
X176350486Y-132904379D01*
X176313598Y-132849172D01*
X176116937Y-132718418D01*
X175135355Y-133700000D01*
X176116937Y-134681582D01*
X176313598Y-134550828D01*
X176456268Y-134297719D01*
X176500000Y-134164381D01*
X176500000Y-135500699D01*
X176370803Y-135475000D01*
X176149197Y-135475000D01*
X175931850Y-135518233D01*
X175727113Y-135603038D01*
X175542855Y-135726156D01*
X175386156Y-135882855D01*
X175263038Y-136067113D01*
X175178233Y-136271850D01*
X175135000Y-136489197D01*
X175135000Y-136710803D01*
X175178233Y-136928150D01*
X175263038Y-137132887D01*
X175386156Y-137317145D01*
X175542855Y-137473844D01*
X175727113Y-137596962D01*
X175931850Y-137681767D01*
X176023513Y-137700000D01*
X173956487Y-137700000D01*
X174048150Y-137681767D01*
X174252887Y-137596962D01*
X174437145Y-137473844D01*
X174593844Y-137317145D01*
X174716962Y-137132887D01*
X174801767Y-136928150D01*
X174845000Y-136710803D01*
X174845000Y-136489197D01*
X174801767Y-136271850D01*
X174716962Y-136067113D01*
X174593844Y-135882855D01*
X174437145Y-135726156D01*
X174252887Y-135603038D01*
X174048150Y-135518233D01*
X173830803Y-135475000D01*
X173609197Y-135475000D01*
X173391850Y-135518233D01*
X173270001Y-135568705D01*
X173270001Y-134716937D01*
X174118418Y-134716937D01*
X174249172Y-134913598D01*
X174502281Y-135056268D01*
X174778361Y-135146817D01*
X175066801Y-135181765D01*
X175356517Y-135159770D01*
X175636375Y-135081676D01*
X175895621Y-134950486D01*
X175950828Y-134913598D01*
X176081582Y-134716937D01*
X175100000Y-133735355D01*
X174118418Y-134716937D01*
X173270001Y-134716937D01*
X173270001Y-133666801D01*
X173618235Y-133666801D01*
X173640230Y-133956517D01*
X173718324Y-134236375D01*
X173849514Y-134495621D01*
X173886402Y-134550828D01*
X174083063Y-134681582D01*
X175064645Y-133700000D01*
X174083063Y-132718418D01*
X173886402Y-132849172D01*
X173743732Y-133102281D01*
X173653183Y-133378361D01*
X173618235Y-133666801D01*
X173270001Y-133666801D01*
X173270001Y-132683063D01*
X174118418Y-132683063D01*
X175100000Y-133664645D01*
X176081582Y-132683063D01*
X175950828Y-132486402D01*
X175697719Y-132343732D01*
X175421639Y-132253183D01*
X175133199Y-132218235D01*
X174843483Y-132240230D01*
X174563625Y-132318324D01*
X174304379Y-132449514D01*
X174249172Y-132486402D01*
X174118418Y-132683063D01*
X173270001Y-132683063D01*
X173270001Y-131189644D01*
X173271936Y-131170000D01*
X173268119Y-131131250D01*
X173264213Y-131091587D01*
X173241341Y-131016187D01*
X173204198Y-130946698D01*
X173201779Y-130943750D01*
X173166736Y-130901050D01*
X173166734Y-130901048D01*
X173154212Y-130885790D01*
X173138954Y-130873268D01*
X171276737Y-129011052D01*
X171264211Y-128995789D01*
X171203303Y-128945803D01*
X171133814Y-128908660D01*
X171058414Y-128885788D01*
X170999647Y-128880000D01*
X170999646Y-128880000D01*
X170980000Y-128878065D01*
X170960354Y-128880000D01*
X166142006Y-128880000D01*
X166086962Y-128747113D01*
X165963844Y-128562855D01*
X165807145Y-128406156D01*
X165622887Y-128283038D01*
X165418150Y-128198233D01*
X165200803Y-128155000D01*
X164979197Y-128155000D01*
X164761850Y-128198233D01*
X164557113Y-128283038D01*
X164372855Y-128406156D01*
X164314999Y-128464012D01*
X164314999Y-128080686D01*
X164628962Y-127766723D01*
X164761850Y-127821767D01*
X164979197Y-127865000D01*
X165200803Y-127865000D01*
X165418150Y-127821767D01*
X165622887Y-127736962D01*
X165807145Y-127613844D01*
X165963844Y-127457145D01*
X166086962Y-127272887D01*
X166171767Y-127068150D01*
X166215000Y-126850803D01*
X166215000Y-126629197D01*
X166171767Y-126411850D01*
X166116723Y-126278962D01*
X166533949Y-125861736D01*
X166549212Y-125849210D01*
X166599198Y-125788302D01*
X166636341Y-125718813D01*
X166659213Y-125643413D01*
X166665001Y-125584646D01*
X166665001Y-125584636D01*
X166666935Y-125565000D01*
X166665001Y-125545364D01*
X166665001Y-123109646D01*
X166666936Y-123089999D01*
X166663128Y-123051330D01*
X166659213Y-123011585D01*
X166636341Y-122936185D01*
X166599198Y-122866696D01*
X166549212Y-122805788D01*
X166533950Y-122793263D01*
X164521719Y-120781032D01*
X164509193Y-120765769D01*
X164448285Y-120715783D01*
X164378796Y-120678640D01*
X164303396Y-120655768D01*
X164244629Y-120649980D01*
X164244628Y-120649980D01*
X164224982Y-120648045D01*
X164205336Y-120649980D01*
X155209665Y-120649980D01*
X155190018Y-120648045D01*
X155111604Y-120655768D01*
X155036203Y-120678640D01*
X154966715Y-120715783D01*
X154921067Y-120753245D01*
X154921065Y-120753247D01*
X154905807Y-120765769D01*
X154893285Y-120781027D01*
X151131048Y-124543265D01*
X151115790Y-124555787D01*
X151103268Y-124571045D01*
X151103265Y-124571048D01*
X151065803Y-124616696D01*
X151028661Y-124686184D01*
X151005788Y-124761585D01*
X150998065Y-124839998D01*
X151000001Y-124859654D01*
X151000000Y-128423670D01*
X150950000Y-128423670D01*
X150896091Y-128428980D01*
X150844253Y-128444704D01*
X150796479Y-128470240D01*
X150754605Y-128504605D01*
X150720240Y-128546479D01*
X150694704Y-128594253D01*
X150678980Y-128646091D01*
X150673670Y-128700000D01*
X150673670Y-129500000D01*
X150678980Y-129553909D01*
X150694704Y-129605747D01*
X150720240Y-129653521D01*
X150754605Y-129695395D01*
X150796479Y-129729760D01*
X150844253Y-129755296D01*
X150896091Y-129771020D01*
X150950000Y-129776330D01*
X151005583Y-129776330D01*
X151005788Y-129778413D01*
X151028660Y-129853813D01*
X151065803Y-129923302D01*
X151115789Y-129984211D01*
X151176697Y-130034197D01*
X151246186Y-130071340D01*
X151321586Y-130094212D01*
X151400000Y-130101935D01*
X151478413Y-130094212D01*
X151553813Y-130071340D01*
X151623302Y-130034197D01*
X151684211Y-129984211D01*
X151734197Y-129923303D01*
X151771340Y-129853814D01*
X151794212Y-129778414D01*
X151794417Y-129776330D01*
X151850000Y-129776330D01*
X151903909Y-129771020D01*
X151955747Y-129755296D01*
X152003521Y-129729760D01*
X152045395Y-129695395D01*
X152079760Y-129653521D01*
X152105296Y-129605747D01*
X152121020Y-129553909D01*
X152126330Y-129500000D01*
X152126330Y-128700000D01*
X152121020Y-128646091D01*
X152105296Y-128594253D01*
X152079760Y-128546479D01*
X152045395Y-128504605D01*
X152003521Y-128470240D01*
X151955747Y-128444704D01*
X151903909Y-128428980D01*
X151850000Y-128423670D01*
X151800000Y-128423670D01*
X151800000Y-125340655D01*
X151820240Y-125378521D01*
X151854605Y-125420395D01*
X151896479Y-125454760D01*
X151944253Y-125480296D01*
X151950000Y-125482039D01*
X151950001Y-126330344D01*
X151948065Y-126350000D01*
X151955788Y-126428413D01*
X151978661Y-126503814D01*
X152015803Y-126573302D01*
X152053265Y-126618950D01*
X152053268Y-126618953D01*
X152065790Y-126634211D01*
X152081048Y-126646733D01*
X153132107Y-127697792D01*
X153125000Y-127733518D01*
X153125000Y-127866482D01*
X153150940Y-127996890D01*
X153201823Y-128119732D01*
X153275693Y-128230287D01*
X153369713Y-128324307D01*
X153400000Y-128344544D01*
X153400001Y-128609626D01*
X153352031Y-128635266D01*
X153274167Y-128699167D01*
X153210266Y-128777031D01*
X153162783Y-128865866D01*
X153133543Y-128962257D01*
X153123670Y-129062500D01*
X153123670Y-129537500D01*
X153133543Y-129637743D01*
X153162783Y-129734134D01*
X153210266Y-129822969D01*
X153274167Y-129900833D01*
X153352031Y-129964734D01*
X153440866Y-130012217D01*
X153537257Y-130041457D01*
X153637500Y-130051330D01*
X154123145Y-130051330D01*
X154175001Y-130103186D01*
X154175001Y-130373670D01*
X153450000Y-130373670D01*
X153396091Y-130378980D01*
X153344253Y-130394704D01*
X153296479Y-130420240D01*
X153254605Y-130454605D01*
X153220240Y-130496479D01*
X153194704Y-130544253D01*
X153178980Y-130596091D01*
X153173670Y-130650000D01*
X153173670Y-131550000D01*
X153178980Y-131603909D01*
X153194704Y-131655747D01*
X153220240Y-131703521D01*
X153254605Y-131745395D01*
X153296479Y-131779760D01*
X153344253Y-131805296D01*
X153396091Y-131821020D01*
X153450000Y-131826330D01*
X154175002Y-131826330D01*
X154175002Y-132490677D01*
X154170240Y-132496479D01*
X154144704Y-132544253D01*
X154128980Y-132596091D01*
X154123670Y-132650000D01*
X154123670Y-132700000D01*
X152726330Y-132700000D01*
X152726330Y-132200000D01*
X152721020Y-132146091D01*
X152705296Y-132094253D01*
X152679760Y-132046479D01*
X152645395Y-132004605D01*
X152603521Y-131970240D01*
X152555747Y-131944704D01*
X152503909Y-131928980D01*
X152450000Y-131923670D01*
X151550000Y-131923670D01*
X151496091Y-131928980D01*
X151444253Y-131944704D01*
X151396479Y-131970240D01*
X151354605Y-132004605D01*
X151320240Y-132046479D01*
X151294704Y-132094253D01*
X151278980Y-132146091D01*
X151273670Y-132200000D01*
X151273670Y-133000000D01*
X151278980Y-133053909D01*
X151294704Y-133105747D01*
X151320240Y-133153521D01*
X151354605Y-133195395D01*
X151396479Y-133229760D01*
X151444253Y-133255296D01*
X151496091Y-133271020D01*
X151550000Y-133276330D01*
X152110644Y-133276330D01*
X152203267Y-133368953D01*
X152215789Y-133384211D01*
X152231047Y-133396733D01*
X152231049Y-133396735D01*
X152276697Y-133434197D01*
X152346186Y-133471340D01*
X152421586Y-133494212D01*
X152500000Y-133501935D01*
X152519647Y-133500000D01*
X154123670Y-133500000D01*
X154123670Y-133550000D01*
X154128980Y-133603909D01*
X154144704Y-133655747D01*
X154170240Y-133703521D01*
X154204605Y-133745395D01*
X154246479Y-133779760D01*
X154294253Y-133805296D01*
X154346091Y-133821020D01*
X154400000Y-133826330D01*
X154447377Y-133826330D01*
X154465803Y-133860802D01*
X154503265Y-133906450D01*
X154503268Y-133906453D01*
X154515790Y-133921711D01*
X154531048Y-133934233D01*
X154645871Y-134049056D01*
X154331250Y-134050000D01*
X154262500Y-134118750D01*
X154262500Y-134775000D01*
X154981250Y-134775000D01*
X155050000Y-134706250D01*
X155050880Y-134454066D01*
X155149624Y-134552810D01*
X155148670Y-134562500D01*
X155148670Y-135037500D01*
X155158543Y-135137743D01*
X155187783Y-135234134D01*
X155235266Y-135322969D01*
X155299167Y-135400833D01*
X155377031Y-135464734D01*
X155465866Y-135512217D01*
X155562257Y-135541457D01*
X155662500Y-135551330D01*
X156262500Y-135551330D01*
X156362743Y-135541457D01*
X156459134Y-135512217D01*
X156547969Y-135464734D01*
X156625833Y-135400833D01*
X156689734Y-135322969D01*
X156737217Y-135234134D01*
X156747571Y-135200000D01*
X156990679Y-135200000D01*
X156996479Y-135204760D01*
X157044253Y-135230296D01*
X157096091Y-135246020D01*
X157150000Y-135251330D01*
X157750000Y-135251330D01*
X157803909Y-135246020D01*
X157855747Y-135230296D01*
X157903521Y-135204760D01*
X157945395Y-135170395D01*
X157979760Y-135128521D01*
X158005296Y-135080747D01*
X158019602Y-135033583D01*
X159018963Y-134034223D01*
X159034221Y-134021701D01*
X159050124Y-134002324D01*
X159084207Y-133960793D01*
X159097565Y-133935802D01*
X159121350Y-133891304D01*
X159125001Y-133879270D01*
X159125001Y-134279995D01*
X159096479Y-134295240D01*
X159054605Y-134329605D01*
X159020240Y-134371479D01*
X158994704Y-134419253D01*
X158978980Y-134471091D01*
X158973670Y-134525000D01*
X158973670Y-134975000D01*
X158978980Y-135028909D01*
X158994704Y-135080747D01*
X159020240Y-135128521D01*
X159054605Y-135170395D01*
X159096479Y-135204760D01*
X159112501Y-135213324D01*
X159112500Y-135773637D01*
X159065866Y-135787783D01*
X158977031Y-135835266D01*
X158899167Y-135899167D01*
X158835266Y-135977031D01*
X158787783Y-136065866D01*
X158758543Y-136162257D01*
X158748670Y-136262500D01*
X158748670Y-136737500D01*
X158758543Y-136837743D01*
X158787783Y-136934134D01*
X158835266Y-137022969D01*
X158899167Y-137100833D01*
X158977031Y-137164734D01*
X159065866Y-137212217D01*
X159162257Y-137241457D01*
X159262500Y-137251330D01*
X159762500Y-137251330D01*
X159862743Y-137241457D01*
X159959134Y-137212217D01*
X160047969Y-137164734D01*
X160125833Y-137100833D01*
X160189734Y-137022969D01*
X160202011Y-137000000D01*
X160737867Y-137000000D01*
X160754605Y-137020395D01*
X160796479Y-137054760D01*
X160844253Y-137080296D01*
X160896091Y-137096020D01*
X160950000Y-137101330D01*
X161550000Y-137101330D01*
X161603909Y-137096020D01*
X161655747Y-137080296D01*
X161703521Y-137054760D01*
X161745395Y-137020395D01*
X161779760Y-136978521D01*
X161805296Y-136930747D01*
X161821020Y-136878909D01*
X161826330Y-136825000D01*
X161826330Y-136375000D01*
X161821020Y-136321091D01*
X161805296Y-136269253D01*
X161779760Y-136221479D01*
X161745395Y-136179605D01*
X161703521Y-136145240D01*
X161655747Y-136119704D01*
X161603909Y-136103980D01*
X161550000Y-136098670D01*
X160950000Y-136098670D01*
X160896091Y-136103980D01*
X160844253Y-136119704D01*
X160796479Y-136145240D01*
X160754605Y-136179605D01*
X160737867Y-136200000D01*
X160270174Y-136200000D01*
X160266457Y-136162257D01*
X160237217Y-136065866D01*
X160189734Y-135977031D01*
X160125833Y-135899167D01*
X160047969Y-135835266D01*
X159959134Y-135787783D01*
X159912500Y-135773637D01*
X159912500Y-135243414D01*
X159955747Y-135230296D01*
X160003521Y-135204760D01*
X160045395Y-135170395D01*
X160079760Y-135128521D01*
X160105296Y-135080747D01*
X160121020Y-135028909D01*
X160126330Y-134975000D01*
X160126330Y-134525000D01*
X160121020Y-134471091D01*
X160105296Y-134419253D01*
X160079760Y-134371479D01*
X160045395Y-134329605D01*
X160003521Y-134295240D01*
X159955747Y-134269704D01*
X159925000Y-134260378D01*
X159925000Y-133746406D01*
X159975000Y-133751331D01*
X160081250Y-133750000D01*
X160150000Y-133681250D01*
X160150000Y-132775000D01*
X160200000Y-132775000D01*
X160200000Y-133681250D01*
X160268750Y-133750000D01*
X160375000Y-133751331D01*
X160428910Y-133746021D01*
X160480747Y-133730297D01*
X160528521Y-133704761D01*
X160570396Y-133670396D01*
X160604761Y-133628521D01*
X160630297Y-133580747D01*
X160646021Y-133528910D01*
X160651331Y-133475000D01*
X160650000Y-132843750D01*
X160581250Y-132775000D01*
X160200000Y-132775000D01*
X160150000Y-132775000D01*
X160130000Y-132775000D01*
X160130000Y-132725000D01*
X160150000Y-132725000D01*
X160150000Y-131818750D01*
X160200000Y-131818750D01*
X160200000Y-132725000D01*
X160581250Y-132725000D01*
X160650000Y-132656250D01*
X160651331Y-132025000D01*
X160646021Y-131971090D01*
X160630297Y-131919253D01*
X160604761Y-131871479D01*
X160570396Y-131829604D01*
X160528521Y-131795239D01*
X160480747Y-131769703D01*
X160428910Y-131753979D01*
X160375000Y-131748669D01*
X160268750Y-131750000D01*
X160200000Y-131818750D01*
X160150000Y-131818750D01*
X160081250Y-131750000D01*
X159975000Y-131748669D01*
X159921090Y-131753979D01*
X159869253Y-131769703D01*
X159821479Y-131795239D01*
X159814012Y-131801367D01*
X159769015Y-131777316D01*
X159698418Y-131755901D01*
X159625000Y-131748670D01*
X159425000Y-131748670D01*
X159351582Y-131755901D01*
X159280985Y-131777316D01*
X159215922Y-131812093D01*
X159200000Y-131825160D01*
X159184078Y-131812093D01*
X159119015Y-131777316D01*
X159048418Y-131755901D01*
X158975000Y-131748670D01*
X158775000Y-131748670D01*
X158701582Y-131755901D01*
X158630985Y-131777316D01*
X158585988Y-131801367D01*
X158578521Y-131795239D01*
X158530747Y-131769703D01*
X158478910Y-131753979D01*
X158425000Y-131748669D01*
X158318750Y-131750000D01*
X158250000Y-131818750D01*
X158250000Y-132725000D01*
X158270000Y-132725000D01*
X158270000Y-132775000D01*
X158250000Y-132775000D01*
X158250000Y-132795000D01*
X158200000Y-132795000D01*
X158200000Y-132775000D01*
X157818750Y-132775000D01*
X157750000Y-132843750D01*
X157748669Y-133475000D01*
X157753979Y-133528910D01*
X157769703Y-133580747D01*
X157795239Y-133628521D01*
X157829604Y-133670396D01*
X157871479Y-133704761D01*
X157919253Y-133730297D01*
X157971090Y-133746021D01*
X158025000Y-133751331D01*
X158131250Y-133750000D01*
X158199998Y-133681252D01*
X158199998Y-133721816D01*
X157673145Y-134248670D01*
X157150000Y-134248670D01*
X157096091Y-134253980D01*
X157044253Y-134269704D01*
X156996479Y-134295240D01*
X156954605Y-134329605D01*
X156920240Y-134371479D01*
X156904995Y-134400000D01*
X156747571Y-134400000D01*
X156737217Y-134365866D01*
X156689734Y-134277031D01*
X156625833Y-134199167D01*
X156547969Y-134135266D01*
X156459134Y-134087783D01*
X156362743Y-134058543D01*
X156262500Y-134048670D01*
X155776856Y-134048670D01*
X155430438Y-133702253D01*
X155455296Y-133655747D01*
X155471020Y-133603909D01*
X155476330Y-133550000D01*
X155476330Y-132650000D01*
X155471020Y-132596091D01*
X155455296Y-132544253D01*
X155429760Y-132496479D01*
X155395395Y-132454605D01*
X155353521Y-132420240D01*
X155305747Y-132394704D01*
X155253909Y-132378980D01*
X155200000Y-132373670D01*
X154975001Y-132373670D01*
X154975001Y-132025000D01*
X157748669Y-132025000D01*
X157750000Y-132656250D01*
X157818750Y-132725000D01*
X158200000Y-132725000D01*
X158200000Y-131818750D01*
X158131250Y-131750000D01*
X158025000Y-131748669D01*
X157971090Y-131753979D01*
X157919253Y-131769703D01*
X157871479Y-131795239D01*
X157829604Y-131829604D01*
X157795239Y-131871479D01*
X157769703Y-131919253D01*
X157753979Y-131971090D01*
X157748669Y-132025000D01*
X154975001Y-132025000D01*
X154975001Y-131550000D01*
X155073669Y-131550000D01*
X155078979Y-131603910D01*
X155094703Y-131655747D01*
X155120239Y-131703521D01*
X155154604Y-131745396D01*
X155196479Y-131779761D01*
X155244253Y-131805297D01*
X155296090Y-131821021D01*
X155350000Y-131826331D01*
X155656250Y-131825000D01*
X155725000Y-131756250D01*
X155725000Y-131125000D01*
X155775000Y-131125000D01*
X155775000Y-131756250D01*
X155843750Y-131825000D01*
X156150000Y-131826331D01*
X156203910Y-131821021D01*
X156255747Y-131805297D01*
X156303521Y-131779761D01*
X156345396Y-131745396D01*
X156379761Y-131703521D01*
X156405297Y-131655747D01*
X156421021Y-131603910D01*
X156426331Y-131550000D01*
X156425921Y-131440000D01*
X157983669Y-131440000D01*
X157988979Y-131493910D01*
X158004703Y-131545747D01*
X158030239Y-131593521D01*
X158064604Y-131635396D01*
X158106479Y-131669761D01*
X158154253Y-131695297D01*
X158206090Y-131711021D01*
X158260000Y-131716331D01*
X159106250Y-131715000D01*
X159175000Y-131646250D01*
X159175000Y-130625000D01*
X159225000Y-130625000D01*
X159225000Y-131646250D01*
X159293750Y-131715000D01*
X160140000Y-131716331D01*
X160193910Y-131711021D01*
X160245747Y-131695297D01*
X160293521Y-131669761D01*
X160335396Y-131635396D01*
X160369761Y-131593521D01*
X160379660Y-131575000D01*
X161448669Y-131575000D01*
X161453979Y-131628910D01*
X161469703Y-131680747D01*
X161495239Y-131728521D01*
X161529604Y-131770396D01*
X161571479Y-131804761D01*
X161619253Y-131830297D01*
X161671090Y-131846021D01*
X161725000Y-131851331D01*
X162106250Y-131850000D01*
X162175000Y-131781250D01*
X162175000Y-131062500D01*
X162225000Y-131062500D01*
X162225000Y-131781250D01*
X162293750Y-131850000D01*
X162675000Y-131851331D01*
X162728910Y-131846021D01*
X162780747Y-131830297D01*
X162828521Y-131804761D01*
X162870396Y-131770396D01*
X162904761Y-131728521D01*
X162930297Y-131680747D01*
X162946021Y-131628910D01*
X162951331Y-131575000D01*
X162950000Y-131131250D01*
X162881250Y-131062500D01*
X162225000Y-131062500D01*
X162175000Y-131062500D01*
X161518750Y-131062500D01*
X161450000Y-131131250D01*
X161448669Y-131575000D01*
X160379660Y-131575000D01*
X160395297Y-131545747D01*
X160411021Y-131493910D01*
X160416331Y-131440000D01*
X160415000Y-130693750D01*
X160346250Y-130625000D01*
X159225000Y-130625000D01*
X159175000Y-130625000D01*
X158053750Y-130625000D01*
X157985000Y-130693750D01*
X157983669Y-131440000D01*
X156425921Y-131440000D01*
X156425000Y-131193750D01*
X156356250Y-131125000D01*
X155775000Y-131125000D01*
X155725000Y-131125000D01*
X155143750Y-131125000D01*
X155075000Y-131193750D01*
X155073669Y-131550000D01*
X154975001Y-131550000D01*
X154975001Y-130650000D01*
X155073669Y-130650000D01*
X155075000Y-131006250D01*
X155143750Y-131075000D01*
X155725000Y-131075000D01*
X155725000Y-130443750D01*
X155775000Y-130443750D01*
X155775000Y-131075000D01*
X156356250Y-131075000D01*
X156425000Y-131006250D01*
X156426331Y-130650000D01*
X156421021Y-130596090D01*
X156405297Y-130544253D01*
X156379761Y-130496479D01*
X156345396Y-130454604D01*
X156303521Y-130420239D01*
X156255747Y-130394703D01*
X156203910Y-130378979D01*
X156150000Y-130373669D01*
X155843750Y-130375000D01*
X155775000Y-130443750D01*
X155725000Y-130443750D01*
X155656250Y-130375000D01*
X155350000Y-130373669D01*
X155296090Y-130378979D01*
X155244253Y-130394703D01*
X155196479Y-130420239D01*
X155154604Y-130454604D01*
X155120239Y-130496479D01*
X155094703Y-130544253D01*
X155078979Y-130596090D01*
X155073669Y-130650000D01*
X154975001Y-130650000D01*
X154975001Y-130006644D01*
X155019253Y-130030297D01*
X155071090Y-130046021D01*
X155125000Y-130051331D01*
X155568750Y-130050000D01*
X155637500Y-129981250D01*
X155637500Y-129325000D01*
X155687500Y-129325000D01*
X155687500Y-129981250D01*
X155756250Y-130050000D01*
X156200000Y-130051331D01*
X156253910Y-130046021D01*
X156305747Y-130030297D01*
X156353521Y-130004761D01*
X156395396Y-129970396D01*
X156429761Y-129928521D01*
X156455297Y-129880747D01*
X156471021Y-129828910D01*
X156476331Y-129775000D01*
X156476279Y-129760000D01*
X157983669Y-129760000D01*
X157985000Y-130506250D01*
X158053750Y-130575000D01*
X159175000Y-130575000D01*
X159175000Y-129553750D01*
X159225000Y-129553750D01*
X159225000Y-130575000D01*
X160346250Y-130575000D01*
X160415000Y-130506250D01*
X160415011Y-130500000D01*
X161448669Y-130500000D01*
X161450000Y-130943750D01*
X161518750Y-131012500D01*
X162175000Y-131012500D01*
X162175000Y-130293750D01*
X162225000Y-130293750D01*
X162225000Y-131012500D01*
X162881250Y-131012500D01*
X162950000Y-130943750D01*
X162951331Y-130500000D01*
X162946021Y-130446090D01*
X162930297Y-130394253D01*
X162904761Y-130346479D01*
X162870396Y-130304604D01*
X162828521Y-130270239D01*
X162780747Y-130244703D01*
X162728910Y-130228979D01*
X162675000Y-130223669D01*
X162293750Y-130225000D01*
X162225000Y-130293750D01*
X162175000Y-130293750D01*
X162106250Y-130225000D01*
X161725000Y-130223669D01*
X161671090Y-130228979D01*
X161619253Y-130244703D01*
X161571479Y-130270239D01*
X161529604Y-130304604D01*
X161495239Y-130346479D01*
X161469703Y-130394253D01*
X161453979Y-130446090D01*
X161448669Y-130500000D01*
X160415011Y-130500000D01*
X160416331Y-129760000D01*
X160411021Y-129706090D01*
X160395297Y-129654253D01*
X160369761Y-129606479D01*
X160335396Y-129564604D01*
X160293521Y-129530239D01*
X160245747Y-129504703D01*
X160193910Y-129488979D01*
X160140000Y-129483669D01*
X159293750Y-129485000D01*
X159225000Y-129553750D01*
X159175000Y-129553750D01*
X159106250Y-129485000D01*
X158260000Y-129483669D01*
X158206090Y-129488979D01*
X158154253Y-129504703D01*
X158106479Y-129530239D01*
X158064604Y-129564604D01*
X158030239Y-129606479D01*
X158004703Y-129654253D01*
X157988979Y-129706090D01*
X157983669Y-129760000D01*
X156476279Y-129760000D01*
X156475000Y-129393750D01*
X156406250Y-129325000D01*
X155687500Y-129325000D01*
X155637500Y-129325000D01*
X154918750Y-129325000D01*
X154850000Y-129393750D01*
X154849123Y-129645010D01*
X154843950Y-129640765D01*
X154750376Y-129547191D01*
X154751330Y-129537500D01*
X154751330Y-129062500D01*
X154741457Y-128962257D01*
X154712217Y-128865866D01*
X154690374Y-128825000D01*
X154848669Y-128825000D01*
X154850000Y-129206250D01*
X154918750Y-129275000D01*
X155637500Y-129275000D01*
X155637500Y-128618750D01*
X155687500Y-128618750D01*
X155687500Y-129275000D01*
X156406250Y-129275000D01*
X156475000Y-129206250D01*
X156476331Y-128825000D01*
X156471021Y-128771090D01*
X156455297Y-128719253D01*
X156429761Y-128671479D01*
X156395396Y-128629604D01*
X156353521Y-128595239D01*
X156305747Y-128569703D01*
X156253910Y-128553979D01*
X156200000Y-128548669D01*
X155756250Y-128550000D01*
X155687500Y-128618750D01*
X155637500Y-128618750D01*
X155568750Y-128550000D01*
X155125000Y-128548669D01*
X155071090Y-128553979D01*
X155019253Y-128569703D01*
X154971479Y-128595239D01*
X154929604Y-128629604D01*
X154895239Y-128671479D01*
X154869703Y-128719253D01*
X154853979Y-128771090D01*
X154848669Y-128825000D01*
X154690374Y-128825000D01*
X154664734Y-128777031D01*
X154600833Y-128699167D01*
X154522969Y-128635266D01*
X154434134Y-128587783D01*
X154337743Y-128558543D01*
X154237500Y-128548670D01*
X154200000Y-128548670D01*
X154200000Y-128344544D01*
X154230287Y-128324307D01*
X154324307Y-128230287D01*
X154398177Y-128119732D01*
X154449060Y-127996890D01*
X154475000Y-127866482D01*
X154475000Y-127733518D01*
X154449060Y-127603110D01*
X154398177Y-127480268D01*
X154324307Y-127369713D01*
X154230287Y-127275693D01*
X154119732Y-127201823D01*
X153996890Y-127150940D01*
X153866482Y-127125000D01*
X153733518Y-127125000D01*
X153697792Y-127132107D01*
X152750000Y-126184315D01*
X152750000Y-125482039D01*
X152755747Y-125480296D01*
X152803521Y-125454760D01*
X152845395Y-125420395D01*
X152879760Y-125378521D01*
X152905296Y-125330747D01*
X152921020Y-125278909D01*
X152926330Y-125225000D01*
X152926330Y-124775000D01*
X152921020Y-124721091D01*
X152905296Y-124669253D01*
X152879760Y-124621479D01*
X152845395Y-124579605D01*
X152803521Y-124545240D01*
X152755747Y-124519704D01*
X152703909Y-124503980D01*
X152650000Y-124498670D01*
X152307013Y-124498670D01*
X155355704Y-121449980D01*
X156871834Y-121449980D01*
X156773144Y-121548670D01*
X156337500Y-121548670D01*
X156237257Y-121558543D01*
X156140866Y-121587783D01*
X156052031Y-121635266D01*
X155974167Y-121699167D01*
X155910266Y-121777031D01*
X155862783Y-121865866D01*
X155833543Y-121962257D01*
X155823670Y-122062500D01*
X155823670Y-122537500D01*
X155833543Y-122637743D01*
X155862783Y-122734134D01*
X155910266Y-122822969D01*
X155974167Y-122900833D01*
X156052031Y-122964734D01*
X156140866Y-123012217D01*
X156237257Y-123041457D01*
X156337500Y-123051330D01*
X156837500Y-123051330D01*
X156937743Y-123041457D01*
X157034134Y-123012217D01*
X157122969Y-122964734D01*
X157180953Y-122917148D01*
X157936175Y-123672371D01*
X157928980Y-123696091D01*
X157923670Y-123750000D01*
X157923670Y-126575001D01*
X157076330Y-126575001D01*
X157076330Y-123750000D01*
X157071020Y-123696091D01*
X157055296Y-123644253D01*
X157029760Y-123596479D01*
X156995395Y-123554605D01*
X156953521Y-123520240D01*
X156905747Y-123494704D01*
X156853909Y-123478980D01*
X156800000Y-123473670D01*
X156000000Y-123473670D01*
X155946091Y-123478980D01*
X155894253Y-123494704D01*
X155846479Y-123520240D01*
X155804605Y-123554605D01*
X155770240Y-123596479D01*
X155744704Y-123644253D01*
X155728980Y-123696091D01*
X155723670Y-123750000D01*
X155723670Y-126650000D01*
X155728980Y-126703909D01*
X155744704Y-126755747D01*
X155770240Y-126803521D01*
X155804605Y-126845395D01*
X155846479Y-126879760D01*
X155894253Y-126905296D01*
X155946091Y-126921020D01*
X156000000Y-126926330D01*
X156000658Y-126926330D01*
X156005788Y-126978413D01*
X156028660Y-127053813D01*
X156065803Y-127123302D01*
X156115789Y-127184211D01*
X156131054Y-127196738D01*
X156178260Y-127243945D01*
X156190790Y-127259212D01*
X156251698Y-127309198D01*
X156321187Y-127346341D01*
X156396587Y-127369213D01*
X156455354Y-127375001D01*
X156455364Y-127375001D01*
X156475000Y-127376935D01*
X156494636Y-127375001D01*
X157959316Y-127375001D01*
X158042861Y-127458546D01*
X157980985Y-127477316D01*
X157915922Y-127512093D01*
X157858895Y-127558895D01*
X157812093Y-127615922D01*
X157777316Y-127680985D01*
X157755901Y-127751582D01*
X157748670Y-127825000D01*
X157748670Y-129075000D01*
X157755901Y-129148418D01*
X157777316Y-129219015D01*
X157812093Y-129284078D01*
X157858895Y-129341105D01*
X157915922Y-129387907D01*
X157980985Y-129422684D01*
X158051582Y-129444099D01*
X158125000Y-129451330D01*
X158325000Y-129451330D01*
X158398418Y-129444099D01*
X158469015Y-129422684D01*
X158534078Y-129387907D01*
X158550000Y-129374840D01*
X158565922Y-129387907D01*
X158630985Y-129422684D01*
X158701582Y-129444099D01*
X158775000Y-129451330D01*
X158975000Y-129451330D01*
X159048418Y-129444099D01*
X159119015Y-129422684D01*
X159184078Y-129387907D01*
X159200000Y-129374840D01*
X159215922Y-129387907D01*
X159280985Y-129422684D01*
X159351582Y-129444099D01*
X159425000Y-129451330D01*
X159625000Y-129451330D01*
X159698418Y-129444099D01*
X159769015Y-129422684D01*
X159834078Y-129387907D01*
X159850000Y-129374840D01*
X159865922Y-129387907D01*
X159930985Y-129422684D01*
X160001582Y-129444099D01*
X160075000Y-129451330D01*
X160275000Y-129451330D01*
X160348418Y-129444099D01*
X160419015Y-129422684D01*
X160484078Y-129387907D01*
X160541105Y-129341105D01*
X160587907Y-129284078D01*
X160622684Y-129219015D01*
X160644099Y-129148418D01*
X160651330Y-129075000D01*
X160651330Y-127825000D01*
X160644099Y-127751582D01*
X160622684Y-127680985D01*
X160587907Y-127615922D01*
X160575000Y-127600195D01*
X160575000Y-123051330D01*
X160637500Y-123051330D01*
X160737743Y-123041457D01*
X160834134Y-123012217D01*
X160922969Y-122964734D01*
X160999990Y-122901525D01*
X160999991Y-128492834D01*
X160998055Y-128512490D01*
X161005778Y-128590903D01*
X161028651Y-128666304D01*
X161065793Y-128735792D01*
X161103255Y-128781440D01*
X161103258Y-128781443D01*
X161115780Y-128796701D01*
X161131037Y-128809223D01*
X161448670Y-129126855D01*
X161448670Y-129562500D01*
X161458543Y-129662743D01*
X161487783Y-129759134D01*
X161535266Y-129847969D01*
X161599167Y-129925833D01*
X161677031Y-129989734D01*
X161765866Y-130037217D01*
X161862257Y-130066457D01*
X161962500Y-130076330D01*
X162437500Y-130076330D01*
X162537743Y-130066457D01*
X162634134Y-130037217D01*
X162704123Y-129999808D01*
X164063277Y-131358962D01*
X164008233Y-131491850D01*
X163965000Y-131709197D01*
X163965000Y-131930803D01*
X164008233Y-132148150D01*
X164063277Y-132281038D01*
X163981815Y-132362500D01*
X162941481Y-132362500D01*
X162941457Y-132362257D01*
X162912217Y-132265866D01*
X162864734Y-132177031D01*
X162800833Y-132099167D01*
X162722969Y-132035266D01*
X162634134Y-131987783D01*
X162537743Y-131958543D01*
X162437500Y-131948670D01*
X161962500Y-131948670D01*
X161862257Y-131958543D01*
X161765866Y-131987783D01*
X161677031Y-132035266D01*
X161599167Y-132099167D01*
X161535266Y-132177031D01*
X161487783Y-132265866D01*
X161458543Y-132362257D01*
X161448670Y-132462500D01*
X161448670Y-132948145D01*
X161118548Y-133278267D01*
X161103290Y-133290789D01*
X161090768Y-133306047D01*
X161090765Y-133306050D01*
X161053303Y-133351698D01*
X161016161Y-133421186D01*
X160993288Y-133496587D01*
X160985565Y-133575000D01*
X160987501Y-133594656D01*
X160987501Y-133873636D01*
X160940866Y-133887783D01*
X160852031Y-133935266D01*
X160774167Y-133999167D01*
X160710266Y-134077031D01*
X160662783Y-134165866D01*
X160633543Y-134262257D01*
X160623670Y-134362500D01*
X160623670Y-134837500D01*
X160633543Y-134937743D01*
X160662783Y-135034134D01*
X160710266Y-135122969D01*
X160774167Y-135200833D01*
X160852031Y-135264734D01*
X160940866Y-135312217D01*
X161037257Y-135341457D01*
X161137500Y-135351330D01*
X161637500Y-135351330D01*
X161737743Y-135341457D01*
X161834134Y-135312217D01*
X161922969Y-135264734D01*
X162000833Y-135200833D01*
X162064734Y-135122969D01*
X162112217Y-135034134D01*
X162141457Y-134937743D01*
X162151330Y-134837500D01*
X162151330Y-134362500D01*
X162448670Y-134362500D01*
X162448670Y-134837500D01*
X162458543Y-134937743D01*
X162487783Y-135034134D01*
X162535266Y-135122969D01*
X162599167Y-135200833D01*
X162677031Y-135264734D01*
X162765866Y-135312217D01*
X162812500Y-135326363D01*
X162812501Y-136235958D01*
X162794704Y-136269253D01*
X162778980Y-136321091D01*
X162773670Y-136375000D01*
X162773670Y-136825000D01*
X162778980Y-136878909D01*
X162794704Y-136930747D01*
X162820240Y-136978521D01*
X162854605Y-137020395D01*
X162896479Y-137054760D01*
X162944253Y-137080296D01*
X162996091Y-137096020D01*
X163050000Y-137101330D01*
X163650000Y-137101330D01*
X163703909Y-137096020D01*
X163755747Y-137080296D01*
X163803521Y-137054760D01*
X163845395Y-137020395D01*
X163879760Y-136978521D01*
X163905296Y-136930747D01*
X163921020Y-136878909D01*
X163926330Y-136825000D01*
X163926330Y-136375000D01*
X163921020Y-136321091D01*
X163905296Y-136269253D01*
X163879760Y-136221479D01*
X163845395Y-136179605D01*
X163803521Y-136145240D01*
X163755747Y-136119704D01*
X163703909Y-136103980D01*
X163650000Y-136098670D01*
X163612500Y-136098670D01*
X163612500Y-135326363D01*
X163659134Y-135312217D01*
X163747969Y-135264734D01*
X163825833Y-135200833D01*
X163889734Y-135122969D01*
X163937217Y-135034134D01*
X163966457Y-134937743D01*
X163976330Y-134837500D01*
X163976330Y-134362500D01*
X163966457Y-134262257D01*
X163937217Y-134165866D01*
X163889734Y-134077031D01*
X163825833Y-133999167D01*
X163747969Y-133935266D01*
X163659134Y-133887783D01*
X163562743Y-133858543D01*
X163462500Y-133848670D01*
X162962500Y-133848670D01*
X162862257Y-133858543D01*
X162765866Y-133887783D01*
X162677031Y-133935266D01*
X162599167Y-133999167D01*
X162535266Y-134077031D01*
X162487783Y-134165866D01*
X162458543Y-134262257D01*
X162448670Y-134362500D01*
X162151330Y-134362500D01*
X162141457Y-134262257D01*
X162112217Y-134165866D01*
X162064734Y-134077031D01*
X162000833Y-133999167D01*
X161922969Y-133935266D01*
X161834134Y-133887783D01*
X161787500Y-133873637D01*
X161787500Y-133740685D01*
X161952809Y-133575376D01*
X161962500Y-133576330D01*
X162437500Y-133576330D01*
X162537743Y-133566457D01*
X162634134Y-133537217D01*
X162722969Y-133489734D01*
X162800833Y-133425833D01*
X162864734Y-133347969D01*
X162912217Y-133259134D01*
X162941457Y-133162743D01*
X162941481Y-133162500D01*
X164127854Y-133162500D01*
X164147500Y-133164435D01*
X164167146Y-133162500D01*
X164167147Y-133162500D01*
X164225914Y-133156712D01*
X164301314Y-133133840D01*
X164370803Y-133096697D01*
X164431711Y-133046711D01*
X164444237Y-133031448D01*
X164628962Y-132846723D01*
X164690000Y-132872006D01*
X164690001Y-135570344D01*
X164688065Y-135590000D01*
X164695788Y-135668413D01*
X164718661Y-135743814D01*
X164755803Y-135813302D01*
X164793265Y-135858950D01*
X164793268Y-135858953D01*
X164805790Y-135874211D01*
X164821048Y-135886733D01*
X164973670Y-136039355D01*
X164973670Y-137450000D01*
X164978980Y-137503909D01*
X164994704Y-137555747D01*
X165020240Y-137603521D01*
X165054605Y-137645395D01*
X165096479Y-137679760D01*
X165134345Y-137700000D01*
X157647571Y-137700000D01*
X157637217Y-137665866D01*
X157589734Y-137577031D01*
X157525833Y-137499167D01*
X157447969Y-137435266D01*
X157359134Y-137387783D01*
X157262743Y-137358543D01*
X157162500Y-137348670D01*
X156662500Y-137348670D01*
X156562257Y-137358543D01*
X156465866Y-137387783D01*
X156377031Y-137435266D01*
X156299167Y-137499167D01*
X156235266Y-137577031D01*
X156187783Y-137665866D01*
X156158543Y-137762257D01*
X156148670Y-137862500D01*
X156148670Y-138337500D01*
X156158543Y-138437743D01*
X156187783Y-138534134D01*
X156235266Y-138622969D01*
X156299167Y-138700833D01*
X156359077Y-138750000D01*
X155640923Y-138750000D01*
X155700833Y-138700833D01*
X155764734Y-138622969D01*
X155812217Y-138534134D01*
X155841457Y-138437743D01*
X155851330Y-138337500D01*
X155851330Y-137862500D01*
X155841457Y-137762257D01*
X155812217Y-137665866D01*
X155764734Y-137577031D01*
X155700833Y-137499167D01*
X155622969Y-137435266D01*
X155534134Y-137387783D01*
X155437743Y-137358543D01*
X155337500Y-137348670D01*
X154837500Y-137348670D01*
X154771905Y-137355130D01*
X154391775Y-136975000D01*
X156923669Y-136975000D01*
X156928979Y-137028910D01*
X156944703Y-137080747D01*
X156970239Y-137128521D01*
X157004604Y-137170396D01*
X157046479Y-137204761D01*
X157094253Y-137230297D01*
X157146090Y-137246021D01*
X157200000Y-137251331D01*
X157593750Y-137250000D01*
X157662500Y-137181250D01*
X157662500Y-136525000D01*
X157712500Y-136525000D01*
X157712500Y-137181250D01*
X157781250Y-137250000D01*
X158175000Y-137251331D01*
X158228910Y-137246021D01*
X158280747Y-137230297D01*
X158328521Y-137204761D01*
X158370396Y-137170396D01*
X158404761Y-137128521D01*
X158430297Y-137080747D01*
X158446021Y-137028910D01*
X158451331Y-136975000D01*
X158450000Y-136593750D01*
X158381250Y-136525000D01*
X157712500Y-136525000D01*
X157662500Y-136525000D01*
X156993750Y-136525000D01*
X156925000Y-136593750D01*
X156923669Y-136975000D01*
X154391775Y-136975000D01*
X153441775Y-136025000D01*
X156923669Y-136025000D01*
X156925000Y-136406250D01*
X156993750Y-136475000D01*
X157662500Y-136475000D01*
X157662500Y-135818750D01*
X157712500Y-135818750D01*
X157712500Y-136475000D01*
X158381250Y-136475000D01*
X158450000Y-136406250D01*
X158451331Y-136025000D01*
X158446021Y-135971090D01*
X158430297Y-135919253D01*
X158404761Y-135871479D01*
X158370396Y-135829604D01*
X158328521Y-135795239D01*
X158280747Y-135769703D01*
X158228910Y-135753979D01*
X158175000Y-135748669D01*
X157781250Y-135750000D01*
X157712500Y-135818750D01*
X157662500Y-135818750D01*
X157593750Y-135750000D01*
X157200000Y-135748669D01*
X157146090Y-135753979D01*
X157094253Y-135769703D01*
X157046479Y-135795239D01*
X157004604Y-135829604D01*
X156970239Y-135871479D01*
X156944703Y-135919253D01*
X156928979Y-135971090D01*
X156923669Y-136025000D01*
X153441775Y-136025000D01*
X152691775Y-135275000D01*
X153423669Y-135275000D01*
X153428979Y-135328910D01*
X153444703Y-135380747D01*
X153470239Y-135428521D01*
X153504604Y-135470396D01*
X153546479Y-135504761D01*
X153594253Y-135530297D01*
X153646090Y-135546021D01*
X153700000Y-135551331D01*
X154143750Y-135550000D01*
X154212500Y-135481250D01*
X154212500Y-134825000D01*
X154262500Y-134825000D01*
X154262500Y-135481250D01*
X154331250Y-135550000D01*
X154775000Y-135551331D01*
X154828910Y-135546021D01*
X154880747Y-135530297D01*
X154928521Y-135504761D01*
X154970396Y-135470396D01*
X155004761Y-135428521D01*
X155030297Y-135380747D01*
X155046021Y-135328910D01*
X155051331Y-135275000D01*
X155050000Y-134893750D01*
X154981250Y-134825000D01*
X154262500Y-134825000D01*
X154212500Y-134825000D01*
X153493750Y-134825000D01*
X153425000Y-134893750D01*
X153423669Y-135275000D01*
X152691775Y-135275000D01*
X151741775Y-134325000D01*
X153423669Y-134325000D01*
X153425000Y-134706250D01*
X153493750Y-134775000D01*
X154212500Y-134775000D01*
X154212500Y-134118750D01*
X154143750Y-134050000D01*
X153700000Y-134048669D01*
X153646090Y-134053979D01*
X153594253Y-134069703D01*
X153546479Y-134095239D01*
X153504604Y-134129604D01*
X153470239Y-134171479D01*
X153444703Y-134219253D01*
X153428979Y-134271090D01*
X153423669Y-134325000D01*
X151741775Y-134325000D01*
X151175001Y-133758226D01*
X151175001Y-132444647D01*
X151176936Y-132425001D01*
X151169213Y-132346587D01*
X151146341Y-132271186D01*
X151109198Y-132201698D01*
X151071736Y-132156050D01*
X151071734Y-132156048D01*
X151059212Y-132140790D01*
X151043955Y-132128269D01*
X150726330Y-131810644D01*
X150726330Y-131250000D01*
X150721020Y-131196091D01*
X150705296Y-131144253D01*
X150679760Y-131096479D01*
X150645395Y-131054605D01*
X150603521Y-131020240D01*
X150555747Y-130994704D01*
X150503909Y-130978980D01*
X150450000Y-130973670D01*
X149550000Y-130973670D01*
X149496091Y-130978980D01*
X149444253Y-130994704D01*
X149396479Y-131020240D01*
X149354605Y-131054605D01*
X149320240Y-131096479D01*
X149294704Y-131144253D01*
X149278980Y-131196091D01*
X149273670Y-131250000D01*
X149273670Y-132050000D01*
X149278980Y-132103909D01*
X149294704Y-132155747D01*
X149320240Y-132203521D01*
X149354605Y-132245395D01*
X149396479Y-132279760D01*
X149444253Y-132305296D01*
X149496091Y-132321020D01*
X149550000Y-132326330D01*
X150110644Y-132326330D01*
X150375001Y-132590687D01*
X150375001Y-132873670D01*
X149550000Y-132873670D01*
X149496091Y-132878980D01*
X149444253Y-132894704D01*
X149396479Y-132920240D01*
X149354605Y-132954605D01*
X149320240Y-132996479D01*
X149294704Y-133044253D01*
X149278980Y-133096091D01*
X149273670Y-133150000D01*
X149273670Y-133920118D01*
X149185466Y-133831914D01*
X149177632Y-133822368D01*
X149139564Y-133791127D01*
X149096134Y-133767913D01*
X149049008Y-133753618D01*
X149012275Y-133750000D01*
X149000000Y-133748791D01*
X148987725Y-133750000D01*
X140353553Y-133750000D01*
X140250000Y-133646447D01*
X140250000Y-133015657D01*
X140270239Y-133053521D01*
X140304604Y-133095396D01*
X140346479Y-133129761D01*
X140394253Y-133155297D01*
X140446090Y-133171021D01*
X140500000Y-133176331D01*
X143406250Y-133175000D01*
X143475000Y-133106250D01*
X143475000Y-132025000D01*
X143525000Y-132025000D01*
X143525000Y-133106250D01*
X143593750Y-133175000D01*
X146500000Y-133176331D01*
X146553910Y-133171021D01*
X146605747Y-133155297D01*
X146653521Y-133129761D01*
X146695396Y-133095396D01*
X146729761Y-133053521D01*
X146755297Y-133005747D01*
X146771021Y-132953910D01*
X146776331Y-132900000D01*
X146775000Y-132093750D01*
X146706250Y-132025000D01*
X143525000Y-132025000D01*
X143475000Y-132025000D01*
X143455000Y-132025000D01*
X143455000Y-131975000D01*
X143475000Y-131975000D01*
X143475000Y-130893750D01*
X143525000Y-130893750D01*
X143525000Y-131975000D01*
X146706250Y-131975000D01*
X146775000Y-131906250D01*
X146776301Y-131118091D01*
X146795239Y-131153521D01*
X146829604Y-131195396D01*
X146871479Y-131229761D01*
X146919253Y-131255297D01*
X146971090Y-131271021D01*
X147025000Y-131276331D01*
X147406250Y-131275000D01*
X147475000Y-131206250D01*
X147475000Y-130537500D01*
X147525000Y-130537500D01*
X147525000Y-131206250D01*
X147593750Y-131275000D01*
X147975000Y-131276331D01*
X148028910Y-131271021D01*
X148080747Y-131255297D01*
X148128521Y-131229761D01*
X148170396Y-131195396D01*
X148204761Y-131153521D01*
X148230297Y-131105747D01*
X148246021Y-131053910D01*
X148251331Y-131000000D01*
X148250000Y-130606250D01*
X148181250Y-130537500D01*
X147525000Y-130537500D01*
X147475000Y-130537500D01*
X146818750Y-130537500D01*
X146750000Y-130606250D01*
X146748730Y-130981967D01*
X146729761Y-130946479D01*
X146695396Y-130904604D01*
X146653521Y-130870239D01*
X146605747Y-130844703D01*
X146553910Y-130828979D01*
X146500000Y-130823669D01*
X143593750Y-130825000D01*
X143525000Y-130893750D01*
X143475000Y-130893750D01*
X143406250Y-130825000D01*
X140500000Y-130823669D01*
X140446090Y-130828979D01*
X140394253Y-130844703D01*
X140346479Y-130870239D01*
X140304604Y-130904604D01*
X140270239Y-130946479D01*
X140250000Y-130984343D01*
X140250000Y-130025000D01*
X146748669Y-130025000D01*
X146750000Y-130418750D01*
X146818750Y-130487500D01*
X147475000Y-130487500D01*
X147475000Y-129818750D01*
X147525000Y-129818750D01*
X147525000Y-130487500D01*
X148181250Y-130487500D01*
X148218750Y-130450000D01*
X148673669Y-130450000D01*
X148678979Y-130503910D01*
X148694703Y-130555747D01*
X148720239Y-130603521D01*
X148754604Y-130645396D01*
X148796479Y-130679761D01*
X148844253Y-130705297D01*
X148896090Y-130721021D01*
X148950000Y-130726331D01*
X149306250Y-130725000D01*
X149375000Y-130656250D01*
X149375000Y-130075000D01*
X149425000Y-130075000D01*
X149425000Y-130656250D01*
X149493750Y-130725000D01*
X149850000Y-130726331D01*
X149903910Y-130721021D01*
X149955747Y-130705297D01*
X150003521Y-130679761D01*
X150045396Y-130645396D01*
X150079761Y-130603521D01*
X150105297Y-130555747D01*
X150121021Y-130503910D01*
X150126331Y-130450000D01*
X150125000Y-130143750D01*
X150056250Y-130075000D01*
X149425000Y-130075000D01*
X149375000Y-130075000D01*
X148743750Y-130075000D01*
X148675000Y-130143750D01*
X148673669Y-130450000D01*
X148218750Y-130450000D01*
X148250000Y-130418750D01*
X148251331Y-130025000D01*
X148246021Y-129971090D01*
X148230297Y-129919253D01*
X148204761Y-129871479D01*
X148170396Y-129829604D01*
X148128521Y-129795239D01*
X148080747Y-129769703D01*
X148028910Y-129753979D01*
X147975000Y-129748669D01*
X147593750Y-129750000D01*
X147525000Y-129818750D01*
X147475000Y-129818750D01*
X147406250Y-129750000D01*
X147025000Y-129748669D01*
X146971090Y-129753979D01*
X146919253Y-129769703D01*
X146871479Y-129795239D01*
X146829604Y-129829604D01*
X146795239Y-129871479D01*
X146769703Y-129919253D01*
X146753979Y-129971090D01*
X146748669Y-130025000D01*
X140250000Y-130025000D01*
X140250000Y-129650000D01*
X148673669Y-129650000D01*
X148675000Y-129956250D01*
X148743750Y-130025000D01*
X149375000Y-130025000D01*
X149375000Y-129443750D01*
X149425000Y-129443750D01*
X149425000Y-130025000D01*
X150056250Y-130025000D01*
X150125000Y-129956250D01*
X150126331Y-129650000D01*
X150121021Y-129596090D01*
X150105297Y-129544253D01*
X150079761Y-129496479D01*
X150045396Y-129454604D01*
X150003521Y-129420239D01*
X149955747Y-129394703D01*
X149903910Y-129378979D01*
X149850000Y-129373669D01*
X149493750Y-129375000D01*
X149425000Y-129443750D01*
X149375000Y-129443750D01*
X149306250Y-129375000D01*
X148950000Y-129373669D01*
X148896090Y-129378979D01*
X148844253Y-129394703D01*
X148796479Y-129420239D01*
X148754604Y-129454604D01*
X148720239Y-129496479D01*
X148694703Y-129544253D01*
X148678979Y-129596090D01*
X148673669Y-129650000D01*
X140250000Y-129650000D01*
X140250000Y-127552491D01*
X140278959Y-127647954D01*
X140346079Y-127773527D01*
X140436407Y-127883593D01*
X140546473Y-127973921D01*
X140672046Y-128041041D01*
X140808300Y-128082374D01*
X140950000Y-128096330D01*
X143810645Y-128096330D01*
X144670767Y-128956453D01*
X144683289Y-128971711D01*
X144698547Y-128984233D01*
X144698549Y-128984235D01*
X144744197Y-129021697D01*
X144813686Y-129058840D01*
X144889086Y-129081712D01*
X144967500Y-129089435D01*
X144987147Y-129087500D01*
X146773637Y-129087500D01*
X146787783Y-129134134D01*
X146835266Y-129222969D01*
X146899167Y-129300833D01*
X146977031Y-129364734D01*
X147065866Y-129412217D01*
X147162257Y-129441457D01*
X147262500Y-129451330D01*
X147737500Y-129451330D01*
X147837743Y-129441457D01*
X147934134Y-129412217D01*
X148022969Y-129364734D01*
X148100833Y-129300833D01*
X148164734Y-129222969D01*
X148212217Y-129134134D01*
X148226363Y-129087500D01*
X148842854Y-129087500D01*
X148862500Y-129089435D01*
X148882146Y-129087500D01*
X148882147Y-129087500D01*
X148940914Y-129081712D01*
X149016314Y-129058840D01*
X149085803Y-129021697D01*
X149146711Y-128971711D01*
X149159237Y-128956448D01*
X149289355Y-128826330D01*
X149850000Y-128826330D01*
X149903909Y-128821020D01*
X149955747Y-128805296D01*
X150003521Y-128779760D01*
X150045395Y-128745395D01*
X150079760Y-128703521D01*
X150105296Y-128655747D01*
X150121020Y-128603909D01*
X150126330Y-128550000D01*
X150126330Y-127750000D01*
X150121020Y-127696091D01*
X150105296Y-127644253D01*
X150079760Y-127596479D01*
X150045395Y-127554605D01*
X150003521Y-127520240D01*
X149955747Y-127494704D01*
X149903909Y-127478980D01*
X149850000Y-127473670D01*
X148950000Y-127473670D01*
X148896091Y-127478980D01*
X148844253Y-127494704D01*
X148796479Y-127520240D01*
X148754605Y-127554605D01*
X148720240Y-127596479D01*
X148694704Y-127644253D01*
X148678980Y-127696091D01*
X148673670Y-127750000D01*
X148673670Y-128287500D01*
X148226363Y-128287500D01*
X148212217Y-128240866D01*
X148164734Y-128152031D01*
X148100833Y-128074167D01*
X148022969Y-128010266D01*
X147934134Y-127962783D01*
X147837743Y-127933543D01*
X147737500Y-127923670D01*
X147262500Y-127923670D01*
X147162257Y-127933543D01*
X147065866Y-127962783D01*
X146977031Y-128010266D01*
X146899167Y-128074167D01*
X146835266Y-128152031D01*
X146787783Y-128240866D01*
X146773637Y-128287500D01*
X145133186Y-128287500D01*
X144942016Y-128096330D01*
X146050000Y-128096330D01*
X146191700Y-128082374D01*
X146327954Y-128041041D01*
X146453527Y-127973921D01*
X146563593Y-127883593D01*
X146653921Y-127773527D01*
X146721041Y-127647954D01*
X146762374Y-127511700D01*
X146776330Y-127370000D01*
X146776330Y-126850000D01*
X147298669Y-126850000D01*
X147303979Y-126903910D01*
X147319703Y-126955747D01*
X147345239Y-127003521D01*
X147379604Y-127045396D01*
X147421479Y-127079761D01*
X147469253Y-127105297D01*
X147521090Y-127121021D01*
X147575000Y-127126331D01*
X147706250Y-127125000D01*
X147775000Y-127056250D01*
X147775000Y-126575000D01*
X147825000Y-126575000D01*
X147825000Y-127056250D01*
X147893750Y-127125000D01*
X148025000Y-127126331D01*
X148078910Y-127121021D01*
X148130747Y-127105297D01*
X148178521Y-127079761D01*
X148220396Y-127045396D01*
X148254761Y-127003521D01*
X148280297Y-126955747D01*
X148296021Y-126903910D01*
X148301331Y-126850000D01*
X148300000Y-126643750D01*
X148231250Y-126575000D01*
X147825000Y-126575000D01*
X147775000Y-126575000D01*
X147368750Y-126575000D01*
X147300000Y-126643750D01*
X147298669Y-126850000D01*
X146776330Y-126850000D01*
X146776330Y-126470000D01*
X146762374Y-126328300D01*
X146738622Y-126250000D01*
X147298669Y-126250000D01*
X147300000Y-126456250D01*
X147368750Y-126525000D01*
X147775000Y-126525000D01*
X147775000Y-126043750D01*
X147825000Y-126043750D01*
X147825000Y-126525000D01*
X148231250Y-126525000D01*
X148300000Y-126456250D01*
X148301331Y-126250000D01*
X148296021Y-126196090D01*
X148280297Y-126144253D01*
X148254761Y-126096479D01*
X148220396Y-126054604D01*
X148178521Y-126020239D01*
X148130747Y-125994703D01*
X148078910Y-125978979D01*
X148025000Y-125973669D01*
X147893750Y-125975000D01*
X147825000Y-126043750D01*
X147775000Y-126043750D01*
X147706250Y-125975000D01*
X147575000Y-125973669D01*
X147521090Y-125978979D01*
X147469253Y-125994703D01*
X147421479Y-126020239D01*
X147379604Y-126054604D01*
X147345239Y-126096479D01*
X147319703Y-126144253D01*
X147303979Y-126196090D01*
X147298669Y-126250000D01*
X146738622Y-126250000D01*
X146721041Y-126192046D01*
X146653921Y-126066473D01*
X146563593Y-125956407D01*
X146453527Y-125866079D01*
X146327954Y-125798959D01*
X146191700Y-125757626D01*
X146050000Y-125743670D01*
X140950000Y-125743670D01*
X140808300Y-125757626D01*
X140672046Y-125798959D01*
X140546473Y-125866079D01*
X140436407Y-125956407D01*
X140346079Y-126066473D01*
X140278959Y-126192046D01*
X140250000Y-126287509D01*
X140250000Y-122472491D01*
X140278959Y-122567954D01*
X140346079Y-122693527D01*
X140436407Y-122803593D01*
X140546473Y-122893921D01*
X140672046Y-122961041D01*
X140808300Y-123002374D01*
X140950000Y-123016330D01*
X146050000Y-123016330D01*
X146191700Y-123002374D01*
X146298670Y-122969924D01*
X146298670Y-123275000D01*
X146308783Y-123377682D01*
X146338734Y-123476418D01*
X146387373Y-123567413D01*
X146452828Y-123647172D01*
X146532587Y-123712627D01*
X146623582Y-123761266D01*
X146722318Y-123791217D01*
X146825000Y-123801330D01*
X147500000Y-123801330D01*
X147602682Y-123791217D01*
X147701418Y-123761266D01*
X147721034Y-123750781D01*
X147598145Y-123873670D01*
X147575000Y-123873670D01*
X147521091Y-123878980D01*
X147469253Y-123894704D01*
X147421479Y-123920240D01*
X147379605Y-123954605D01*
X147345240Y-123996479D01*
X147319704Y-124044253D01*
X147303980Y-124096091D01*
X147298670Y-124150000D01*
X147298670Y-124750000D01*
X147303980Y-124803909D01*
X147319704Y-124855747D01*
X147345240Y-124903521D01*
X147379605Y-124945395D01*
X147421479Y-124979760D01*
X147469253Y-125005296D01*
X147521091Y-125021020D01*
X147575000Y-125026330D01*
X148025000Y-125026330D01*
X148078909Y-125021020D01*
X148130747Y-125005296D01*
X148178521Y-124979760D01*
X148220395Y-124945395D01*
X148254760Y-124903521D01*
X148280296Y-124855747D01*
X148296020Y-124803909D01*
X148301330Y-124750000D01*
X148301330Y-124301855D01*
X148810655Y-123792531D01*
X148837501Y-123795175D01*
X148837501Y-123967844D01*
X148835565Y-123987500D01*
X148843288Y-124065913D01*
X148866161Y-124141314D01*
X148903303Y-124210802D01*
X148940765Y-124256450D01*
X148940768Y-124256453D01*
X148953290Y-124271711D01*
X148968548Y-124284233D01*
X149673670Y-124989356D01*
X149673670Y-125225000D01*
X149678980Y-125278909D01*
X149694704Y-125330747D01*
X149720240Y-125378521D01*
X149754605Y-125420395D01*
X149796479Y-125454760D01*
X149844253Y-125480296D01*
X149896091Y-125496020D01*
X149950000Y-125501330D01*
X150550000Y-125501330D01*
X150603909Y-125496020D01*
X150655747Y-125480296D01*
X150703521Y-125454760D01*
X150745395Y-125420395D01*
X150779760Y-125378521D01*
X150805296Y-125330747D01*
X150821020Y-125278909D01*
X150826330Y-125225000D01*
X150826330Y-124775000D01*
X150821020Y-124721091D01*
X150805296Y-124669253D01*
X150779760Y-124621479D01*
X150745395Y-124579605D01*
X150703521Y-124545240D01*
X150655747Y-124519704D01*
X150603909Y-124503980D01*
X150550000Y-124498670D01*
X150314356Y-124498670D01*
X149637500Y-123821815D01*
X149637500Y-123795174D01*
X149677682Y-123791217D01*
X149776418Y-123761266D01*
X149867413Y-123712627D01*
X149947172Y-123647172D01*
X150012627Y-123567413D01*
X150061266Y-123476418D01*
X150091217Y-123377682D01*
X150101330Y-123275000D01*
X150101330Y-122325000D01*
X150091217Y-122222318D01*
X150061266Y-122123582D01*
X150012627Y-122032587D01*
X149947172Y-121952828D01*
X149867413Y-121887373D01*
X149776418Y-121838734D01*
X149677682Y-121808783D01*
X149575000Y-121798670D01*
X148900000Y-121798670D01*
X148797318Y-121808783D01*
X148698582Y-121838734D01*
X148607587Y-121887373D01*
X148527828Y-121952828D01*
X148462373Y-122032587D01*
X148413734Y-122123582D01*
X148383783Y-122222318D01*
X148373670Y-122325000D01*
X148373670Y-123098144D01*
X147975781Y-123496034D01*
X147986266Y-123476418D01*
X148016217Y-123377682D01*
X148026330Y-123275000D01*
X148026330Y-122325000D01*
X148016217Y-122222318D01*
X147986266Y-122123582D01*
X147937627Y-122032587D01*
X147872172Y-121952828D01*
X147792413Y-121887373D01*
X147701418Y-121838734D01*
X147602682Y-121808783D01*
X147500000Y-121798670D01*
X146825000Y-121798670D01*
X146776330Y-121803463D01*
X146776330Y-121390000D01*
X146762374Y-121248300D01*
X146721041Y-121112046D01*
X146653921Y-120986473D01*
X146563593Y-120876407D01*
X146453527Y-120786079D01*
X146327954Y-120718959D01*
X146191700Y-120677626D01*
X146050000Y-120663670D01*
X140950000Y-120663670D01*
X140808300Y-120677626D01*
X140672046Y-120718959D01*
X140546473Y-120786079D01*
X140436407Y-120876407D01*
X140346079Y-120986473D01*
X140278959Y-121112046D01*
X140250000Y-121207509D01*
X140250000Y-120103553D01*
X140353553Y-120000000D01*
X155237725Y-120000000D01*
X155250000Y-120001209D01*
X155299008Y-119996382D01*
X155327547Y-119987725D01*
X155346134Y-119982087D01*
X155389564Y-119958873D01*
X155427632Y-119927632D01*
X155435466Y-119918086D01*
X155528552Y-119825000D01*
X163718934Y-119825000D01*
X166446967Y-122553033D01*
G37*
%TD.AperFunction*%
D23*
X171367382Y-132233067D02*
X171353909Y-132228980D01*
X171300000Y-132223670D01*
X168900000Y-132223670D01*
X168846091Y-132228980D01*
X168794253Y-132244704D01*
X168746479Y-132270240D01*
X168704605Y-132304605D01*
X168670240Y-132346479D01*
X168644704Y-132394253D01*
X168628980Y-132446091D01*
X168623670Y-132500000D01*
X168623670Y-134900000D01*
X168628980Y-134953909D01*
X168644704Y-135005747D01*
X168670240Y-135053521D01*
X168704605Y-135095395D01*
X168746479Y-135129760D01*
X168794253Y-135155296D01*
X168846091Y-135171020D01*
X168900000Y-135176330D01*
X171300000Y-135176330D01*
X171353909Y-135171020D01*
X171405747Y-135155296D01*
X171453521Y-135129760D01*
X171495395Y-135095395D01*
X171529760Y-135053521D01*
X171555296Y-135005747D01*
X171571020Y-134953909D01*
X171576330Y-134900000D01*
X171576330Y-132500000D01*
X171571020Y-132446091D01*
X171566933Y-132432618D01*
X171629999Y-132495684D01*
X171630000Y-133450354D01*
X171629999Y-135568705D01*
X171508150Y-135518233D01*
X171290803Y-135475000D01*
X171069197Y-135475000D01*
X170851850Y-135518233D01*
X170647113Y-135603038D01*
X170462855Y-135726156D01*
X170306156Y-135882855D01*
X170183038Y-136067113D01*
X170098233Y-136271850D01*
X170055000Y-136489197D01*
X170055000Y-136710803D01*
X170098233Y-136928150D01*
X170183038Y-137132887D01*
X170306156Y-137317145D01*
X170462855Y-137473844D01*
X170647113Y-137596962D01*
X170851850Y-137681767D01*
X170943513Y-137700000D01*
X168875652Y-137700000D01*
X168878251Y-137699483D01*
X169088172Y-137631876D01*
X169280870Y-137524615D01*
X169448939Y-137381821D01*
X169585921Y-137208982D01*
X169686552Y-137012741D01*
X169746965Y-136800638D01*
X169695973Y-136625000D01*
X168665000Y-136625000D01*
X168665000Y-136645000D01*
X168615000Y-136645000D01*
X168615000Y-136625000D01*
X167584027Y-136625000D01*
X167533035Y-136800638D01*
X167593448Y-137012741D01*
X167694079Y-137208982D01*
X167831061Y-137381821D01*
X167999130Y-137524615D01*
X168191828Y-137631876D01*
X168401749Y-137699483D01*
X168404348Y-137700000D01*
X167065655Y-137700000D01*
X167103521Y-137679760D01*
X167145395Y-137645395D01*
X167179760Y-137603521D01*
X167205296Y-137555747D01*
X167221020Y-137503909D01*
X167226330Y-137450000D01*
X167226330Y-136399362D01*
X167533035Y-136399362D01*
X167584027Y-136575000D01*
X168615000Y-136575000D01*
X168615000Y-135544046D01*
X168665000Y-135544046D01*
X168665000Y-136575000D01*
X169695973Y-136575000D01*
X169746965Y-136399362D01*
X169686552Y-136187259D01*
X169585921Y-135991018D01*
X169448939Y-135818179D01*
X169280870Y-135675385D01*
X169088172Y-135568124D01*
X168878251Y-135500517D01*
X168840637Y-135493036D01*
X168665000Y-135544046D01*
X168615000Y-135544046D01*
X168439363Y-135493036D01*
X168401749Y-135500517D01*
X168191828Y-135568124D01*
X167999130Y-135675385D01*
X167831061Y-135818179D01*
X167694079Y-135991018D01*
X167593448Y-136187259D01*
X167533035Y-136399362D01*
X167226330Y-136399362D01*
X167226330Y-135750000D01*
X167221020Y-135696091D01*
X167205296Y-135644253D01*
X167179760Y-135596479D01*
X167145395Y-135554605D01*
X167103521Y-135520240D01*
X167055747Y-135494704D01*
X167003909Y-135478980D01*
X166950000Y-135473670D01*
X165539355Y-135473670D01*
X165490000Y-135424315D01*
X165490000Y-132872006D01*
X165622887Y-132816962D01*
X165807145Y-132693844D01*
X165963844Y-132537145D01*
X166086962Y-132352887D01*
X166171767Y-132148150D01*
X166215000Y-131930803D01*
X166215000Y-131709197D01*
X166171767Y-131491850D01*
X166086962Y-131287113D01*
X165963844Y-131102855D01*
X165807145Y-130946156D01*
X165670723Y-130855001D01*
X169989316Y-130855001D01*
X171367382Y-132233067D01*
%TA.AperFunction,Conductor*%
D24*
G36*
X171367382Y-132233067D02*
G01*
X171353909Y-132228980D01*
X171300000Y-132223670D01*
X168900000Y-132223670D01*
X168846091Y-132228980D01*
X168794253Y-132244704D01*
X168746479Y-132270240D01*
X168704605Y-132304605D01*
X168670240Y-132346479D01*
X168644704Y-132394253D01*
X168628980Y-132446091D01*
X168623670Y-132500000D01*
X168623670Y-134900000D01*
X168628980Y-134953909D01*
X168644704Y-135005747D01*
X168670240Y-135053521D01*
X168704605Y-135095395D01*
X168746479Y-135129760D01*
X168794253Y-135155296D01*
X168846091Y-135171020D01*
X168900000Y-135176330D01*
X171300000Y-135176330D01*
X171353909Y-135171020D01*
X171405747Y-135155296D01*
X171453521Y-135129760D01*
X171495395Y-135095395D01*
X171529760Y-135053521D01*
X171555296Y-135005747D01*
X171571020Y-134953909D01*
X171576330Y-134900000D01*
X171576330Y-132500000D01*
X171571020Y-132446091D01*
X171566933Y-132432618D01*
X171629999Y-132495684D01*
X171630000Y-133450354D01*
X171629999Y-135568705D01*
X171508150Y-135518233D01*
X171290803Y-135475000D01*
X171069197Y-135475000D01*
X170851850Y-135518233D01*
X170647113Y-135603038D01*
X170462855Y-135726156D01*
X170306156Y-135882855D01*
X170183038Y-136067113D01*
X170098233Y-136271850D01*
X170055000Y-136489197D01*
X170055000Y-136710803D01*
X170098233Y-136928150D01*
X170183038Y-137132887D01*
X170306156Y-137317145D01*
X170462855Y-137473844D01*
X170647113Y-137596962D01*
X170851850Y-137681767D01*
X170943513Y-137700000D01*
X168875652Y-137700000D01*
X168878251Y-137699483D01*
X169088172Y-137631876D01*
X169280870Y-137524615D01*
X169448939Y-137381821D01*
X169585921Y-137208982D01*
X169686552Y-137012741D01*
X169746965Y-136800638D01*
X169695973Y-136625000D01*
X168665000Y-136625000D01*
X168665000Y-136645000D01*
X168615000Y-136645000D01*
X168615000Y-136625000D01*
X167584027Y-136625000D01*
X167533035Y-136800638D01*
X167593448Y-137012741D01*
X167694079Y-137208982D01*
X167831061Y-137381821D01*
X167999130Y-137524615D01*
X168191828Y-137631876D01*
X168401749Y-137699483D01*
X168404348Y-137700000D01*
X167065655Y-137700000D01*
X167103521Y-137679760D01*
X167145395Y-137645395D01*
X167179760Y-137603521D01*
X167205296Y-137555747D01*
X167221020Y-137503909D01*
X167226330Y-137450000D01*
X167226330Y-136399362D01*
X167533035Y-136399362D01*
X167584027Y-136575000D01*
X168615000Y-136575000D01*
X168615000Y-135544046D01*
X168665000Y-135544046D01*
X168665000Y-136575000D01*
X169695973Y-136575000D01*
X169746965Y-136399362D01*
X169686552Y-136187259D01*
X169585921Y-135991018D01*
X169448939Y-135818179D01*
X169280870Y-135675385D01*
X169088172Y-135568124D01*
X168878251Y-135500517D01*
X168840637Y-135493036D01*
X168665000Y-135544046D01*
X168615000Y-135544046D01*
X168439363Y-135493036D01*
X168401749Y-135500517D01*
X168191828Y-135568124D01*
X167999130Y-135675385D01*
X167831061Y-135818179D01*
X167694079Y-135991018D01*
X167593448Y-136187259D01*
X167533035Y-136399362D01*
X167226330Y-136399362D01*
X167226330Y-135750000D01*
X167221020Y-135696091D01*
X167205296Y-135644253D01*
X167179760Y-135596479D01*
X167145395Y-135554605D01*
X167103521Y-135520240D01*
X167055747Y-135494704D01*
X167003909Y-135478980D01*
X166950000Y-135473670D01*
X165539355Y-135473670D01*
X165490000Y-135424315D01*
X165490000Y-132872006D01*
X165622887Y-132816962D01*
X165807145Y-132693844D01*
X165963844Y-132537145D01*
X166086962Y-132352887D01*
X166171767Y-132148150D01*
X166215000Y-131930803D01*
X166215000Y-131709197D01*
X166171767Y-131491850D01*
X166086962Y-131287113D01*
X165963844Y-131102855D01*
X165807145Y-130946156D01*
X165670723Y-130855001D01*
X169989316Y-130855001D01*
X171367382Y-132233067D01*
G37*
%TD.AperFunction*%
D23*
X165683438Y-123074121D02*
X165183750Y-123075000D01*
X165115000Y-123143750D01*
X165115000Y-124175000D01*
X165135000Y-124175000D01*
X165135000Y-124225000D01*
X165115000Y-124225000D01*
X165115000Y-125256250D01*
X165183750Y-125325000D01*
X165865002Y-125326199D01*
X165865002Y-125399313D01*
X165551038Y-125713277D01*
X165418150Y-125658233D01*
X165200803Y-125615000D01*
X164979197Y-125615000D01*
X164761850Y-125658233D01*
X164557113Y-125743038D01*
X164372855Y-125866156D01*
X164216156Y-126022855D01*
X164093038Y-126207113D01*
X164008233Y-126411850D01*
X163965000Y-126629197D01*
X163965000Y-126850803D01*
X164008233Y-127068150D01*
X164063277Y-127201038D01*
X163914999Y-127349316D01*
X163784235Y-127218552D01*
X163771709Y-127203289D01*
X163710801Y-127153303D01*
X163641312Y-127116160D01*
X163565912Y-127093288D01*
X163507145Y-127087500D01*
X163507144Y-127087500D01*
X163487498Y-127085565D01*
X163467852Y-127087500D01*
X162926363Y-127087500D01*
X162912217Y-127040866D01*
X162864734Y-126952031D01*
X162800833Y-126874167D01*
X162722969Y-126810266D01*
X162634134Y-126762783D01*
X162600000Y-126752429D01*
X162600000Y-126547571D01*
X162634134Y-126537217D01*
X162722969Y-126489734D01*
X162800833Y-126425833D01*
X162864734Y-126347969D01*
X162912217Y-126259134D01*
X162941457Y-126162743D01*
X162951330Y-126062500D01*
X162951330Y-125462500D01*
X162941457Y-125362257D01*
X162912217Y-125265866D01*
X162864734Y-125177031D01*
X162800833Y-125099167D01*
X162740923Y-125050000D01*
X163963669Y-125050000D01*
X163968979Y-125103910D01*
X163984703Y-125155747D01*
X164010239Y-125203521D01*
X164044604Y-125245396D01*
X164086479Y-125279761D01*
X164134253Y-125305297D01*
X164186090Y-125321021D01*
X164240000Y-125326331D01*
X164996250Y-125325000D01*
X165065000Y-125256250D01*
X165065000Y-124225000D01*
X164033750Y-124225000D01*
X163965000Y-124293750D01*
X163963669Y-125050000D01*
X162740923Y-125050000D01*
X162722969Y-125035266D01*
X162634134Y-124987783D01*
X162537743Y-124958543D01*
X162437500Y-124948670D01*
X161962500Y-124948670D01*
X161862257Y-124958543D01*
X161799990Y-124977432D01*
X161799990Y-124851069D01*
X162106250Y-124850000D01*
X162175000Y-124781250D01*
X162175000Y-124062500D01*
X162225000Y-124062500D01*
X162225000Y-124781250D01*
X162293750Y-124850000D01*
X162675000Y-124851331D01*
X162728910Y-124846021D01*
X162780747Y-124830297D01*
X162828521Y-124804761D01*
X162870396Y-124770396D01*
X162904761Y-124728521D01*
X162930297Y-124680747D01*
X162946021Y-124628910D01*
X162951331Y-124575000D01*
X162950000Y-124131250D01*
X162881250Y-124062500D01*
X162225000Y-124062500D01*
X162175000Y-124062500D01*
X162155000Y-124062500D01*
X162155000Y-124012500D01*
X162175000Y-124012500D01*
X162175000Y-123293750D01*
X162225000Y-123293750D01*
X162225000Y-124012500D01*
X162881250Y-124012500D01*
X162950000Y-123943750D01*
X162951331Y-123500000D01*
X162946021Y-123446090D01*
X162930297Y-123394253D01*
X162906644Y-123350000D01*
X163963669Y-123350000D01*
X163965000Y-124106250D01*
X164033750Y-124175000D01*
X165065000Y-124175000D01*
X165065000Y-123143750D01*
X164996250Y-123075000D01*
X164240000Y-123073669D01*
X164186090Y-123078979D01*
X164134253Y-123094703D01*
X164086479Y-123120239D01*
X164044604Y-123154604D01*
X164010239Y-123196479D01*
X163984703Y-123244253D01*
X163968979Y-123296090D01*
X163963669Y-123350000D01*
X162906644Y-123350000D01*
X162904761Y-123346479D01*
X162870396Y-123304604D01*
X162828521Y-123270239D01*
X162780747Y-123244703D01*
X162728910Y-123228979D01*
X162675000Y-123223669D01*
X162293750Y-123225000D01*
X162225000Y-123293750D01*
X162175000Y-123293750D01*
X162106250Y-123225000D01*
X161799990Y-123223931D01*
X161799990Y-123051078D01*
X162118750Y-123050000D01*
X162187500Y-122981250D01*
X162187500Y-122325000D01*
X162237500Y-122325000D01*
X162237500Y-122981250D01*
X162306250Y-123050000D01*
X162700000Y-123051331D01*
X162753910Y-123046021D01*
X162805747Y-123030297D01*
X162853521Y-123004761D01*
X162895396Y-122970396D01*
X162929761Y-122928521D01*
X162955297Y-122880747D01*
X162971021Y-122828910D01*
X162976331Y-122775000D01*
X162975000Y-122393750D01*
X162906250Y-122325000D01*
X162237500Y-122325000D01*
X162187500Y-122325000D01*
X162167500Y-122325000D01*
X162167500Y-122275000D01*
X162187500Y-122275000D01*
X162187500Y-121618750D01*
X162237500Y-121618750D01*
X162237500Y-122275000D01*
X162906250Y-122275000D01*
X162975000Y-122206250D01*
X162976331Y-121825000D01*
X162971021Y-121771090D01*
X162955297Y-121719253D01*
X162929761Y-121671479D01*
X162895396Y-121629604D01*
X162853521Y-121595239D01*
X162805747Y-121569703D01*
X162753910Y-121553979D01*
X162700000Y-121548669D01*
X162306250Y-121550000D01*
X162237500Y-121618750D01*
X162187500Y-121618750D01*
X162118750Y-121550000D01*
X161725000Y-121548669D01*
X161689819Y-121552134D01*
X161684201Y-121545289D01*
X161668939Y-121532764D01*
X161586155Y-121449980D01*
X164059297Y-121449980D01*
X165683438Y-123074121D01*
%TA.AperFunction,Conductor*%
D24*
G36*
X165683438Y-123074121D02*
G01*
X165183750Y-123075000D01*
X165115000Y-123143750D01*
X165115000Y-124175000D01*
X165135000Y-124175000D01*
X165135000Y-124225000D01*
X165115000Y-124225000D01*
X165115000Y-125256250D01*
X165183750Y-125325000D01*
X165865002Y-125326199D01*
X165865002Y-125399313D01*
X165551038Y-125713277D01*
X165418150Y-125658233D01*
X165200803Y-125615000D01*
X164979197Y-125615000D01*
X164761850Y-125658233D01*
X164557113Y-125743038D01*
X164372855Y-125866156D01*
X164216156Y-126022855D01*
X164093038Y-126207113D01*
X164008233Y-126411850D01*
X163965000Y-126629197D01*
X163965000Y-126850803D01*
X164008233Y-127068150D01*
X164063277Y-127201038D01*
X163914999Y-127349316D01*
X163784235Y-127218552D01*
X163771709Y-127203289D01*
X163710801Y-127153303D01*
X163641312Y-127116160D01*
X163565912Y-127093288D01*
X163507145Y-127087500D01*
X163507144Y-127087500D01*
X163487498Y-127085565D01*
X163467852Y-127087500D01*
X162926363Y-127087500D01*
X162912217Y-127040866D01*
X162864734Y-126952031D01*
X162800833Y-126874167D01*
X162722969Y-126810266D01*
X162634134Y-126762783D01*
X162600000Y-126752429D01*
X162600000Y-126547571D01*
X162634134Y-126537217D01*
X162722969Y-126489734D01*
X162800833Y-126425833D01*
X162864734Y-126347969D01*
X162912217Y-126259134D01*
X162941457Y-126162743D01*
X162951330Y-126062500D01*
X162951330Y-125462500D01*
X162941457Y-125362257D01*
X162912217Y-125265866D01*
X162864734Y-125177031D01*
X162800833Y-125099167D01*
X162740923Y-125050000D01*
X163963669Y-125050000D01*
X163968979Y-125103910D01*
X163984703Y-125155747D01*
X164010239Y-125203521D01*
X164044604Y-125245396D01*
X164086479Y-125279761D01*
X164134253Y-125305297D01*
X164186090Y-125321021D01*
X164240000Y-125326331D01*
X164996250Y-125325000D01*
X165065000Y-125256250D01*
X165065000Y-124225000D01*
X164033750Y-124225000D01*
X163965000Y-124293750D01*
X163963669Y-125050000D01*
X162740923Y-125050000D01*
X162722969Y-125035266D01*
X162634134Y-124987783D01*
X162537743Y-124958543D01*
X162437500Y-124948670D01*
X161962500Y-124948670D01*
X161862257Y-124958543D01*
X161799990Y-124977432D01*
X161799990Y-124851069D01*
X162106250Y-124850000D01*
X162175000Y-124781250D01*
X162175000Y-124062500D01*
X162225000Y-124062500D01*
X162225000Y-124781250D01*
X162293750Y-124850000D01*
X162675000Y-124851331D01*
X162728910Y-124846021D01*
X162780747Y-124830297D01*
X162828521Y-124804761D01*
X162870396Y-124770396D01*
X162904761Y-124728521D01*
X162930297Y-124680747D01*
X162946021Y-124628910D01*
X162951331Y-124575000D01*
X162950000Y-124131250D01*
X162881250Y-124062500D01*
X162225000Y-124062500D01*
X162175000Y-124062500D01*
X162155000Y-124062500D01*
X162155000Y-124012500D01*
X162175000Y-124012500D01*
X162175000Y-123293750D01*
X162225000Y-123293750D01*
X162225000Y-124012500D01*
X162881250Y-124012500D01*
X162950000Y-123943750D01*
X162951331Y-123500000D01*
X162946021Y-123446090D01*
X162930297Y-123394253D01*
X162906644Y-123350000D01*
X163963669Y-123350000D01*
X163965000Y-124106250D01*
X164033750Y-124175000D01*
X165065000Y-124175000D01*
X165065000Y-123143750D01*
X164996250Y-123075000D01*
X164240000Y-123073669D01*
X164186090Y-123078979D01*
X164134253Y-123094703D01*
X164086479Y-123120239D01*
X164044604Y-123154604D01*
X164010239Y-123196479D01*
X163984703Y-123244253D01*
X163968979Y-123296090D01*
X163963669Y-123350000D01*
X162906644Y-123350000D01*
X162904761Y-123346479D01*
X162870396Y-123304604D01*
X162828521Y-123270239D01*
X162780747Y-123244703D01*
X162728910Y-123228979D01*
X162675000Y-123223669D01*
X162293750Y-123225000D01*
X162225000Y-123293750D01*
X162175000Y-123293750D01*
X162106250Y-123225000D01*
X161799990Y-123223931D01*
X161799990Y-123051078D01*
X162118750Y-123050000D01*
X162187500Y-122981250D01*
X162187500Y-122325000D01*
X162237500Y-122325000D01*
X162237500Y-122981250D01*
X162306250Y-123050000D01*
X162700000Y-123051331D01*
X162753910Y-123046021D01*
X162805747Y-123030297D01*
X162853521Y-123004761D01*
X162895396Y-122970396D01*
X162929761Y-122928521D01*
X162955297Y-122880747D01*
X162971021Y-122828910D01*
X162976331Y-122775000D01*
X162975000Y-122393750D01*
X162906250Y-122325000D01*
X162237500Y-122325000D01*
X162187500Y-122325000D01*
X162167500Y-122325000D01*
X162167500Y-122275000D01*
X162187500Y-122275000D01*
X162187500Y-121618750D01*
X162237500Y-121618750D01*
X162237500Y-122275000D01*
X162906250Y-122275000D01*
X162975000Y-122206250D01*
X162976331Y-121825000D01*
X162971021Y-121771090D01*
X162955297Y-121719253D01*
X162929761Y-121671479D01*
X162895396Y-121629604D01*
X162853521Y-121595239D01*
X162805747Y-121569703D01*
X162753910Y-121553979D01*
X162700000Y-121548669D01*
X162306250Y-121550000D01*
X162237500Y-121618750D01*
X162187500Y-121618750D01*
X162118750Y-121550000D01*
X161725000Y-121548669D01*
X161689819Y-121552134D01*
X161684201Y-121545289D01*
X161668939Y-121532764D01*
X161586155Y-121449980D01*
X164059297Y-121449980D01*
X165683438Y-123074121D01*
G37*
%TD.AperFunction*%
%TD*%
M02*
