M48
; DRILL file {KiCad 5.1.9+dfsg1-1} date Thu Jun 24 19:33:00 2021
; FORMAT={-:-/ absolute / inch / decimal}
; #@! TF.CreationDate,2021-06-24T19:33:00+02:00
; #@! TF.GenerationSoftware,Kicad,Pcbnew,5.1.9+dfsg1-1
; #@! TF.FileFunction,Plated,1,2,PTH
FMAT,2
INCH
T1C0.0157
T2C0.0394
T3C0.0472
%
G90
G05
T1
X6.0551Y-5.0315
X6.3307Y-5.1417
X7.2441Y-5.437
T2
X6.4996Y-4.8898
X6.4996Y-4.9898
X6.4996Y-5.0898
X6.4996Y-5.1898
X6.5394Y-5.378
X6.6394Y-5.378
X6.7394Y-5.378
X6.8394Y-5.378
X6.9394Y-5.378
X7.0394Y-5.378
X7.0996Y-4.8898
X7.0996Y-4.9898
X7.0996Y-5.0898
X7.0996Y-5.1898
T3
X5.6496Y-4.7969
X5.6496Y-4.9969
X5.6496Y-5.1969
X6.6969Y-4.7323
X6.6969Y-5.2638
X6.8937Y-4.7323
X6.8937Y-5.2638
T0
M30
