%TF.GenerationSoftware,KiCad,Pcbnew,5.1.9+dfsg1-1*%
%TF.CreationDate,2021-06-24T19:32:38+02:00*%
%TF.ProjectId,pcb,7063622e-6b69-4636-9164-5f7063625858,rev?*%
%TF.SameCoordinates,Original*%
%TF.FileFunction,Soldermask,Bot*%
%TF.FilePolarity,Negative*%
%FSLAX46Y46*%
G04 Gerber Fmt 4.6, Leading zero omitted, Abs format (unit mm)*
G04 Created by KiCad (PCBNEW 5.1.9+dfsg1-1) date 2021-06-24 19:32:38*
%MOMM*%
%LPD*%
G01*
G04 APERTURE LIST*
%ADD10R,2.400000X2.400000*%
%ADD11C,2.400000*%
%ADD12R,1.700000X1.700000*%
%ADD13O,1.700000X1.700000*%
%ADD14C,0.100000*%
G04 APERTURE END LIST*
D10*
%TO.C,C3*%
X170100000Y-120200000D03*
D11*
X175100000Y-120200000D03*
%TD*%
D12*
%TO.C,P1*%
X165090000Y-124200000D03*
D13*
X165090000Y-126740000D03*
X165090000Y-129280000D03*
X165090000Y-131820000D03*
%TD*%
%TO.C,P2*%
X180330000Y-124200000D03*
X180330000Y-126740000D03*
X180330000Y-129280000D03*
D12*
X180330000Y-131820000D03*
%TD*%
%TO.C,J1*%
G36*
G01*
X146050000Y-132900000D02*
X140950000Y-132900000D01*
G75*
G02*
X140500000Y-132450000I0J450000D01*
G01*
X140500000Y-131550000D01*
G75*
G02*
X140950000Y-131100000I450000J0D01*
G01*
X146050000Y-131100000D01*
G75*
G02*
X146500000Y-131550000I0J-450000D01*
G01*
X146500000Y-132450000D01*
G75*
G02*
X146050000Y-132900000I-450000J0D01*
G01*
G37*
G36*
G01*
X146050000Y-127820000D02*
X140950000Y-127820000D01*
G75*
G02*
X140500000Y-127370000I0J450000D01*
G01*
X140500000Y-126470000D01*
G75*
G02*
X140950000Y-126020000I450000J0D01*
G01*
X146050000Y-126020000D01*
G75*
G02*
X146500000Y-126470000I0J-450000D01*
G01*
X146500000Y-127370000D01*
G75*
G02*
X146050000Y-127820000I-450000J0D01*
G01*
G37*
G36*
G01*
X146050000Y-122740000D02*
X140950000Y-122740000D01*
G75*
G02*
X140500000Y-122290000I0J450000D01*
G01*
X140500000Y-121390000D01*
G75*
G02*
X140950000Y-120940000I450000J0D01*
G01*
X146050000Y-120940000D01*
G75*
G02*
X146500000Y-121390000I0J-450000D01*
G01*
X146500000Y-122290000D01*
G75*
G02*
X146050000Y-122740000I-450000J0D01*
G01*
G37*
%TD*%
%TO.C,J2*%
X166100000Y-136600000D03*
D13*
X168640000Y-136600000D03*
X171180000Y-136600000D03*
X173720000Y-136600000D03*
X176260000Y-136600000D03*
X178800000Y-136600000D03*
%TD*%
D10*
%TO.C,C7*%
X170100000Y-133700000D03*
D11*
X175100000Y-133700000D03*
%TD*%
D14*
G36*
X140501990Y-132449804D02*
G01*
X140510617Y-132537396D01*
X140536111Y-132621439D01*
X140577510Y-132698891D01*
X140633223Y-132766777D01*
X140701109Y-132822490D01*
X140778561Y-132863889D01*
X140862604Y-132889383D01*
X140950196Y-132898010D01*
X140951822Y-132899175D01*
X140951626Y-132901165D01*
X140950000Y-132902000D01*
X140893641Y-132902000D01*
X140893445Y-132901990D01*
X140811826Y-132893951D01*
X140811441Y-132893875D01*
X140738858Y-132871857D01*
X140738496Y-132871707D01*
X140671611Y-132835956D01*
X140671285Y-132835738D01*
X140612654Y-132787623D01*
X140612377Y-132787346D01*
X140564262Y-132728715D01*
X140564044Y-132728389D01*
X140528293Y-132661504D01*
X140528143Y-132661142D01*
X140506125Y-132588559D01*
X140506049Y-132588174D01*
X140498010Y-132506555D01*
X140498000Y-132506359D01*
X140498000Y-132450000D01*
X140499000Y-132448268D01*
X140501000Y-132448268D01*
X140501990Y-132449804D01*
G37*
G36*
X146501165Y-132448374D02*
G01*
X146502000Y-132450000D01*
X146502000Y-132506359D01*
X146501990Y-132506555D01*
X146493951Y-132588174D01*
X146493875Y-132588559D01*
X146471857Y-132661142D01*
X146471707Y-132661504D01*
X146435956Y-132728389D01*
X146435738Y-132728715D01*
X146387623Y-132787346D01*
X146387346Y-132787623D01*
X146328715Y-132835738D01*
X146328389Y-132835956D01*
X146261504Y-132871707D01*
X146261142Y-132871857D01*
X146188559Y-132893875D01*
X146188174Y-132893951D01*
X146106555Y-132901990D01*
X146106359Y-132902000D01*
X146050000Y-132902000D01*
X146048268Y-132901000D01*
X146048268Y-132899000D01*
X146049804Y-132898010D01*
X146137396Y-132889383D01*
X146221439Y-132863889D01*
X146298891Y-132822490D01*
X146366777Y-132766777D01*
X146422490Y-132698891D01*
X146463889Y-132621439D01*
X146489383Y-132537396D01*
X146498010Y-132449804D01*
X146499175Y-132448178D01*
X146501165Y-132448374D01*
G37*
G36*
X140951732Y-131099000D02*
G01*
X140951732Y-131101000D01*
X140950196Y-131101990D01*
X140862604Y-131110617D01*
X140778561Y-131136111D01*
X140701109Y-131177510D01*
X140633223Y-131233223D01*
X140577510Y-131301109D01*
X140536111Y-131378561D01*
X140510617Y-131462604D01*
X140501990Y-131550196D01*
X140500825Y-131551822D01*
X140498835Y-131551626D01*
X140498000Y-131550000D01*
X140498000Y-131493641D01*
X140498010Y-131493445D01*
X140506049Y-131411826D01*
X140506125Y-131411441D01*
X140528143Y-131338858D01*
X140528293Y-131338496D01*
X140564044Y-131271611D01*
X140564262Y-131271285D01*
X140612377Y-131212654D01*
X140612654Y-131212377D01*
X140671285Y-131164262D01*
X140671611Y-131164044D01*
X140738496Y-131128293D01*
X140738858Y-131128143D01*
X140811441Y-131106125D01*
X140811826Y-131106049D01*
X140893445Y-131098010D01*
X140893641Y-131098000D01*
X140950000Y-131098000D01*
X140951732Y-131099000D01*
G37*
G36*
X146106555Y-131098010D02*
G01*
X146188174Y-131106049D01*
X146188559Y-131106125D01*
X146261142Y-131128143D01*
X146261504Y-131128293D01*
X146328389Y-131164044D01*
X146328715Y-131164262D01*
X146387346Y-131212377D01*
X146387623Y-131212654D01*
X146435738Y-131271285D01*
X146435956Y-131271611D01*
X146471707Y-131338496D01*
X146471857Y-131338858D01*
X146493875Y-131411441D01*
X146493951Y-131411826D01*
X146501990Y-131493445D01*
X146502000Y-131493641D01*
X146502000Y-131550000D01*
X146501000Y-131551732D01*
X146499000Y-131551732D01*
X146498010Y-131550196D01*
X146489383Y-131462604D01*
X146463889Y-131378561D01*
X146422490Y-131301109D01*
X146366777Y-131233223D01*
X146298891Y-131177510D01*
X146221439Y-131136111D01*
X146137396Y-131110617D01*
X146049804Y-131101990D01*
X146048178Y-131100825D01*
X146048374Y-131098835D01*
X146050000Y-131098000D01*
X146106359Y-131098000D01*
X146106555Y-131098010D01*
G37*
G36*
X140501990Y-127369804D02*
G01*
X140510617Y-127457396D01*
X140536111Y-127541439D01*
X140577510Y-127618891D01*
X140633223Y-127686777D01*
X140701109Y-127742490D01*
X140778561Y-127783889D01*
X140862604Y-127809383D01*
X140950196Y-127818010D01*
X140951822Y-127819175D01*
X140951626Y-127821165D01*
X140950000Y-127822000D01*
X140893641Y-127822000D01*
X140893445Y-127821990D01*
X140811826Y-127813951D01*
X140811441Y-127813875D01*
X140738858Y-127791857D01*
X140738496Y-127791707D01*
X140671611Y-127755956D01*
X140671285Y-127755738D01*
X140612654Y-127707623D01*
X140612377Y-127707346D01*
X140564262Y-127648715D01*
X140564044Y-127648389D01*
X140528293Y-127581504D01*
X140528143Y-127581142D01*
X140506125Y-127508559D01*
X140506049Y-127508174D01*
X140498010Y-127426555D01*
X140498000Y-127426359D01*
X140498000Y-127370000D01*
X140499000Y-127368268D01*
X140501000Y-127368268D01*
X140501990Y-127369804D01*
G37*
G36*
X146501165Y-127368374D02*
G01*
X146502000Y-127370000D01*
X146502000Y-127426359D01*
X146501990Y-127426555D01*
X146493951Y-127508174D01*
X146493875Y-127508559D01*
X146471857Y-127581142D01*
X146471707Y-127581504D01*
X146435956Y-127648389D01*
X146435738Y-127648715D01*
X146387623Y-127707346D01*
X146387346Y-127707623D01*
X146328715Y-127755738D01*
X146328389Y-127755956D01*
X146261504Y-127791707D01*
X146261142Y-127791857D01*
X146188559Y-127813875D01*
X146188174Y-127813951D01*
X146106555Y-127821990D01*
X146106359Y-127822000D01*
X146050000Y-127822000D01*
X146048268Y-127821000D01*
X146048268Y-127819000D01*
X146049804Y-127818010D01*
X146137396Y-127809383D01*
X146221439Y-127783889D01*
X146298891Y-127742490D01*
X146366777Y-127686777D01*
X146422490Y-127618891D01*
X146463889Y-127541439D01*
X146489383Y-127457396D01*
X146498010Y-127369804D01*
X146499175Y-127368178D01*
X146501165Y-127368374D01*
G37*
G36*
X140951732Y-126019000D02*
G01*
X140951732Y-126021000D01*
X140950196Y-126021990D01*
X140862604Y-126030617D01*
X140778561Y-126056111D01*
X140701109Y-126097510D01*
X140633223Y-126153223D01*
X140577510Y-126221109D01*
X140536111Y-126298561D01*
X140510617Y-126382604D01*
X140501990Y-126470196D01*
X140500825Y-126471822D01*
X140498835Y-126471626D01*
X140498000Y-126470000D01*
X140498000Y-126413641D01*
X140498010Y-126413445D01*
X140506049Y-126331826D01*
X140506125Y-126331441D01*
X140528143Y-126258858D01*
X140528293Y-126258496D01*
X140564044Y-126191611D01*
X140564262Y-126191285D01*
X140612377Y-126132654D01*
X140612654Y-126132377D01*
X140671285Y-126084262D01*
X140671611Y-126084044D01*
X140738496Y-126048293D01*
X140738858Y-126048143D01*
X140811441Y-126026125D01*
X140811826Y-126026049D01*
X140893445Y-126018010D01*
X140893641Y-126018000D01*
X140950000Y-126018000D01*
X140951732Y-126019000D01*
G37*
G36*
X146106555Y-126018010D02*
G01*
X146188174Y-126026049D01*
X146188559Y-126026125D01*
X146261142Y-126048143D01*
X146261504Y-126048293D01*
X146328389Y-126084044D01*
X146328715Y-126084262D01*
X146387346Y-126132377D01*
X146387623Y-126132654D01*
X146435738Y-126191285D01*
X146435956Y-126191611D01*
X146471707Y-126258496D01*
X146471857Y-126258858D01*
X146493875Y-126331441D01*
X146493951Y-126331826D01*
X146501990Y-126413445D01*
X146502000Y-126413641D01*
X146502000Y-126470000D01*
X146501000Y-126471732D01*
X146499000Y-126471732D01*
X146498010Y-126470196D01*
X146489383Y-126382604D01*
X146463889Y-126298561D01*
X146422490Y-126221109D01*
X146366777Y-126153223D01*
X146298891Y-126097510D01*
X146221439Y-126056111D01*
X146137396Y-126030617D01*
X146049804Y-126021990D01*
X146048178Y-126020825D01*
X146048374Y-126018835D01*
X146050000Y-126018000D01*
X146106359Y-126018000D01*
X146106555Y-126018010D01*
G37*
G36*
X146501165Y-122288374D02*
G01*
X146502000Y-122290000D01*
X146502000Y-122346359D01*
X146501990Y-122346555D01*
X146493951Y-122428174D01*
X146493875Y-122428559D01*
X146471857Y-122501142D01*
X146471707Y-122501504D01*
X146435956Y-122568389D01*
X146435738Y-122568715D01*
X146387623Y-122627346D01*
X146387346Y-122627623D01*
X146328715Y-122675738D01*
X146328389Y-122675956D01*
X146261504Y-122711707D01*
X146261142Y-122711857D01*
X146188559Y-122733875D01*
X146188174Y-122733951D01*
X146106555Y-122741990D01*
X146106359Y-122742000D01*
X146050000Y-122742000D01*
X146048268Y-122741000D01*
X146048268Y-122739000D01*
X146049804Y-122738010D01*
X146137396Y-122729383D01*
X146221439Y-122703889D01*
X146298891Y-122662490D01*
X146366777Y-122606777D01*
X146422490Y-122538891D01*
X146463889Y-122461439D01*
X146489383Y-122377396D01*
X146498010Y-122289804D01*
X146499175Y-122288178D01*
X146501165Y-122288374D01*
G37*
G36*
X140501990Y-122289804D02*
G01*
X140510617Y-122377396D01*
X140536111Y-122461439D01*
X140577510Y-122538891D01*
X140633223Y-122606777D01*
X140701109Y-122662490D01*
X140778561Y-122703889D01*
X140862604Y-122729383D01*
X140950196Y-122738010D01*
X140951822Y-122739175D01*
X140951626Y-122741165D01*
X140950000Y-122742000D01*
X140893641Y-122742000D01*
X140893445Y-122741990D01*
X140811826Y-122733951D01*
X140811441Y-122733875D01*
X140738858Y-122711857D01*
X140738496Y-122711707D01*
X140671611Y-122675956D01*
X140671285Y-122675738D01*
X140612654Y-122627623D01*
X140612377Y-122627346D01*
X140564262Y-122568715D01*
X140564044Y-122568389D01*
X140528293Y-122501504D01*
X140528143Y-122501142D01*
X140506125Y-122428559D01*
X140506049Y-122428174D01*
X140498010Y-122346555D01*
X140498000Y-122346359D01*
X140498000Y-122290000D01*
X140499000Y-122288268D01*
X140501000Y-122288268D01*
X140501990Y-122289804D01*
G37*
G36*
X140951732Y-120939000D02*
G01*
X140951732Y-120941000D01*
X140950196Y-120941990D01*
X140862604Y-120950617D01*
X140778561Y-120976111D01*
X140701109Y-121017510D01*
X140633223Y-121073223D01*
X140577510Y-121141109D01*
X140536111Y-121218561D01*
X140510617Y-121302604D01*
X140501990Y-121390196D01*
X140500825Y-121391822D01*
X140498835Y-121391626D01*
X140498000Y-121390000D01*
X140498000Y-121333641D01*
X140498010Y-121333445D01*
X140506049Y-121251826D01*
X140506125Y-121251441D01*
X140528143Y-121178858D01*
X140528293Y-121178496D01*
X140564044Y-121111611D01*
X140564262Y-121111285D01*
X140612377Y-121052654D01*
X140612654Y-121052377D01*
X140671285Y-121004262D01*
X140671611Y-121004044D01*
X140738496Y-120968293D01*
X140738858Y-120968143D01*
X140811441Y-120946125D01*
X140811826Y-120946049D01*
X140893445Y-120938010D01*
X140893641Y-120938000D01*
X140950000Y-120938000D01*
X140951732Y-120939000D01*
G37*
G36*
X146106555Y-120938010D02*
G01*
X146188174Y-120946049D01*
X146188559Y-120946125D01*
X146261142Y-120968143D01*
X146261504Y-120968293D01*
X146328389Y-121004044D01*
X146328715Y-121004262D01*
X146387346Y-121052377D01*
X146387623Y-121052654D01*
X146435738Y-121111285D01*
X146435956Y-121111611D01*
X146471707Y-121178496D01*
X146471857Y-121178858D01*
X146493875Y-121251441D01*
X146493951Y-121251826D01*
X146501990Y-121333445D01*
X146502000Y-121333641D01*
X146502000Y-121390000D01*
X146501000Y-121391732D01*
X146499000Y-121391732D01*
X146498010Y-121390196D01*
X146489383Y-121302604D01*
X146463889Y-121218561D01*
X146422490Y-121141109D01*
X146366777Y-121073223D01*
X146298891Y-121017510D01*
X146221439Y-120976111D01*
X146137396Y-120950617D01*
X146049804Y-120941990D01*
X146048178Y-120940825D01*
X146048374Y-120938835D01*
X146050000Y-120938000D01*
X146106359Y-120938000D01*
X146106555Y-120938010D01*
G37*
M02*
