%TF.GenerationSoftware,KiCad,Pcbnew,5.1.9+dfsg1-1*%
%TF.CreationDate,2021-06-24T19:32:38+02:00*%
%TF.ProjectId,pcb,7063622e-6b69-4636-9164-5f7063625858,rev?*%
%TF.SameCoordinates,Original*%
%TF.FileFunction,Legend,Top*%
%TF.FilePolarity,Positive*%
%FSLAX46Y46*%
G04 Gerber Fmt 4.6, Leading zero omitted, Abs format (unit mm)*
G04 Created by KiCad (PCBNEW 5.1.9+dfsg1-1) date 2021-06-24 19:32:38*
%MOMM*%
%LPD*%
G01*
G04 APERTURE LIST*
%ADD10C,0.120000*%
%ADD11C,0.150000*%
G04 APERTURE END LIST*
D10*
%TO.C,D6*%
X184100000Y-131000000D02*
X184100000Y-133550000D01*
X182400000Y-131000000D02*
X182400000Y-133550000D01*
X184100000Y-131000000D02*
X182400000Y-131000000D01*
%TO.C,U1*%
X160810000Y-130600000D02*
X160810000Y-129100000D01*
X160810000Y-130600000D02*
X160810000Y-132100000D01*
X157590000Y-130600000D02*
X157590000Y-129100000D01*
X157590000Y-130600000D02*
X157590000Y-133475000D01*
%TO.C,D2*%
X152800000Y-125850000D02*
X150250000Y-125850000D01*
X152800000Y-124150000D02*
X150250000Y-124150000D01*
X152800000Y-125850000D02*
X152800000Y-124150000D01*
%TO.C,D3*%
X153220000Y-132860000D02*
X154150000Y-132860000D01*
X156380000Y-132860000D02*
X155450000Y-132860000D01*
X156380000Y-132860000D02*
X156380000Y-130700000D01*
X153220000Y-132860000D02*
X153220000Y-131400000D01*
%TO.C,P1*%
X165090000Y-122870000D02*
X166420000Y-122870000D01*
X166420000Y-122870000D02*
X166420000Y-124200000D01*
X166420000Y-125470000D02*
X166420000Y-133150000D01*
X163760000Y-133150000D02*
X166420000Y-133150000D01*
X163760000Y-125470000D02*
X163760000Y-133150000D01*
X163760000Y-125470000D02*
X166420000Y-125470000D01*
%TO.C,P2*%
X181660000Y-130550000D02*
X179000000Y-130550000D01*
X181660000Y-130550000D02*
X181660000Y-122870000D01*
X181660000Y-122870000D02*
X179000000Y-122870000D01*
X179000000Y-130550000D02*
X179000000Y-122870000D01*
X179000000Y-133150000D02*
X179000000Y-131820000D01*
X180330000Y-133150000D02*
X179000000Y-133150000D01*
%TO.C,C1*%
X148461252Y-123535000D02*
X147938748Y-123535000D01*
X148461252Y-122065000D02*
X147938748Y-122065000D01*
%TO.C,C2*%
X162710000Y-125046267D02*
X162710000Y-124753733D01*
X161690000Y-125046267D02*
X161690000Y-124753733D01*
%TO.C,C4*%
X155246267Y-135310000D02*
X154953733Y-135310000D01*
X155246267Y-134290000D02*
X154953733Y-134290000D01*
%TO.C,C5*%
X154653733Y-129810000D02*
X154946267Y-129810000D01*
X154653733Y-128790000D02*
X154946267Y-128790000D01*
%TO.C,C6*%
X161690000Y-132046267D02*
X161690000Y-131753733D01*
X162710000Y-132046267D02*
X162710000Y-131753733D01*
%TO.C,D1*%
X148650000Y-124000000D02*
X146950000Y-124000000D01*
X146950000Y-124000000D02*
X146950000Y-126550000D01*
X148650000Y-124000000D02*
X148650000Y-126550000D01*
%TO.C,D4*%
X160800000Y-135750000D02*
X160800000Y-137450000D01*
X160800000Y-137450000D02*
X163350000Y-137450000D01*
X160800000Y-135750000D02*
X163350000Y-135750000D01*
%TO.C,J2*%
X180130000Y-137930000D02*
X180130000Y-135270000D01*
X167370000Y-137930000D02*
X180130000Y-137930000D01*
X167370000Y-135270000D02*
X180130000Y-135270000D01*
X167370000Y-137930000D02*
X167370000Y-135270000D01*
X166100000Y-137930000D02*
X164770000Y-137930000D01*
X164770000Y-137930000D02*
X164770000Y-136600000D01*
%TO.C,L1*%
X156000000Y-123600000D02*
X159000000Y-123600000D01*
X156000000Y-126800000D02*
X159000000Y-126800000D01*
%TO.C,Q1*%
X151160000Y-130680000D02*
X151160000Y-129750000D01*
X151160000Y-127520000D02*
X151160000Y-128450000D01*
X151160000Y-127520000D02*
X149000000Y-127520000D01*
X151160000Y-130680000D02*
X149700000Y-130680000D01*
%TO.C,R1*%
X162722500Y-128654724D02*
X162722500Y-128145276D01*
X161677500Y-128654724D02*
X161677500Y-128145276D01*
%TO.C,R3*%
X148022500Y-129345276D02*
X148022500Y-129854724D01*
X146977500Y-129345276D02*
X146977500Y-129854724D01*
%TO.C,R5*%
X158345276Y-135977500D02*
X158854724Y-135977500D01*
X158345276Y-137022500D02*
X158854724Y-137022500D01*
%TO.C,R7*%
X162045276Y-134077500D02*
X162554724Y-134077500D01*
X162045276Y-135122500D02*
X162554724Y-135122500D01*
%TO.C,R8*%
X157245276Y-121777500D02*
X157754724Y-121777500D01*
X157245276Y-122822500D02*
X157754724Y-122822500D01*
%TO.C,R9*%
X161045276Y-122822500D02*
X161554724Y-122822500D01*
X161045276Y-121777500D02*
X161554724Y-121777500D01*
%TO.C,D5*%
X157000000Y-133900000D02*
X157000000Y-135600000D01*
X157000000Y-135600000D02*
X159550000Y-135600000D01*
X157000000Y-133900000D02*
X159550000Y-133900000D01*
%TO.C,U2*%
X182850000Y-137610000D02*
X184650000Y-137610000D01*
X184650000Y-134390000D02*
X182200000Y-134390000D01*
%TO.C,D7*%
X151760000Y-134180000D02*
X150300000Y-134180000D01*
X151760000Y-131020000D02*
X149600000Y-131020000D01*
X151760000Y-131020000D02*
X151760000Y-131950000D01*
X151760000Y-134180000D02*
X151760000Y-133250000D01*
%TO.C,R2*%
X155745276Y-138622500D02*
X156254724Y-138622500D01*
X155745276Y-137577500D02*
X156254724Y-137577500D01*
%TO.C,R4*%
X180477500Y-137054724D02*
X180477500Y-136545276D01*
X181522500Y-137054724D02*
X181522500Y-136545276D01*
%TO.C,D6*%
D11*
X185552380Y-133238095D02*
X184552380Y-133238095D01*
X184552380Y-133000000D01*
X184600000Y-132857142D01*
X184695238Y-132761904D01*
X184790476Y-132714285D01*
X184980952Y-132666666D01*
X185123809Y-132666666D01*
X185314285Y-132714285D01*
X185409523Y-132761904D01*
X185504761Y-132857142D01*
X185552380Y-133000000D01*
X185552380Y-133238095D01*
X184552380Y-131809523D02*
X184552380Y-132000000D01*
X184600000Y-132095238D01*
X184647619Y-132142857D01*
X184790476Y-132238095D01*
X184980952Y-132285714D01*
X185361904Y-132285714D01*
X185457142Y-132238095D01*
X185504761Y-132190476D01*
X185552380Y-132095238D01*
X185552380Y-131904761D01*
X185504761Y-131809523D01*
X185457142Y-131761904D01*
X185361904Y-131714285D01*
X185123809Y-131714285D01*
X185028571Y-131761904D01*
X184980952Y-131809523D01*
X184933333Y-131904761D01*
X184933333Y-132095238D01*
X184980952Y-132190476D01*
X185028571Y-132238095D01*
X185123809Y-132285714D01*
%TO.C,U1*%
X156492341Y-130406779D02*
X157139960Y-130406779D01*
X157216151Y-130368684D01*
X157254246Y-130330589D01*
X157292341Y-130254398D01*
X157292341Y-130102017D01*
X157254246Y-130025827D01*
X157216151Y-129987732D01*
X157139960Y-129949636D01*
X156492341Y-129949636D01*
X157292341Y-129149636D02*
X157292341Y-129606779D01*
X157292341Y-129378208D02*
X156492341Y-129378208D01*
X156606627Y-129454398D01*
X156682817Y-129530589D01*
X156720913Y-129606779D01*
%TO.C,D2*%
X151011904Y-123702380D02*
X151011904Y-122702380D01*
X151250000Y-122702380D01*
X151392857Y-122750000D01*
X151488095Y-122845238D01*
X151535714Y-122940476D01*
X151583333Y-123130952D01*
X151583333Y-123273809D01*
X151535714Y-123464285D01*
X151488095Y-123559523D01*
X151392857Y-123654761D01*
X151250000Y-123702380D01*
X151011904Y-123702380D01*
X151964285Y-122797619D02*
X152011904Y-122750000D01*
X152107142Y-122702380D01*
X152345238Y-122702380D01*
X152440476Y-122750000D01*
X152488095Y-122797619D01*
X152535714Y-122892857D01*
X152535714Y-122988095D01*
X152488095Y-123130952D01*
X151916666Y-123702380D01*
X152535714Y-123702380D01*
%TO.C,D3*%
X152952380Y-132738095D02*
X151952380Y-132738095D01*
X151952380Y-132500000D01*
X152000000Y-132357142D01*
X152095238Y-132261904D01*
X152190476Y-132214285D01*
X152380952Y-132166666D01*
X152523809Y-132166666D01*
X152714285Y-132214285D01*
X152809523Y-132261904D01*
X152904761Y-132357142D01*
X152952380Y-132500000D01*
X152952380Y-132738095D01*
X151952380Y-131833333D02*
X151952380Y-131214285D01*
X152333333Y-131547619D01*
X152333333Y-131404761D01*
X152380952Y-131309523D01*
X152428571Y-131261904D01*
X152523809Y-131214285D01*
X152761904Y-131214285D01*
X152857142Y-131261904D01*
X152904761Y-131309523D01*
X152952380Y-131404761D01*
X152952380Y-131690476D01*
X152904761Y-131785714D01*
X152857142Y-131833333D01*
%TO.C,P1*%
X167011904Y-128202380D02*
X167011904Y-127202380D01*
X167392857Y-127202380D01*
X167488095Y-127250000D01*
X167535714Y-127297619D01*
X167583333Y-127392857D01*
X167583333Y-127535714D01*
X167535714Y-127630952D01*
X167488095Y-127678571D01*
X167392857Y-127726190D01*
X167011904Y-127726190D01*
X168535714Y-128202380D02*
X167964285Y-128202380D01*
X168250000Y-128202380D02*
X168250000Y-127202380D01*
X168154761Y-127345238D01*
X168059523Y-127440476D01*
X167964285Y-127488095D01*
%TO.C,P2*%
X182011904Y-129202380D02*
X182011904Y-128202380D01*
X182392857Y-128202380D01*
X182488095Y-128250000D01*
X182535714Y-128297619D01*
X182583333Y-128392857D01*
X182583333Y-128535714D01*
X182535714Y-128630952D01*
X182488095Y-128678571D01*
X182392857Y-128726190D01*
X182011904Y-128726190D01*
X182964285Y-128297619D02*
X183011904Y-128250000D01*
X183107142Y-128202380D01*
X183345238Y-128202380D01*
X183440476Y-128250000D01*
X183488095Y-128297619D01*
X183535714Y-128392857D01*
X183535714Y-128488095D01*
X183488095Y-128630952D01*
X182916666Y-129202380D01*
X183535714Y-129202380D01*
%TO.C,C1*%
X148083333Y-121357142D02*
X148035714Y-121404761D01*
X147892857Y-121452380D01*
X147797619Y-121452380D01*
X147654761Y-121404761D01*
X147559523Y-121309523D01*
X147511904Y-121214285D01*
X147464285Y-121023809D01*
X147464285Y-120880952D01*
X147511904Y-120690476D01*
X147559523Y-120595238D01*
X147654761Y-120500000D01*
X147797619Y-120452380D01*
X147892857Y-120452380D01*
X148035714Y-120500000D01*
X148083333Y-120547619D01*
X149035714Y-121452380D02*
X148464285Y-121452380D01*
X148750000Y-121452380D02*
X148750000Y-120452380D01*
X148654761Y-120595238D01*
X148559523Y-120690476D01*
X148464285Y-120738095D01*
%TO.C,C2*%
X161127142Y-125066666D02*
X161174761Y-125114285D01*
X161222380Y-125257142D01*
X161222380Y-125352380D01*
X161174761Y-125495238D01*
X161079523Y-125590476D01*
X160984285Y-125638095D01*
X160793809Y-125685714D01*
X160650952Y-125685714D01*
X160460476Y-125638095D01*
X160365238Y-125590476D01*
X160270000Y-125495238D01*
X160222380Y-125352380D01*
X160222380Y-125257142D01*
X160270000Y-125114285D01*
X160317619Y-125066666D01*
X160317619Y-124685714D02*
X160270000Y-124638095D01*
X160222380Y-124542857D01*
X160222380Y-124304761D01*
X160270000Y-124209523D01*
X160317619Y-124161904D01*
X160412857Y-124114285D01*
X160508095Y-124114285D01*
X160650952Y-124161904D01*
X161222380Y-124733333D01*
X161222380Y-124114285D01*
%TO.C,C4*%
X152333333Y-135107142D02*
X152285714Y-135154761D01*
X152142857Y-135202380D01*
X152047619Y-135202380D01*
X151904761Y-135154761D01*
X151809523Y-135059523D01*
X151761904Y-134964285D01*
X151714285Y-134773809D01*
X151714285Y-134630952D01*
X151761904Y-134440476D01*
X151809523Y-134345238D01*
X151904761Y-134250000D01*
X152047619Y-134202380D01*
X152142857Y-134202380D01*
X152285714Y-134250000D01*
X152333333Y-134297619D01*
X153190476Y-134535714D02*
X153190476Y-135202380D01*
X152952380Y-134154761D02*
X152714285Y-134869047D01*
X153333333Y-134869047D01*
%TO.C,C5*%
X154633333Y-128227142D02*
X154585714Y-128274761D01*
X154442857Y-128322380D01*
X154347619Y-128322380D01*
X154204761Y-128274761D01*
X154109523Y-128179523D01*
X154061904Y-128084285D01*
X154014285Y-127893809D01*
X154014285Y-127750952D01*
X154061904Y-127560476D01*
X154109523Y-127465238D01*
X154204761Y-127370000D01*
X154347619Y-127322380D01*
X154442857Y-127322380D01*
X154585714Y-127370000D01*
X154633333Y-127417619D01*
X155538095Y-127322380D02*
X155061904Y-127322380D01*
X155014285Y-127798571D01*
X155061904Y-127750952D01*
X155157142Y-127703333D01*
X155395238Y-127703333D01*
X155490476Y-127750952D01*
X155538095Y-127798571D01*
X155585714Y-127893809D01*
X155585714Y-128131904D01*
X155538095Y-128227142D01*
X155490476Y-128274761D01*
X155395238Y-128322380D01*
X155157142Y-128322380D01*
X155061904Y-128274761D01*
X155014285Y-128227142D01*
%TO.C,C6*%
X161379587Y-132890449D02*
X161417682Y-132928544D01*
X161455777Y-133042830D01*
X161455777Y-133119020D01*
X161417682Y-133233306D01*
X161341492Y-133309496D01*
X161265301Y-133347592D01*
X161112920Y-133385687D01*
X160998634Y-133385687D01*
X160846253Y-133347592D01*
X160770063Y-133309496D01*
X160693873Y-133233306D01*
X160655777Y-133119020D01*
X160655777Y-133042830D01*
X160693873Y-132928544D01*
X160731968Y-132890449D01*
X160655777Y-132204735D02*
X160655777Y-132357116D01*
X160693873Y-132433306D01*
X160731968Y-132471401D01*
X160846253Y-132547592D01*
X160998634Y-132585687D01*
X161303396Y-132585687D01*
X161379587Y-132547592D01*
X161417682Y-132509496D01*
X161455777Y-132433306D01*
X161455777Y-132280925D01*
X161417682Y-132204735D01*
X161379587Y-132166639D01*
X161303396Y-132128544D01*
X161112920Y-132128544D01*
X161036730Y-132166639D01*
X160998634Y-132204735D01*
X160960539Y-132280925D01*
X160960539Y-132433306D01*
X160998634Y-132509496D01*
X161036730Y-132547592D01*
X161112920Y-132585687D01*
%TO.C,D1*%
X146452380Y-125188095D02*
X145452380Y-125188095D01*
X145452380Y-124950000D01*
X145500000Y-124807142D01*
X145595238Y-124711904D01*
X145690476Y-124664285D01*
X145880952Y-124616666D01*
X146023809Y-124616666D01*
X146214285Y-124664285D01*
X146309523Y-124711904D01*
X146404761Y-124807142D01*
X146452380Y-124950000D01*
X146452380Y-125188095D01*
X146452380Y-123664285D02*
X146452380Y-124235714D01*
X146452380Y-123950000D02*
X145452380Y-123950000D01*
X145595238Y-124045238D01*
X145690476Y-124140476D01*
X145738095Y-124235714D01*
%TO.C,D4*%
X161511904Y-138702380D02*
X161511904Y-137702380D01*
X161750000Y-137702380D01*
X161892857Y-137750000D01*
X161988095Y-137845238D01*
X162035714Y-137940476D01*
X162083333Y-138130952D01*
X162083333Y-138273809D01*
X162035714Y-138464285D01*
X161988095Y-138559523D01*
X161892857Y-138654761D01*
X161750000Y-138702380D01*
X161511904Y-138702380D01*
X162940476Y-138035714D02*
X162940476Y-138702380D01*
X162702380Y-137654761D02*
X162464285Y-138369047D01*
X163083333Y-138369047D01*
%TO.C,J2*%
X167166666Y-133702380D02*
X167166666Y-134416666D01*
X167119047Y-134559523D01*
X167023809Y-134654761D01*
X166880952Y-134702380D01*
X166785714Y-134702380D01*
X167595238Y-133797619D02*
X167642857Y-133750000D01*
X167738095Y-133702380D01*
X167976190Y-133702380D01*
X168071428Y-133750000D01*
X168119047Y-133797619D01*
X168166666Y-133892857D01*
X168166666Y-133988095D01*
X168119047Y-134130952D01*
X167547619Y-134702380D01*
X168166666Y-134702380D01*
%TO.C,L1*%
X154583333Y-125452380D02*
X154107142Y-125452380D01*
X154107142Y-124452380D01*
X155440476Y-125452380D02*
X154869047Y-125452380D01*
X155154761Y-125452380D02*
X155154761Y-124452380D01*
X155059523Y-124595238D01*
X154964285Y-124690476D01*
X154869047Y-124738095D01*
%TO.C,Q1*%
X150304761Y-127147619D02*
X150209523Y-127100000D01*
X150114285Y-127004761D01*
X149971428Y-126861904D01*
X149876190Y-126814285D01*
X149780952Y-126814285D01*
X149828571Y-127052380D02*
X149733333Y-127004761D01*
X149638095Y-126909523D01*
X149590476Y-126719047D01*
X149590476Y-126385714D01*
X149638095Y-126195238D01*
X149733333Y-126100000D01*
X149828571Y-126052380D01*
X150019047Y-126052380D01*
X150114285Y-126100000D01*
X150209523Y-126195238D01*
X150257142Y-126385714D01*
X150257142Y-126719047D01*
X150209523Y-126909523D01*
X150114285Y-127004761D01*
X150019047Y-127052380D01*
X149828571Y-127052380D01*
X151209523Y-127052380D02*
X150638095Y-127052380D01*
X150923809Y-127052380D02*
X150923809Y-126052380D01*
X150828571Y-126195238D01*
X150733333Y-126290476D01*
X150638095Y-126338095D01*
%TO.C,R1*%
X161456820Y-128383333D02*
X161075868Y-128650000D01*
X161456820Y-128840476D02*
X160656820Y-128840476D01*
X160656820Y-128535714D01*
X160694916Y-128459523D01*
X160733011Y-128421428D01*
X160809201Y-128383333D01*
X160923487Y-128383333D01*
X160999677Y-128421428D01*
X161037773Y-128459523D01*
X161075868Y-128535714D01*
X161075868Y-128840476D01*
X161456820Y-127621428D02*
X161456820Y-128078571D01*
X161456820Y-127850000D02*
X160656820Y-127850000D01*
X160771106Y-127926190D01*
X160847296Y-128002380D01*
X160885392Y-128078571D01*
%TO.C,R3*%
X146452380Y-129766666D02*
X145976190Y-130100000D01*
X146452380Y-130338095D02*
X145452380Y-130338095D01*
X145452380Y-129957142D01*
X145500000Y-129861904D01*
X145547619Y-129814285D01*
X145642857Y-129766666D01*
X145785714Y-129766666D01*
X145880952Y-129814285D01*
X145928571Y-129861904D01*
X145976190Y-129957142D01*
X145976190Y-130338095D01*
X145452380Y-129433333D02*
X145452380Y-128814285D01*
X145833333Y-129147619D01*
X145833333Y-129004761D01*
X145880952Y-128909523D01*
X145928571Y-128861904D01*
X146023809Y-128814285D01*
X146261904Y-128814285D01*
X146357142Y-128861904D01*
X146404761Y-128909523D01*
X146452380Y-129004761D01*
X146452380Y-129290476D01*
X146404761Y-129385714D01*
X146357142Y-129433333D01*
%TO.C,R5*%
X158333333Y-138502380D02*
X158000000Y-138026190D01*
X157761904Y-138502380D02*
X157761904Y-137502380D01*
X158142857Y-137502380D01*
X158238095Y-137550000D01*
X158285714Y-137597619D01*
X158333333Y-137692857D01*
X158333333Y-137835714D01*
X158285714Y-137930952D01*
X158238095Y-137978571D01*
X158142857Y-138026190D01*
X157761904Y-138026190D01*
X159238095Y-137502380D02*
X158761904Y-137502380D01*
X158714285Y-137978571D01*
X158761904Y-137930952D01*
X158857142Y-137883333D01*
X159095238Y-137883333D01*
X159190476Y-137930952D01*
X159238095Y-137978571D01*
X159285714Y-138073809D01*
X159285714Y-138311904D01*
X159238095Y-138407142D01*
X159190476Y-138454761D01*
X159095238Y-138502380D01*
X158857142Y-138502380D01*
X158761904Y-138454761D01*
X158714285Y-138407142D01*
%TO.C,R7*%
X164833333Y-134952380D02*
X164500000Y-134476190D01*
X164261904Y-134952380D02*
X164261904Y-133952380D01*
X164642857Y-133952380D01*
X164738095Y-134000000D01*
X164785714Y-134047619D01*
X164833333Y-134142857D01*
X164833333Y-134285714D01*
X164785714Y-134380952D01*
X164738095Y-134428571D01*
X164642857Y-134476190D01*
X164261904Y-134476190D01*
X165166666Y-133952380D02*
X165833333Y-133952380D01*
X165404761Y-134952380D01*
%TO.C,R8*%
X157333333Y-121322380D02*
X157000000Y-120846190D01*
X156761904Y-121322380D02*
X156761904Y-120322380D01*
X157142857Y-120322380D01*
X157238095Y-120370000D01*
X157285714Y-120417619D01*
X157333333Y-120512857D01*
X157333333Y-120655714D01*
X157285714Y-120750952D01*
X157238095Y-120798571D01*
X157142857Y-120846190D01*
X156761904Y-120846190D01*
X157904761Y-120750952D02*
X157809523Y-120703333D01*
X157761904Y-120655714D01*
X157714285Y-120560476D01*
X157714285Y-120512857D01*
X157761904Y-120417619D01*
X157809523Y-120370000D01*
X157904761Y-120322380D01*
X158095238Y-120322380D01*
X158190476Y-120370000D01*
X158238095Y-120417619D01*
X158285714Y-120512857D01*
X158285714Y-120560476D01*
X158238095Y-120655714D01*
X158190476Y-120703333D01*
X158095238Y-120750952D01*
X157904761Y-120750952D01*
X157809523Y-120798571D01*
X157761904Y-120846190D01*
X157714285Y-120941428D01*
X157714285Y-121131904D01*
X157761904Y-121227142D01*
X157809523Y-121274761D01*
X157904761Y-121322380D01*
X158095238Y-121322380D01*
X158190476Y-121274761D01*
X158238095Y-121227142D01*
X158285714Y-121131904D01*
X158285714Y-120941428D01*
X158238095Y-120846190D01*
X158190476Y-120798571D01*
X158095238Y-120750952D01*
%TO.C,R9*%
X161133333Y-121322380D02*
X160800000Y-120846190D01*
X160561904Y-121322380D02*
X160561904Y-120322380D01*
X160942857Y-120322380D01*
X161038095Y-120370000D01*
X161085714Y-120417619D01*
X161133333Y-120512857D01*
X161133333Y-120655714D01*
X161085714Y-120750952D01*
X161038095Y-120798571D01*
X160942857Y-120846190D01*
X160561904Y-120846190D01*
X161609523Y-121322380D02*
X161800000Y-121322380D01*
X161895238Y-121274761D01*
X161942857Y-121227142D01*
X162038095Y-121084285D01*
X162085714Y-120893809D01*
X162085714Y-120512857D01*
X162038095Y-120417619D01*
X161990476Y-120370000D01*
X161895238Y-120322380D01*
X161704761Y-120322380D01*
X161609523Y-120370000D01*
X161561904Y-120417619D01*
X161514285Y-120512857D01*
X161514285Y-120750952D01*
X161561904Y-120846190D01*
X161609523Y-120893809D01*
X161704761Y-120941428D01*
X161895238Y-120941428D01*
X161990476Y-120893809D01*
X162038095Y-120846190D01*
X162085714Y-120750952D01*
%TO.C,D5*%
X158861904Y-135340476D02*
X158061904Y-135340476D01*
X158061904Y-135150000D01*
X158100000Y-135035714D01*
X158176190Y-134959523D01*
X158252380Y-134921428D01*
X158404761Y-134883333D01*
X158519047Y-134883333D01*
X158671428Y-134921428D01*
X158747619Y-134959523D01*
X158823809Y-135035714D01*
X158861904Y-135150000D01*
X158861904Y-135340476D01*
X158061904Y-134159523D02*
X158061904Y-134540476D01*
X158442857Y-134578571D01*
X158404761Y-134540476D01*
X158366666Y-134464285D01*
X158366666Y-134273809D01*
X158404761Y-134197619D01*
X158442857Y-134159523D01*
X158519047Y-134121428D01*
X158709523Y-134121428D01*
X158785714Y-134159523D01*
X158823809Y-134197619D01*
X158861904Y-134273809D01*
X158861904Y-134464285D01*
X158823809Y-134540476D01*
X158785714Y-134578571D01*
%TO.C,U2*%
X183238095Y-132952380D02*
X183238095Y-133761904D01*
X183285714Y-133857142D01*
X183333333Y-133904761D01*
X183428571Y-133952380D01*
X183619047Y-133952380D01*
X183714285Y-133904761D01*
X183761904Y-133857142D01*
X183809523Y-133761904D01*
X183809523Y-132952380D01*
X184238095Y-133047619D02*
X184285714Y-133000000D01*
X184380952Y-132952380D01*
X184619047Y-132952380D01*
X184714285Y-133000000D01*
X184761904Y-133047619D01*
X184809523Y-133142857D01*
X184809523Y-133238095D01*
X184761904Y-133380952D01*
X184190476Y-133952380D01*
X184809523Y-133952380D01*
%TO.C,D7*%
X150261904Y-130552380D02*
X150261904Y-129552380D01*
X150500000Y-129552380D01*
X150642857Y-129600000D01*
X150738095Y-129695238D01*
X150785714Y-129790476D01*
X150833333Y-129980952D01*
X150833333Y-130123809D01*
X150785714Y-130314285D01*
X150738095Y-130409523D01*
X150642857Y-130504761D01*
X150500000Y-130552380D01*
X150261904Y-130552380D01*
X151166666Y-129552380D02*
X151833333Y-129552380D01*
X151404761Y-130552380D01*
%TO.C,R2*%
X155833333Y-137122380D02*
X155500000Y-136646190D01*
X155261904Y-137122380D02*
X155261904Y-136122380D01*
X155642857Y-136122380D01*
X155738095Y-136170000D01*
X155785714Y-136217619D01*
X155833333Y-136312857D01*
X155833333Y-136455714D01*
X155785714Y-136550952D01*
X155738095Y-136598571D01*
X155642857Y-136646190D01*
X155261904Y-136646190D01*
X156214285Y-136217619D02*
X156261904Y-136170000D01*
X156357142Y-136122380D01*
X156595238Y-136122380D01*
X156690476Y-136170000D01*
X156738095Y-136217619D01*
X156785714Y-136312857D01*
X156785714Y-136408095D01*
X156738095Y-136550952D01*
X156166666Y-137122380D01*
X156785714Y-137122380D01*
%TO.C,R4*%
X180022380Y-136966666D02*
X179546190Y-137300000D01*
X180022380Y-137538095D02*
X179022380Y-137538095D01*
X179022380Y-137157142D01*
X179070000Y-137061904D01*
X179117619Y-137014285D01*
X179212857Y-136966666D01*
X179355714Y-136966666D01*
X179450952Y-137014285D01*
X179498571Y-137061904D01*
X179546190Y-137157142D01*
X179546190Y-137538095D01*
X179355714Y-136109523D02*
X180022380Y-136109523D01*
X178974761Y-136347619D02*
X179689047Y-136585714D01*
X179689047Y-135966666D01*
%TD*%
M02*
