%TF.GenerationSoftware,KiCad,Pcbnew,5.1.9+dfsg1-1*%
%TF.CreationDate,2021-06-24T19:32:38+02:00*%
%TF.ProjectId,pcb,7063622e-6b69-4636-9164-5f7063625858,rev?*%
%TF.SameCoordinates,Original*%
%TF.FileFunction,Paste,Top*%
%TF.FilePolarity,Positive*%
%FSLAX46Y46*%
G04 Gerber Fmt 4.6, Leading zero omitted, Abs format (unit mm)*
G04 Created by KiCad (PCBNEW 5.1.9+dfsg1-1) date 2021-06-24 19:32:38*
%MOMM*%
%LPD*%
G01*
G04 APERTURE LIST*
%ADD10R,0.450000X0.600000*%
%ADD11R,0.600000X0.450000*%
%ADD12R,0.800000X0.900000*%
%ADD13R,0.800000X2.900000*%
%ADD14R,0.900000X0.800000*%
%ADD15R,1.060000X0.650000*%
G04 APERTURE END LIST*
D10*
%TO.C,D6*%
X183250000Y-131450000D03*
X183250000Y-133550000D03*
%TD*%
%TO.C,U1*%
G36*
G01*
X158325000Y-133475000D02*
X158125000Y-133475000D01*
G75*
G02*
X158025000Y-133375000I0J100000D01*
G01*
X158025000Y-132125000D01*
G75*
G02*
X158125000Y-132025000I100000J0D01*
G01*
X158325000Y-132025000D01*
G75*
G02*
X158425000Y-132125000I0J-100000D01*
G01*
X158425000Y-133375000D01*
G75*
G02*
X158325000Y-133475000I-100000J0D01*
G01*
G37*
G36*
G01*
X158975000Y-133475000D02*
X158775000Y-133475000D01*
G75*
G02*
X158675000Y-133375000I0J100000D01*
G01*
X158675000Y-132125000D01*
G75*
G02*
X158775000Y-132025000I100000J0D01*
G01*
X158975000Y-132025000D01*
G75*
G02*
X159075000Y-132125000I0J-100000D01*
G01*
X159075000Y-133375000D01*
G75*
G02*
X158975000Y-133475000I-100000J0D01*
G01*
G37*
G36*
G01*
X159625000Y-133475000D02*
X159425000Y-133475000D01*
G75*
G02*
X159325000Y-133375000I0J100000D01*
G01*
X159325000Y-132125000D01*
G75*
G02*
X159425000Y-132025000I100000J0D01*
G01*
X159625000Y-132025000D01*
G75*
G02*
X159725000Y-132125000I0J-100000D01*
G01*
X159725000Y-133375000D01*
G75*
G02*
X159625000Y-133475000I-100000J0D01*
G01*
G37*
G36*
G01*
X160275000Y-133475000D02*
X160075000Y-133475000D01*
G75*
G02*
X159975000Y-133375000I0J100000D01*
G01*
X159975000Y-132125000D01*
G75*
G02*
X160075000Y-132025000I100000J0D01*
G01*
X160275000Y-132025000D01*
G75*
G02*
X160375000Y-132125000I0J-100000D01*
G01*
X160375000Y-133375000D01*
G75*
G02*
X160275000Y-133475000I-100000J0D01*
G01*
G37*
G36*
G01*
X160275000Y-129175000D02*
X160075000Y-129175000D01*
G75*
G02*
X159975000Y-129075000I0J100000D01*
G01*
X159975000Y-127825000D01*
G75*
G02*
X160075000Y-127725000I100000J0D01*
G01*
X160275000Y-127725000D01*
G75*
G02*
X160375000Y-127825000I0J-100000D01*
G01*
X160375000Y-129075000D01*
G75*
G02*
X160275000Y-129175000I-100000J0D01*
G01*
G37*
G36*
G01*
X159625000Y-129175000D02*
X159425000Y-129175000D01*
G75*
G02*
X159325000Y-129075000I0J100000D01*
G01*
X159325000Y-127825000D01*
G75*
G02*
X159425000Y-127725000I100000J0D01*
G01*
X159625000Y-127725000D01*
G75*
G02*
X159725000Y-127825000I0J-100000D01*
G01*
X159725000Y-129075000D01*
G75*
G02*
X159625000Y-129175000I-100000J0D01*
G01*
G37*
G36*
G01*
X158975000Y-129175000D02*
X158775000Y-129175000D01*
G75*
G02*
X158675000Y-129075000I0J100000D01*
G01*
X158675000Y-127825000D01*
G75*
G02*
X158775000Y-127725000I100000J0D01*
G01*
X158975000Y-127725000D01*
G75*
G02*
X159075000Y-127825000I0J-100000D01*
G01*
X159075000Y-129075000D01*
G75*
G02*
X158975000Y-129175000I-100000J0D01*
G01*
G37*
G36*
G01*
X158325000Y-129175000D02*
X158125000Y-129175000D01*
G75*
G02*
X158025000Y-129075000I0J100000D01*
G01*
X158025000Y-127825000D01*
G75*
G02*
X158125000Y-127725000I100000J0D01*
G01*
X158325000Y-127725000D01*
G75*
G02*
X158425000Y-127825000I0J-100000D01*
G01*
X158425000Y-129075000D01*
G75*
G02*
X158325000Y-129175000I-100000J0D01*
G01*
G37*
G36*
G01*
X158950000Y-131370000D02*
X158510000Y-131370000D01*
G75*
G02*
X158335000Y-131195000I0J175000D01*
G01*
X158335000Y-130845000D01*
G75*
G02*
X158510000Y-130670000I175000J0D01*
G01*
X158950000Y-130670000D01*
G75*
G02*
X159125000Y-130845000I0J-175000D01*
G01*
X159125000Y-131195000D01*
G75*
G02*
X158950000Y-131370000I-175000J0D01*
G01*
G37*
G36*
G01*
X159890000Y-131370000D02*
X159450000Y-131370000D01*
G75*
G02*
X159275000Y-131195000I0J175000D01*
G01*
X159275000Y-130845000D01*
G75*
G02*
X159450000Y-130670000I175000J0D01*
G01*
X159890000Y-130670000D01*
G75*
G02*
X160065000Y-130845000I0J-175000D01*
G01*
X160065000Y-131195000D01*
G75*
G02*
X159890000Y-131370000I-175000J0D01*
G01*
G37*
G36*
G01*
X158950000Y-130530000D02*
X158510000Y-130530000D01*
G75*
G02*
X158335000Y-130355000I0J175000D01*
G01*
X158335000Y-130005000D01*
G75*
G02*
X158510000Y-129830000I175000J0D01*
G01*
X158950000Y-129830000D01*
G75*
G02*
X159125000Y-130005000I0J-175000D01*
G01*
X159125000Y-130355000D01*
G75*
G02*
X158950000Y-130530000I-175000J0D01*
G01*
G37*
G36*
G01*
X159890000Y-130530000D02*
X159450000Y-130530000D01*
G75*
G02*
X159275000Y-130355000I0J175000D01*
G01*
X159275000Y-130005000D01*
G75*
G02*
X159450000Y-129830000I175000J0D01*
G01*
X159890000Y-129830000D01*
G75*
G02*
X160065000Y-130005000I0J-175000D01*
G01*
X160065000Y-130355000D01*
G75*
G02*
X159890000Y-130530000I-175000J0D01*
G01*
G37*
%TD*%
D11*
%TO.C,D2*%
X150250000Y-125000000D03*
X152350000Y-125000000D03*
%TD*%
D12*
%TO.C,D3*%
X155750000Y-131100000D03*
X153850000Y-131100000D03*
X154800000Y-133100000D03*
%TD*%
%TO.C,C1*%
G36*
G01*
X149825000Y-122325000D02*
X149825000Y-123275000D01*
G75*
G02*
X149575000Y-123525000I-250000J0D01*
G01*
X148900000Y-123525000D01*
G75*
G02*
X148650000Y-123275000I0J250000D01*
G01*
X148650000Y-122325000D01*
G75*
G02*
X148900000Y-122075000I250000J0D01*
G01*
X149575000Y-122075000D01*
G75*
G02*
X149825000Y-122325000I0J-250000D01*
G01*
G37*
G36*
G01*
X147750000Y-122325000D02*
X147750000Y-123275000D01*
G75*
G02*
X147500000Y-123525000I-250000J0D01*
G01*
X146825000Y-123525000D01*
G75*
G02*
X146575000Y-123275000I0J250000D01*
G01*
X146575000Y-122325000D01*
G75*
G02*
X146825000Y-122075000I250000J0D01*
G01*
X147500000Y-122075000D01*
G75*
G02*
X147750000Y-122325000I0J-250000D01*
G01*
G37*
%TD*%
%TO.C,C2*%
G36*
G01*
X162437500Y-124575000D02*
X161962500Y-124575000D01*
G75*
G02*
X161725000Y-124337500I0J237500D01*
G01*
X161725000Y-123737500D01*
G75*
G02*
X161962500Y-123500000I237500J0D01*
G01*
X162437500Y-123500000D01*
G75*
G02*
X162675000Y-123737500I0J-237500D01*
G01*
X162675000Y-124337500D01*
G75*
G02*
X162437500Y-124575000I-237500J0D01*
G01*
G37*
G36*
G01*
X162437500Y-126300000D02*
X161962500Y-126300000D01*
G75*
G02*
X161725000Y-126062500I0J237500D01*
G01*
X161725000Y-125462500D01*
G75*
G02*
X161962500Y-125225000I237500J0D01*
G01*
X162437500Y-125225000D01*
G75*
G02*
X162675000Y-125462500I0J-237500D01*
G01*
X162675000Y-126062500D01*
G75*
G02*
X162437500Y-126300000I-237500J0D01*
G01*
G37*
%TD*%
%TO.C,C4*%
G36*
G01*
X156500000Y-134562500D02*
X156500000Y-135037500D01*
G75*
G02*
X156262500Y-135275000I-237500J0D01*
G01*
X155662500Y-135275000D01*
G75*
G02*
X155425000Y-135037500I0J237500D01*
G01*
X155425000Y-134562500D01*
G75*
G02*
X155662500Y-134325000I237500J0D01*
G01*
X156262500Y-134325000D01*
G75*
G02*
X156500000Y-134562500I0J-237500D01*
G01*
G37*
G36*
G01*
X154775000Y-134562500D02*
X154775000Y-135037500D01*
G75*
G02*
X154537500Y-135275000I-237500J0D01*
G01*
X153937500Y-135275000D01*
G75*
G02*
X153700000Y-135037500I0J237500D01*
G01*
X153700000Y-134562500D01*
G75*
G02*
X153937500Y-134325000I237500J0D01*
G01*
X154537500Y-134325000D01*
G75*
G02*
X154775000Y-134562500I0J-237500D01*
G01*
G37*
%TD*%
%TO.C,C5*%
G36*
G01*
X155125000Y-129537500D02*
X155125000Y-129062500D01*
G75*
G02*
X155362500Y-128825000I237500J0D01*
G01*
X155962500Y-128825000D01*
G75*
G02*
X156200000Y-129062500I0J-237500D01*
G01*
X156200000Y-129537500D01*
G75*
G02*
X155962500Y-129775000I-237500J0D01*
G01*
X155362500Y-129775000D01*
G75*
G02*
X155125000Y-129537500I0J237500D01*
G01*
G37*
G36*
G01*
X153400000Y-129537500D02*
X153400000Y-129062500D01*
G75*
G02*
X153637500Y-128825000I237500J0D01*
G01*
X154237500Y-128825000D01*
G75*
G02*
X154475000Y-129062500I0J-237500D01*
G01*
X154475000Y-129537500D01*
G75*
G02*
X154237500Y-129775000I-237500J0D01*
G01*
X153637500Y-129775000D01*
G75*
G02*
X153400000Y-129537500I0J237500D01*
G01*
G37*
%TD*%
%TO.C,C6*%
G36*
G01*
X162437500Y-133300000D02*
X161962500Y-133300000D01*
G75*
G02*
X161725000Y-133062500I0J237500D01*
G01*
X161725000Y-132462500D01*
G75*
G02*
X161962500Y-132225000I237500J0D01*
G01*
X162437500Y-132225000D01*
G75*
G02*
X162675000Y-132462500I0J-237500D01*
G01*
X162675000Y-133062500D01*
G75*
G02*
X162437500Y-133300000I-237500J0D01*
G01*
G37*
G36*
G01*
X162437500Y-131575000D02*
X161962500Y-131575000D01*
G75*
G02*
X161725000Y-131337500I0J237500D01*
G01*
X161725000Y-130737500D01*
G75*
G02*
X161962500Y-130500000I237500J0D01*
G01*
X162437500Y-130500000D01*
G75*
G02*
X162675000Y-130737500I0J-237500D01*
G01*
X162675000Y-131337500D01*
G75*
G02*
X162437500Y-131575000I-237500J0D01*
G01*
G37*
%TD*%
D10*
%TO.C,D1*%
X147800000Y-124450000D03*
X147800000Y-126550000D03*
%TD*%
D11*
%TO.C,D4*%
X161250000Y-136600000D03*
X163350000Y-136600000D03*
%TD*%
D13*
%TO.C,L1*%
X156400000Y-125200000D03*
X158600000Y-125200000D03*
%TD*%
D14*
%TO.C,Q1*%
X149400000Y-128150000D03*
X149400000Y-130050000D03*
X151400000Y-129100000D03*
%TD*%
%TO.C,R1*%
G36*
G01*
X162437500Y-127975000D02*
X161962500Y-127975000D01*
G75*
G02*
X161725000Y-127737500I0J237500D01*
G01*
X161725000Y-127237500D01*
G75*
G02*
X161962500Y-127000000I237500J0D01*
G01*
X162437500Y-127000000D01*
G75*
G02*
X162675000Y-127237500I0J-237500D01*
G01*
X162675000Y-127737500D01*
G75*
G02*
X162437500Y-127975000I-237500J0D01*
G01*
G37*
G36*
G01*
X162437500Y-129800000D02*
X161962500Y-129800000D01*
G75*
G02*
X161725000Y-129562500I0J237500D01*
G01*
X161725000Y-129062500D01*
G75*
G02*
X161962500Y-128825000I237500J0D01*
G01*
X162437500Y-128825000D01*
G75*
G02*
X162675000Y-129062500I0J-237500D01*
G01*
X162675000Y-129562500D01*
G75*
G02*
X162437500Y-129800000I-237500J0D01*
G01*
G37*
%TD*%
%TO.C,R3*%
G36*
G01*
X147262500Y-128200000D02*
X147737500Y-128200000D01*
G75*
G02*
X147975000Y-128437500I0J-237500D01*
G01*
X147975000Y-128937500D01*
G75*
G02*
X147737500Y-129175000I-237500J0D01*
G01*
X147262500Y-129175000D01*
G75*
G02*
X147025000Y-128937500I0J237500D01*
G01*
X147025000Y-128437500D01*
G75*
G02*
X147262500Y-128200000I237500J0D01*
G01*
G37*
G36*
G01*
X147262500Y-130025000D02*
X147737500Y-130025000D01*
G75*
G02*
X147975000Y-130262500I0J-237500D01*
G01*
X147975000Y-130762500D01*
G75*
G02*
X147737500Y-131000000I-237500J0D01*
G01*
X147262500Y-131000000D01*
G75*
G02*
X147025000Y-130762500I0J237500D01*
G01*
X147025000Y-130262500D01*
G75*
G02*
X147262500Y-130025000I237500J0D01*
G01*
G37*
%TD*%
%TO.C,R5*%
G36*
G01*
X157200000Y-136737500D02*
X157200000Y-136262500D01*
G75*
G02*
X157437500Y-136025000I237500J0D01*
G01*
X157937500Y-136025000D01*
G75*
G02*
X158175000Y-136262500I0J-237500D01*
G01*
X158175000Y-136737500D01*
G75*
G02*
X157937500Y-136975000I-237500J0D01*
G01*
X157437500Y-136975000D01*
G75*
G02*
X157200000Y-136737500I0J237500D01*
G01*
G37*
G36*
G01*
X159025000Y-136737500D02*
X159025000Y-136262500D01*
G75*
G02*
X159262500Y-136025000I237500J0D01*
G01*
X159762500Y-136025000D01*
G75*
G02*
X160000000Y-136262500I0J-237500D01*
G01*
X160000000Y-136737500D01*
G75*
G02*
X159762500Y-136975000I-237500J0D01*
G01*
X159262500Y-136975000D01*
G75*
G02*
X159025000Y-136737500I0J237500D01*
G01*
G37*
%TD*%
%TO.C,R7*%
G36*
G01*
X160900000Y-134837500D02*
X160900000Y-134362500D01*
G75*
G02*
X161137500Y-134125000I237500J0D01*
G01*
X161637500Y-134125000D01*
G75*
G02*
X161875000Y-134362500I0J-237500D01*
G01*
X161875000Y-134837500D01*
G75*
G02*
X161637500Y-135075000I-237500J0D01*
G01*
X161137500Y-135075000D01*
G75*
G02*
X160900000Y-134837500I0J237500D01*
G01*
G37*
G36*
G01*
X162725000Y-134837500D02*
X162725000Y-134362500D01*
G75*
G02*
X162962500Y-134125000I237500J0D01*
G01*
X163462500Y-134125000D01*
G75*
G02*
X163700000Y-134362500I0J-237500D01*
G01*
X163700000Y-134837500D01*
G75*
G02*
X163462500Y-135075000I-237500J0D01*
G01*
X162962500Y-135075000D01*
G75*
G02*
X162725000Y-134837500I0J237500D01*
G01*
G37*
%TD*%
%TO.C,R8*%
G36*
G01*
X156100000Y-122537500D02*
X156100000Y-122062500D01*
G75*
G02*
X156337500Y-121825000I237500J0D01*
G01*
X156837500Y-121825000D01*
G75*
G02*
X157075000Y-122062500I0J-237500D01*
G01*
X157075000Y-122537500D01*
G75*
G02*
X156837500Y-122775000I-237500J0D01*
G01*
X156337500Y-122775000D01*
G75*
G02*
X156100000Y-122537500I0J237500D01*
G01*
G37*
G36*
G01*
X157925000Y-122537500D02*
X157925000Y-122062500D01*
G75*
G02*
X158162500Y-121825000I237500J0D01*
G01*
X158662500Y-121825000D01*
G75*
G02*
X158900000Y-122062500I0J-237500D01*
G01*
X158900000Y-122537500D01*
G75*
G02*
X158662500Y-122775000I-237500J0D01*
G01*
X158162500Y-122775000D01*
G75*
G02*
X157925000Y-122537500I0J237500D01*
G01*
G37*
%TD*%
%TO.C,R9*%
G36*
G01*
X161725000Y-122537500D02*
X161725000Y-122062500D01*
G75*
G02*
X161962500Y-121825000I237500J0D01*
G01*
X162462500Y-121825000D01*
G75*
G02*
X162700000Y-122062500I0J-237500D01*
G01*
X162700000Y-122537500D01*
G75*
G02*
X162462500Y-122775000I-237500J0D01*
G01*
X161962500Y-122775000D01*
G75*
G02*
X161725000Y-122537500I0J237500D01*
G01*
G37*
G36*
G01*
X159900000Y-122537500D02*
X159900000Y-122062500D01*
G75*
G02*
X160137500Y-121825000I237500J0D01*
G01*
X160637500Y-121825000D01*
G75*
G02*
X160875000Y-122062500I0J-237500D01*
G01*
X160875000Y-122537500D01*
G75*
G02*
X160637500Y-122775000I-237500J0D01*
G01*
X160137500Y-122775000D01*
G75*
G02*
X159900000Y-122537500I0J237500D01*
G01*
G37*
%TD*%
D11*
%TO.C,D5*%
X157450000Y-134750000D03*
X159550000Y-134750000D03*
%TD*%
D15*
%TO.C,U2*%
X182650000Y-135050000D03*
X182650000Y-136000000D03*
X182650000Y-136950000D03*
X184850000Y-136950000D03*
X184850000Y-135050000D03*
%TD*%
D14*
%TO.C,D7*%
X150000000Y-131650000D03*
X150000000Y-133550000D03*
X152000000Y-132600000D03*
%TD*%
%TO.C,R2*%
G36*
G01*
X154600000Y-138337500D02*
X154600000Y-137862500D01*
G75*
G02*
X154837500Y-137625000I237500J0D01*
G01*
X155337500Y-137625000D01*
G75*
G02*
X155575000Y-137862500I0J-237500D01*
G01*
X155575000Y-138337500D01*
G75*
G02*
X155337500Y-138575000I-237500J0D01*
G01*
X154837500Y-138575000D01*
G75*
G02*
X154600000Y-138337500I0J237500D01*
G01*
G37*
G36*
G01*
X156425000Y-138337500D02*
X156425000Y-137862500D01*
G75*
G02*
X156662500Y-137625000I237500J0D01*
G01*
X157162500Y-137625000D01*
G75*
G02*
X157400000Y-137862500I0J-237500D01*
G01*
X157400000Y-138337500D01*
G75*
G02*
X157162500Y-138575000I-237500J0D01*
G01*
X156662500Y-138575000D01*
G75*
G02*
X156425000Y-138337500I0J237500D01*
G01*
G37*
%TD*%
%TO.C,R4*%
G36*
G01*
X181237500Y-136375000D02*
X180762500Y-136375000D01*
G75*
G02*
X180525000Y-136137500I0J237500D01*
G01*
X180525000Y-135637500D01*
G75*
G02*
X180762500Y-135400000I237500J0D01*
G01*
X181237500Y-135400000D01*
G75*
G02*
X181475000Y-135637500I0J-237500D01*
G01*
X181475000Y-136137500D01*
G75*
G02*
X181237500Y-136375000I-237500J0D01*
G01*
G37*
G36*
G01*
X181237500Y-138200000D02*
X180762500Y-138200000D01*
G75*
G02*
X180525000Y-137962500I0J237500D01*
G01*
X180525000Y-137462500D01*
G75*
G02*
X180762500Y-137225000I237500J0D01*
G01*
X181237500Y-137225000D01*
G75*
G02*
X181475000Y-137462500I0J-237500D01*
G01*
X181475000Y-137962500D01*
G75*
G02*
X181237500Y-138200000I-237500J0D01*
G01*
G37*
%TD*%
M02*
